<svg width="25" height="24" viewBox="0 0 25 24" fill="none" xmlns="http://www.w3.org/2000/svg">
    <path d="M8.9937 7.31045C9.09249 7.32166 9.19169 7.29322 9.26952 7.23135C9.34735 7.16949 9.39744 7.07926 9.4088 6.98049C9.48951 6.28232 9.82443 5.6383 10.3497 5.1713C10.8749 4.7043 11.5536 4.447 12.2565 4.44849C12.3559 4.44849 12.4513 4.40898 12.5216 4.33866C12.5919 4.26833 12.6315 4.17295 12.6315 4.07349C12.6315 3.97404 12.5919 3.87865 12.5216 3.80833C12.4513 3.738 12.3559 3.69849 12.2565 3.69849C11.3694 3.69695 10.5129 4.02202 9.85019 4.61168C9.18751 5.20134 8.7651 6.01432 8.66355 6.89553C8.65797 6.94446 8.66208 6.994 8.67566 7.04133C8.68923 7.08866 8.712 7.13286 8.74266 7.17139C8.77332 7.20992 8.81127 7.24203 8.85435 7.26589C8.89742 7.28975 8.94477 7.30489 8.9937 7.31045Z" fill="currentColor"/>
    <path d="M23 11.0278C22.9962 10.3308 22.838 9.64317 22.5367 9.01455C22.2355 8.38593 21.7986 7.83189 21.2576 7.39228C20.7166 6.95268 20.0849 6.63843 19.408 6.47214C18.731 6.30585 18.0256 6.29166 17.3425 6.43058C17.1348 5.13166 16.4733 3.94845 15.4756 3.09116C14.4779 2.23388 13.2086 1.75804 11.8932 1.7482C10.5778 1.73836 9.30157 2.19516 8.29117 3.03743C7.28077 3.87969 6.60167 5.05288 6.37455 6.34854C5.15931 6.43194 4.02401 6.98427 3.20833 7.88894C2.39265 8.79361 1.96041 9.97984 2.00285 11.1972C2.0453 12.4146 2.55911 13.5678 3.43581 14.4135C4.31252 15.2591 5.48352 15.7311 6.70162 15.7296V18.0792C6.70095 18.3255 6.74916 18.5695 6.84345 18.7971C6.93775 19.0247 7.07625 19.2312 7.25093 19.4049L9.54909 21.7032C9.72282 21.8779 9.92945 22.0163 10.157 22.1105C10.3846 22.2047 10.6286 22.2529 10.875 22.2522H14.1251C14.3714 22.2529 14.6154 22.2047 14.843 22.1105C15.0706 22.0163 15.2772 21.8779 15.4509 21.7032L17.7491 19.4049C17.9238 19.2312 18.0623 19.0247 18.1566 18.7971C18.2509 18.5695 18.2991 18.3255 18.2984 18.0792V15.7294C19.5449 15.728 20.7399 15.2322 21.6213 14.3508C22.5028 13.4693 22.9986 12.2743 23 11.0278ZM2.75002 11.0278C2.75123 9.98171 3.16736 8.97879 3.90711 8.23911C4.64686 7.49942 5.64982 7.08338 6.69594 7.08227C6.75949 7.07777 6.82131 7.0596 6.87719 7.02902C6.92789 6.99967 6.97138 6.95936 7.00449 6.91104C7.0376 6.86272 7.05949 6.80761 7.06856 6.74974C7.15063 6.06095 7.38052 5.39802 7.74252 4.80631C8.10452 4.2146 8.59007 3.70808 9.16595 3.3214C9.74183 2.93472 10.3945 2.67701 11.0792 2.56591C11.7639 2.45481 12.4645 2.49294 13.1331 2.67768C13.8017 2.86243 14.4225 3.18943 14.953 3.63632C15.4835 4.0832 15.9113 4.63943 16.2069 5.26692C16.5026 5.89442 16.6592 6.57838 16.666 7.272C16.6728 7.96563 16.5298 8.65255 16.2465 9.28575C16.2081 9.37614 16.2067 9.478 16.2425 9.56945C16.2784 9.66089 16.3487 9.73463 16.4383 9.77481C16.5279 9.81499 16.6297 9.81842 16.7219 9.78435C16.814 9.75028 16.8891 9.68144 16.931 9.59261C17.2727 8.83563 17.4369 8.01056 17.411 7.18043C17.9533 7.05519 18.5159 7.04595 19.062 7.15333C19.6081 7.2607 20.1253 7.48226 20.5798 7.80348C21.0343 8.1247 21.4158 8.53834 21.6992 9.01728C21.9827 9.49622 22.1617 10.0297 22.2247 10.5826C22.2876 11.1356 22.2329 11.6956 22.0643 12.226C21.8957 12.7564 21.6169 13.2452 21.2462 13.6603C20.8755 14.0754 20.4213 14.4075 19.9133 14.6348C19.4053 14.8621 18.855 14.9795 18.2984 14.9793C18.3171 14.7083 18.2777 14.4365 18.183 14.1819C18.0883 13.9273 17.9403 13.6959 17.7491 13.503L15.4509 11.2047C15.2772 11.0301 15.0706 10.8916 14.843 10.7974C14.6154 10.7032 14.3714 10.655 14.1251 10.6557H10.875C10.6286 10.655 10.3846 10.7032 10.157 10.7974C9.92945 10.8916 9.72282 11.0301 9.54909 11.2047L7.25093 13.503C7.05964 13.6959 6.91169 13.9274 6.81697 14.182C6.72225 14.4367 6.68293 14.7086 6.70163 14.9796C5.65376 14.979 4.64897 14.5624 3.90803 13.8215C3.16708 13.0805 2.75058 12.0757 2.75002 11.0278ZM17.2188 18.8746L14.9207 21.173C14.8164 21.2777 14.6924 21.3608 14.5559 21.4173C14.4193 21.4738 14.2729 21.5026 14.1251 21.5022H10.875C10.7272 21.5026 10.5807 21.4738 10.4442 21.4173C10.3076 21.3608 10.1836 21.2777 10.0794 21.173L7.78121 18.8746C7.57095 18.6632 7.45253 18.3774 7.45162 18.0792V15.3591C7.44524 14.9166 7.41197 14.3562 7.78124 14.0333L10.0794 11.735C10.1836 11.6302 10.3076 11.5472 10.4442 11.4907C10.5807 11.4341 10.7272 11.4053 10.875 11.4057H14.1251C14.2729 11.4053 14.4193 11.4341 14.5559 11.4907C14.6924 11.5472 14.8164 11.6302 14.9207 11.735L17.2188 14.0333C17.4291 14.2447 17.5475 14.5305 17.5484 14.8287C17.5438 15.1301 17.5517 17.7093 17.5484 18.0792C17.5475 18.3774 17.4291 18.6632 17.2188 18.8746Z" fill="currentColor"/>
    <path d="M13.815 13.277L12.7753 14.3167C12.5761 14.5172 12.447 14.7767 12.407 15.0565C12.367 15.3363 12.4183 15.6215 12.5533 15.8699L11.9124 16.5107C11.6634 16.3815 11.3802 16.3331 11.1024 16.3724C10.8246 16.4116 10.5659 16.5365 10.3624 16.7296L9.32269 17.7693C9.14244 17.9548 9.02048 18.1891 8.97185 18.4432C8.92323 18.6972 8.95007 18.96 9.04906 19.1989C9.14805 19.4379 9.31486 19.6427 9.52889 19.7879C9.74293 19.9332 9.99482 20.0126 10.2535 20.0163C10.4264 20.0168 10.5977 19.983 10.7574 19.9168C10.9172 19.8506 11.0622 19.7534 11.1841 19.6307L12.2238 18.5911C12.423 18.3905 12.5522 18.1311 12.5922 17.8512C12.6322 17.5714 12.5809 17.2862 12.4459 17.0378L13.0831 16.4006C13.3313 16.5367 13.6169 16.5886 13.8971 16.5485C14.1772 16.5084 14.4368 16.3784 14.6368 16.1781L15.6764 15.1384C16.871 13.8717 15.0829 12.1073 13.815 13.277ZM11.6935 18.0608L10.6539 19.1005C10.5471 19.2038 10.404 19.261 10.2554 19.2597C10.1068 19.2585 9.96466 19.1989 9.85959 19.0938C9.75453 18.9888 9.69496 18.8466 9.69373 18.698C9.69249 18.5495 9.74969 18.4063 9.85298 18.2995L10.8926 17.2599C10.9486 17.2028 11.0164 17.1587 11.0913 17.1306C11.1661 17.1025 11.2462 17.0911 11.326 17.0972L11.1548 17.2683C11.0868 17.3391 11.0492 17.4337 11.0502 17.5319C11.0511 17.6301 11.0906 17.724 11.16 17.7934C11.2294 17.8629 11.3233 17.9023 11.4215 17.9033C11.5197 17.9042 11.6144 17.8666 11.6851 17.7986L11.8533 17.6304C11.8587 17.7093 11.8472 17.7885 11.8197 17.8627C11.7921 17.9369 11.7491 18.0044 11.6935 18.0608ZM15.1462 14.6082L14.1065 15.6478C14.0501 15.7019 13.9831 15.7436 13.9097 15.7704C13.8363 15.7972 13.7582 15.8085 13.6803 15.8035L13.8443 15.6394C13.9123 15.5686 13.9499 15.474 13.949 15.3758C13.948 15.2776 13.9086 15.1837 13.8391 15.1143C13.7697 15.0449 13.6758 15.0054 13.5776 15.0045C13.4794 15.0035 13.3848 15.0411 13.314 15.1092L13.1458 15.2774C13.1405 15.1984 13.1519 15.1192 13.1795 15.045C13.207 14.9708 13.25 14.9033 13.3056 14.847L14.3453 13.8073C14.452 13.7038 14.5952 13.6464 14.7439 13.6475C14.8926 13.6486 15.0349 13.7082 15.1401 13.8134C15.2452 13.9185 15.3048 14.0608 15.3059 14.2095C15.3071 14.3582 15.2497 14.5014 15.1462 14.6082Z" fill="currentColor"/>
</svg>
