<svg width="20" height="21" viewBox="0 0 20 21" fill="none" xmlns="http://www.w3.org/2000/svg">
    <path fill-rule="evenodd" clip-rule="evenodd" d="M5.02658 2.22703C6.29245 0.961159 8.00934 0.25 9.79955 0.25C11.5898 0.25 13.3067 0.961159 14.5725 2.22703C15.8384 3.4929 16.5496 5.20979 16.5496 7C16.5496 9.95705 17.2934 11.9344 18.0867 13.2092L18.0956 13.2235C18.4553 13.8016 18.736 14.2528 18.9244 14.5795C19.0187 14.7431 19.1008 14.8943 19.16 15.0248C19.1896 15.09 19.2206 15.1653 19.2442 15.2446C19.2643 15.3119 19.2986 15.4441 19.2857 15.6019C19.2755 15.7273 19.2512 15.9183 19.1431 16.1129C19.035 16.3075 18.8856 16.429 18.7846 16.5039C18.5856 16.6516 18.3506 16.6868 18.2588 16.7004C18.1249 16.7202 17.9683 16.7307 17.8023 16.7371C17.472 16.75 17.0119 16.75 16.4299 16.75H3.16921C2.58724 16.75 2.12712 16.75 1.79681 16.7371C1.63079 16.7307 1.47419 16.7202 1.34027 16.7004C1.24851 16.6868 1.0135 16.6516 0.8145 16.5039C0.713454 16.429 0.564063 16.3075 0.455978 16.1129C0.347894 15.9183 0.323628 15.7273 0.313372 15.6019C0.300465 15.4441 0.334833 15.3119 0.35486 15.2446C0.378475 15.1653 0.409459 15.09 0.439057 15.0248C0.498335 14.8943 0.580434 14.7431 0.674743 14.5795C0.863035 14.2528 1.1437 13.8017 1.50333 13.2238L1.51243 13.2092C2.30566 11.9344 3.04955 9.95705 3.04955 7C3.04955 5.20979 3.76071 3.4929 5.02658 2.22703ZM9.79955 1.75C8.40716 1.75 7.07181 2.30312 6.08724 3.28769C5.10267 4.27226 4.54955 5.60761 4.54955 7C4.54955 10.2233 3.73438 12.4775 2.786 14.0016C2.449 14.5432 2.19758 14.9475 2.0239 15.2434C2.30874 15.2499 2.68916 15.25 3.18841 15.25H16.4107C16.9099 15.25 17.2904 15.2499 17.5752 15.2434C17.4015 14.9475 17.1501 14.5432 16.8131 14.0017C15.8647 12.4775 15.0496 10.2233 15.0496 7C15.0496 5.60761 14.4964 4.27225 13.5119 3.28769C12.5273 2.30312 11.1919 1.75 9.79955 1.75ZM18.0575 15.2136C18.0681 15.2105 18.0742 15.2094 18.0747 15.2096C18.0751 15.2098 18.0699 15.2113 18.0575 15.2136ZM1.52442 15.2096C1.52484 15.2094 1.53099 15.2105 1.54157 15.2136C1.52928 15.2113 1.52399 15.2098 1.52442 15.2096ZM7.04955 20C7.04955 19.5858 7.38534 19.25 7.79955 19.25H11.7996C12.2138 19.25 12.5496 19.5858 12.5496 20C12.5496 20.4142 12.2138 20.75 11.7996 20.75H7.79955C7.38534 20.75 7.04955 20.4142 7.04955 20Z" fill="currentColor"/>
</svg>
