<svg width="24" height="24" viewBox="0 0 24 24" fill="none" xmlns="http://www.w3.org/2000/svg">
<g id="Icon / Cache">
<g id="Vector">
<mask id="path-1-outside-1_1764_84171" maskUnits="userSpaceOnUse" x="0.800781" y="3" width="22" height="19" fill="black">
<rect fill="white" x="0.800781" y="3" width="22" height="19"/>
<path d="M6.84908 8.08453C6.84908 7.91186 6.98893 7.77163 7.16199 7.77163H10.8462C11.0188 7.77163 11.1591 7.91147 11.1591 8.08453C11.1591 8.25758 11.0192 8.39743 10.8462 8.39743H7.16199C6.98932 8.39743 6.84908 8.25719 6.84908 8.08453ZM7.16199 11.6417H13.3021C13.4748 11.6417 13.615 11.5018 13.615 11.3288C13.615 11.1557 13.4752 11.0159 13.3021 11.0159H7.16199C6.98932 11.0159 6.84908 11.1557 6.84908 11.3288C6.84908 11.5018 6.98932 11.6417 7.16199 11.6417ZM7.16199 14.8863H12.4173C12.59 14.8863 12.7302 14.7465 12.7302 14.5734C12.7302 14.4004 12.5904 14.2605 12.4173 14.2605H7.16199C6.98932 14.2605 6.84908 14.4004 6.84908 14.5734C6.84908 14.7465 6.98932 14.8863 7.16199 14.8863ZM10.9634 17.504H7.16199C6.98932 17.504 6.84908 17.6439 6.84908 17.8169C6.84908 17.99 6.98893 18.1298 7.16199 18.1298H10.9634C11.136 18.1298 11.2763 17.99 11.2763 17.8169C11.2763 17.6439 11.1364 17.504 10.9634 17.504ZM21.7651 15.9001C21.7506 16.0129 21.7323 16.1301 21.7084 16.252C21.3162 18.2462 20.7416 19.4142 20.0314 20.7342C19.9759 20.8373 19.8689 20.8987 19.756 20.8987C19.729 20.8987 19.7021 20.8952 19.6751 20.8881L18.4196 20.5514C18.2856 20.5155 18.1926 20.3963 18.1879 20.26C18.1153 20.3764 17.9746 20.4323 17.8414 20.3967L15.3792 19.7369V19.8904C15.3792 20.4463 14.9268 20.8987 14.3709 20.8987H6.09436C5.53847 20.8987 5.0861 20.4463 5.0861 19.8904V18.849H2.80904C2.25315 18.849 1.80078 18.3966 1.80078 17.8408V5.00824C1.80078 4.45236 2.25315 4 2.80904 4H9.03669C9.30975 4 9.55625 4.10196 9.74962 4.29532L11.504 6.04969H12.3212C12.4642 6.04969 12.5998 6.07781 12.7244 6.1325C12.7322 6.13563 12.74 6.13914 12.7474 6.14266C12.7513 6.14461 12.7552 6.14617 12.7591 6.14813H12.7595C12.8595 6.19657 12.9517 6.26219 13.0342 6.34501L15.0839 8.3947C15.1737 8.48454 15.2433 8.58572 15.2929 8.69588C15.2933 8.69705 15.2936 8.69783 15.2944 8.699C15.3503 8.82518 15.3796 8.96269 15.3796 9.10761V12.2628C15.7702 12.1401 16.1988 12.1226 16.6226 12.2359L17.4899 12.4683L18.9149 7.14738C19.0524 6.64072 19.5751 6.33915 20.0806 6.47431C20.5873 6.61182 20.8889 7.13449 20.7537 7.63998L19.3278 12.9605L20.1888 13.1917C21.0467 13.4218 21.983 14.0758 21.7701 15.8606C21.7694 15.8739 21.7674 15.8872 21.7651 15.9001ZM18.0934 12.6304L18.7227 12.7992L20.1486 7.47904C20.1947 7.30559 20.0912 7.12629 19.9169 7.07902C19.7447 7.03293 19.565 7.13684 19.5177 7.31067L18.0934 12.6304ZM15.2507 12.9964C15.2351 13.0078 15.2183 13.0179 15.2007 13.0261C14.9483 13.1816 14.7382 13.4066 14.6022 13.6824L21.1752 15.4438C21.2064 14.2676 20.5568 13.9379 20.0267 13.7957L18.8731 13.4867C18.8696 13.4859 18.8665 13.4855 18.863 13.4847C18.8587 13.4836 18.8548 13.482 18.8505 13.4808L17.6313 13.1542C17.6309 13.1542 17.6301 13.1539 17.6297 13.1539C17.6293 13.1539 17.6285 13.1535 17.6281 13.1535L16.4601 12.8402C16.0359 12.7265 15.6054 12.7949 15.2507 12.9964ZM12.9228 7.11887V8.50681H14.3108L12.9228 7.11887ZM5.0861 18.2236V7.05793C5.0861 6.50205 5.53847 6.04969 6.09436 6.04969H10.6188L9.30702 4.73792C9.23045 4.66135 9.14451 4.6258 9.03669 4.6258H2.80904C2.59809 4.6258 2.42659 4.7973 2.42659 5.00824V17.8411C2.42659 18.0521 2.59809 18.2236 2.80904 18.2236H5.0861ZM14.7534 19.5693L14.6874 19.5518C14.5319 19.51 14.4334 19.3572 14.4596 19.1982C14.4901 19.0146 14.5112 18.8381 14.5229 18.6681C14.4096 18.8552 14.2881 19.0353 14.1588 19.2072C14.0795 19.3127 13.9424 19.3572 13.8166 19.3181L12.1701 18.8099C12.0802 18.7822 12.0075 18.7154 11.972 18.6279C11.9368 18.5404 11.9427 18.4419 11.9884 18.3595C12.765 16.956 13.3861 15.4676 13.8881 13.8097C14.0291 13.2898 14.344 12.8621 14.753 12.5726V9.13261H12.6099C12.4373 9.13261 12.297 8.99276 12.297 8.81971V6.67549H6.09436C5.88341 6.67549 5.71192 6.84698 5.71192 7.05793V19.8908C5.71192 20.1018 5.88341 20.2733 6.09436 20.2733H14.3706C14.5815 20.2733 14.753 20.1018 14.753 19.8908V19.5693H14.7534ZM21.0943 16.1321C21.0982 16.1118 21.1014 16.0926 21.1049 16.0731L14.3991 14.2762C13.9412 15.7325 13.3889 17.0634 12.7189 18.3251L13.7865 18.6548C14.0545 18.2681 14.2815 17.8411 14.4627 17.3825C14.5131 17.2548 14.6409 17.1747 14.7776 17.1853C14.9143 17.1958 15.0284 17.2942 15.0589 17.4278C15.1694 17.9142 15.189 18.4373 15.1175 19.0197L17.7711 19.7307C17.9028 19.4924 18.0215 19.2392 18.1258 18.9756C18.1762 18.8482 18.304 18.7681 18.4407 18.7787C18.5774 18.7892 18.6915 18.8873 18.7219 19.0209C18.7927 19.3307 18.8262 19.6635 18.822 20.0123L19.597 20.2201C20.247 18.9998 20.7392 17.9372 21.0943 16.1321Z"/>
</mask>
<path d="M6.84908 8.08453C6.84908 7.91186 6.98893 7.77163 7.16199 7.77163H10.8462C11.0188 7.77163 11.1591 7.91147 11.1591 8.08453C11.1591 8.25758 11.0192 8.39743 10.8462 8.39743H7.16199C6.98932 8.39743 6.84908 8.25719 6.84908 8.08453ZM7.16199 11.6417H13.3021C13.4748 11.6417 13.615 11.5018 13.615 11.3288C13.615 11.1557 13.4752 11.0159 13.3021 11.0159H7.16199C6.98932 11.0159 6.84908 11.1557 6.84908 11.3288C6.84908 11.5018 6.98932 11.6417 7.16199 11.6417ZM7.16199 14.8863H12.4173C12.59 14.8863 12.7302 14.7465 12.7302 14.5734C12.7302 14.4004 12.5904 14.2605 12.4173 14.2605H7.16199C6.98932 14.2605 6.84908 14.4004 6.84908 14.5734C6.84908 14.7465 6.98932 14.8863 7.16199 14.8863ZM10.9634 17.504H7.16199C6.98932 17.504 6.84908 17.6439 6.84908 17.8169C6.84908 17.99 6.98893 18.1298 7.16199 18.1298H10.9634C11.136 18.1298 11.2763 17.99 11.2763 17.8169C11.2763 17.6439 11.1364 17.504 10.9634 17.504ZM21.7651 15.9001C21.7506 16.0129 21.7323 16.1301 21.7084 16.252C21.3162 18.2462 20.7416 19.4142 20.0314 20.7342C19.9759 20.8373 19.8689 20.8987 19.756 20.8987C19.729 20.8987 19.7021 20.8952 19.6751 20.8881L18.4196 20.5514C18.2856 20.5155 18.1926 20.3963 18.1879 20.26C18.1153 20.3764 17.9746 20.4323 17.8414 20.3967L15.3792 19.7369V19.8904C15.3792 20.4463 14.9268 20.8987 14.3709 20.8987H6.09436C5.53847 20.8987 5.0861 20.4463 5.0861 19.8904V18.849H2.80904C2.25315 18.849 1.80078 18.3966 1.80078 17.8408V5.00824C1.80078 4.45236 2.25315 4 2.80904 4H9.03669C9.30975 4 9.55625 4.10196 9.74962 4.29532L11.504 6.04969H12.3212C12.4642 6.04969 12.5998 6.07781 12.7244 6.1325C12.7322 6.13563 12.74 6.13914 12.7474 6.14266C12.7513 6.14461 12.7552 6.14617 12.7591 6.14813H12.7595C12.8595 6.19657 12.9517 6.26219 13.0342 6.34501L15.0839 8.3947C15.1737 8.48454 15.2433 8.58572 15.2929 8.69588C15.2933 8.69705 15.2936 8.69783 15.2944 8.699C15.3503 8.82518 15.3796 8.96269 15.3796 9.10761V12.2628C15.7702 12.1401 16.1988 12.1226 16.6226 12.2359L17.4899 12.4683L18.9149 7.14738C19.0524 6.64072 19.5751 6.33915 20.0806 6.47431C20.5873 6.61182 20.8889 7.13449 20.7537 7.63998L19.3278 12.9605L20.1888 13.1917C21.0467 13.4218 21.983 14.0758 21.7701 15.8606C21.7694 15.8739 21.7674 15.8872 21.7651 15.9001ZM18.0934 12.6304L18.7227 12.7992L20.1486 7.47904C20.1947 7.30559 20.0912 7.12629 19.9169 7.07902C19.7447 7.03293 19.565 7.13684 19.5177 7.31067L18.0934 12.6304ZM15.2507 12.9964C15.2351 13.0078 15.2183 13.0179 15.2007 13.0261C14.9483 13.1816 14.7382 13.4066 14.6022 13.6824L21.1752 15.4438C21.2064 14.2676 20.5568 13.9379 20.0267 13.7957L18.8731 13.4867C18.8696 13.4859 18.8665 13.4855 18.863 13.4847C18.8587 13.4836 18.8548 13.482 18.8505 13.4808L17.6313 13.1542C17.6309 13.1542 17.6301 13.1539 17.6297 13.1539C17.6293 13.1539 17.6285 13.1535 17.6281 13.1535L16.4601 12.8402C16.0359 12.7265 15.6054 12.7949 15.2507 12.9964ZM12.9228 7.11887V8.50681H14.3108L12.9228 7.11887ZM5.0861 18.2236V7.05793C5.0861 6.50205 5.53847 6.04969 6.09436 6.04969H10.6188L9.30702 4.73792C9.23045 4.66135 9.14451 4.6258 9.03669 4.6258H2.80904C2.59809 4.6258 2.42659 4.7973 2.42659 5.00824V17.8411C2.42659 18.0521 2.59809 18.2236 2.80904 18.2236H5.0861ZM14.7534 19.5693L14.6874 19.5518C14.5319 19.51 14.4334 19.3572 14.4596 19.1982C14.4901 19.0146 14.5112 18.8381 14.5229 18.6681C14.4096 18.8552 14.2881 19.0353 14.1588 19.2072C14.0795 19.3127 13.9424 19.3572 13.8166 19.3181L12.1701 18.8099C12.0802 18.7822 12.0075 18.7154 11.972 18.6279C11.9368 18.5404 11.9427 18.4419 11.9884 18.3595C12.765 16.956 13.3861 15.4676 13.8881 13.8097C14.0291 13.2898 14.344 12.8621 14.753 12.5726V9.13261H12.6099C12.4373 9.13261 12.297 8.99276 12.297 8.81971V6.67549H6.09436C5.88341 6.67549 5.71192 6.84698 5.71192 7.05793V19.8908C5.71192 20.1018 5.88341 20.2733 6.09436 20.2733H14.3706C14.5815 20.2733 14.753 20.1018 14.753 19.8908V19.5693H14.7534ZM21.0943 16.1321C21.0982 16.1118 21.1014 16.0926 21.1049 16.0731L14.3991 14.2762C13.9412 15.7325 13.3889 17.0634 12.7189 18.3251L13.7865 18.6548C14.0545 18.2681 14.2815 17.8411 14.4627 17.3825C14.5131 17.2548 14.6409 17.1747 14.7776 17.1853C14.9143 17.1958 15.0284 17.2942 15.0589 17.4278C15.1694 17.9142 15.189 18.4373 15.1175 19.0197L17.7711 19.7307C17.9028 19.4924 18.0215 19.2392 18.1258 18.9756C18.1762 18.8482 18.304 18.7681 18.4407 18.7787C18.5774 18.7892 18.6915 18.8873 18.7219 19.0209C18.7927 19.3307 18.8262 19.6635 18.822 20.0123L19.597 20.2201C20.247 18.9998 20.7392 17.9372 21.0943 16.1321Z" fill="white"/>
<path d="M6.84908 8.08453C6.84908 7.91186 6.98893 7.77163 7.16199 7.77163H10.8462C11.0188 7.77163 11.1591 7.91147 11.1591 8.08453C11.1591 8.25758 11.0192 8.39743 10.8462 8.39743H7.16199C6.98932 8.39743 6.84908 8.25719 6.84908 8.08453ZM7.16199 11.6417H13.3021C13.4748 11.6417 13.615 11.5018 13.615 11.3288C13.615 11.1557 13.4752 11.0159 13.3021 11.0159H7.16199C6.98932 11.0159 6.84908 11.1557 6.84908 11.3288C6.84908 11.5018 6.98932 11.6417 7.16199 11.6417ZM7.16199 14.8863H12.4173C12.59 14.8863 12.7302 14.7465 12.7302 14.5734C12.7302 14.4004 12.5904 14.2605 12.4173 14.2605H7.16199C6.98932 14.2605 6.84908 14.4004 6.84908 14.5734C6.84908 14.7465 6.98932 14.8863 7.16199 14.8863ZM10.9634 17.504H7.16199C6.98932 17.504 6.84908 17.6439 6.84908 17.8169C6.84908 17.99 6.98893 18.1298 7.16199 18.1298H10.9634C11.136 18.1298 11.2763 17.99 11.2763 17.8169C11.2763 17.6439 11.1364 17.504 10.9634 17.504ZM21.7651 15.9001C21.7506 16.0129 21.7323 16.1301 21.7084 16.252C21.3162 18.2462 20.7416 19.4142 20.0314 20.7342C19.9759 20.8373 19.8689 20.8987 19.756 20.8987C19.729 20.8987 19.7021 20.8952 19.6751 20.8881L18.4196 20.5514C18.2856 20.5155 18.1926 20.3963 18.1879 20.26C18.1153 20.3764 17.9746 20.4323 17.8414 20.3967L15.3792 19.7369V19.8904C15.3792 20.4463 14.9268 20.8987 14.3709 20.8987H6.09436C5.53847 20.8987 5.0861 20.4463 5.0861 19.8904V18.849H2.80904C2.25315 18.849 1.80078 18.3966 1.80078 17.8408V5.00824C1.80078 4.45236 2.25315 4 2.80904 4H9.03669C9.30975 4 9.55625 4.10196 9.74962 4.29532L11.504 6.04969H12.3212C12.4642 6.04969 12.5998 6.07781 12.7244 6.1325C12.7322 6.13563 12.74 6.13914 12.7474 6.14266C12.7513 6.14461 12.7552 6.14617 12.7591 6.14813H12.7595C12.8595 6.19657 12.9517 6.26219 13.0342 6.34501L15.0839 8.3947C15.1737 8.48454 15.2433 8.58572 15.2929 8.69588C15.2933 8.69705 15.2936 8.69783 15.2944 8.699C15.3503 8.82518 15.3796 8.96269 15.3796 9.10761V12.2628C15.7702 12.1401 16.1988 12.1226 16.6226 12.2359L17.4899 12.4683L18.9149 7.14738C19.0524 6.64072 19.5751 6.33915 20.0806 6.47431C20.5873 6.61182 20.8889 7.13449 20.7537 7.63998L19.3278 12.9605L20.1888 13.1917C21.0467 13.4218 21.983 14.0758 21.7701 15.8606C21.7694 15.8739 21.7674 15.8872 21.7651 15.9001ZM18.0934 12.6304L18.7227 12.7992L20.1486 7.47904C20.1947 7.30559 20.0912 7.12629 19.9169 7.07902C19.7447 7.03293 19.565 7.13684 19.5177 7.31067L18.0934 12.6304ZM15.2507 12.9964C15.2351 13.0078 15.2183 13.0179 15.2007 13.0261C14.9483 13.1816 14.7382 13.4066 14.6022 13.6824L21.1752 15.4438C21.2064 14.2676 20.5568 13.9379 20.0267 13.7957L18.8731 13.4867C18.8696 13.4859 18.8665 13.4855 18.863 13.4847C18.8587 13.4836 18.8548 13.482 18.8505 13.4808L17.6313 13.1542C17.6309 13.1542 17.6301 13.1539 17.6297 13.1539C17.6293 13.1539 17.6285 13.1535 17.6281 13.1535L16.4601 12.8402C16.0359 12.7265 15.6054 12.7949 15.2507 12.9964ZM12.9228 7.11887V8.50681H14.3108L12.9228 7.11887ZM5.0861 18.2236V7.05793C5.0861 6.50205 5.53847 6.04969 6.09436 6.04969H10.6188L9.30702 4.73792C9.23045 4.66135 9.14451 4.6258 9.03669 4.6258H2.80904C2.59809 4.6258 2.42659 4.7973 2.42659 5.00824V17.8411C2.42659 18.0521 2.59809 18.2236 2.80904 18.2236H5.0861ZM14.7534 19.5693L14.6874 19.5518C14.5319 19.51 14.4334 19.3572 14.4596 19.1982C14.4901 19.0146 14.5112 18.8381 14.5229 18.6681C14.4096 18.8552 14.2881 19.0353 14.1588 19.2072C14.0795 19.3127 13.9424 19.3572 13.8166 19.3181L12.1701 18.8099C12.0802 18.7822 12.0075 18.7154 11.972 18.6279C11.9368 18.5404 11.9427 18.4419 11.9884 18.3595C12.765 16.956 13.3861 15.4676 13.8881 13.8097C14.0291 13.2898 14.344 12.8621 14.753 12.5726V9.13261H12.6099C12.4373 9.13261 12.297 8.99276 12.297 8.81971V6.67549H6.09436C5.88341 6.67549 5.71192 6.84698 5.71192 7.05793V19.8908C5.71192 20.1018 5.88341 20.2733 6.09436 20.2733H14.3706C14.5815 20.2733 14.753 20.1018 14.753 19.8908V19.5693H14.7534ZM21.0943 16.1321C21.0982 16.1118 21.1014 16.0926 21.1049 16.0731L14.3991 14.2762C13.9412 15.7325 13.3889 17.0634 12.7189 18.3251L13.7865 18.6548C14.0545 18.2681 14.2815 17.8411 14.4627 17.3825C14.5131 17.2548 14.6409 17.1747 14.7776 17.1853C14.9143 17.1958 15.0284 17.2942 15.0589 17.4278C15.1694 17.9142 15.189 18.4373 15.1175 19.0197L17.7711 19.7307C17.9028 19.4924 18.0215 19.2392 18.1258 18.9756C18.1762 18.8482 18.304 18.7681 18.4407 18.7787C18.5774 18.7892 18.6915 18.8873 18.7219 19.0209C18.7927 19.3307 18.8262 19.6635 18.822 20.0123L19.597 20.2201C20.247 18.9998 20.7392 17.9372 21.0943 16.1321Z" stroke="white" stroke-width="0.4" mask="url(#path-1-outside-1_1764_84171)"/>
</g>
</g>
</svg>
