<svg width="16" height="16" viewBox="0 0 16 16" fill="none" xmlns="http://www.w3.org/2000/svg">
    <path d="M15.5 3.31231C15.5001 2.78284 15.3508 2.26409 15.0691 1.81574C14.7875 1.36739 14.385 1.00764 13.908 0.777878C13.431 0.548116 12.8988 0.457673 12.3726 0.516952C11.8465 0.57623 11.3478 0.782823 10.9338 1.11297C10.5199 1.44311 10.2075 1.88339 10.0327 2.38317C9.85791 2.88296 9.82772 3.42193 9.94564 3.93811C10.0635 4.45428 10.3248 4.92669 10.6993 5.30099C11.0737 5.67529 11.5463 5.93628 12.0625 6.05394V6.12485C12.0621 6.45625 11.9303 6.77397 11.696 7.00831C11.4616 7.24265 11.1439 7.37447 10.8125 7.37485L5.18751 7.37497C5.02335 7.37497 4.86081 7.34263 4.70915 7.27982C4.55749 7.217 4.4197 7.12492 4.30362 7.00885C4.18755 6.89278 4.09547 6.75498 4.03266 6.60332C3.96984 6.45166 3.93751 6.28912 3.93751 6.12497V6.05394C4.61169 5.90028 5.20563 5.50365 5.6059 4.93981C6.00616 4.37597 6.18469 3.68443 6.10737 2.9973C6.03006 2.31016 5.70232 1.67559 5.18677 1.21479C4.67121 0.753996 4.00398 0.499269 3.31251 0.499269C2.62104 0.499269 1.9538 0.753996 1.43825 1.21479C0.922693 1.67559 0.594958 2.31016 0.517643 2.9973C0.440328 3.68443 0.618853 4.37597 1.01912 4.93981C1.41938 5.50365 2.01333 5.90028 2.68751 6.05394V6.12497C2.6875 6.45327 2.75216 6.77837 2.87779 7.08169C3.00342 7.385 3.18757 7.6606 3.41972 7.89275C3.65187 8.1249 3.92747 8.30905 4.23079 8.43468C4.53411 8.56032 4.8592 8.62498 5.18751 8.62497L7.37512 8.62492L7.37505 9.94586C6.70087 10.0995 6.10691 10.4961 5.70665 11.06C5.30638 11.6238 5.12785 12.3153 5.20515 13.0025C5.28246 13.6896 5.61019 14.3242 6.12573 14.785C6.64128 15.2458 7.30851 15.5005 7.99998 15.5005C8.69145 15.5005 9.35869 15.2458 9.87425 14.785C10.3898 14.3242 10.7175 13.6897 10.7949 13.0025C10.8722 12.3154 10.6937 11.6239 10.2934 11.06C9.89316 10.4962 9.29922 10.0995 8.62505 9.94588L8.62512 8.6249L10.8125 8.62485C11.4753 8.62408 12.1108 8.36044 12.5794 7.89177C13.0481 7.42309 13.3117 6.78766 13.3125 6.12485V6.05395C13.9334 5.91163 14.4877 5.56307 14.885 5.06514C15.2823 4.56721 15.4991 3.94932 15.5 3.31231ZM9.56251 12.6875C9.56251 12.9965 9.47087 13.2986 9.29918 13.5556C9.12749 13.8125 8.88346 14.0128 8.59795 14.1311C8.31244 14.2493 7.99827 14.2803 7.69518 14.22C7.39208 14.1597 7.11367 14.0109 6.89515 13.7924C6.67663 13.5738 6.52782 13.2954 6.46753 12.9923C6.40724 12.6892 6.43818 12.3751 6.55644 12.0896C6.67471 11.8041 6.87498 11.56 7.13193 11.3883C7.38888 11.2166 7.69097 11.125 8.00001 11.125C8.41427 11.1255 8.81143 11.2902 9.10435 11.5832C9.39728 11.8761 9.56205 12.2732 9.56251 12.6875Z" fill="currentColor"/>
</svg>
