<svg width="24" height="24" viewBox="0 0 24 24" fill="none" xmlns="http://www.w3.org/2000/svg">
<g id="Icon / Connect">
<path id="Vector" d="M7.27973 9.3831L7.27969 9.38306C6.79312 8.95296 6.17749 8.70164 5.53147 8.66503C5.53143 8.66503 5.53138 8.66503 5.53133 8.66503L7.27973 9.3831ZM7.27973 9.3831C7.37296 9.46542 7.48905 9.5061 7.60455 9.5061C7.7401 9.5061 7.87534 9.44994 7.97227 9.34037L7.9723 9.34033M7.27973 9.3831L7.9723 9.34033M7.9723 9.34033C8.1517 9.13735 8.13253 8.82728 7.92958 8.64789C7.42752 8.20397 6.82306 7.90175 6.17661 7.76384C6.88111 5.4858 9.01764 3.88125 11.4434 3.88125C13.745 3.88125 15.8251 5.33245 16.6188 7.492C16.6963 7.70319 16.9079 7.83413 17.1308 7.81076L17.131 7.81074M7.9723 9.34033L17.131 7.81074M17.131 7.81074C17.2022 7.80316 17.2714 7.7994 17.3368 7.7994C18.4008 7.7994 19.2666 8.66459 19.2666 9.72775C19.2666 9.86881 19.2506 10.0116 19.219 10.1522L19.219 10.1522L17.131 7.81074ZM15.5277 14.4298H18.7885C19.8526 14.4298 20.7184 13.5647 20.7184 12.5015C20.7184 11.7125 20.2457 11.0112 19.5134 10.7143C19.5134 10.7143 19.5134 10.7143 19.5134 10.7143L19.551 10.6216L15.5277 14.4298ZM15.5277 14.4298V13.5859C15.5277 13.3149 15.3081 13.0953 15.0371 13.0953C14.7661 13.0953 14.5465 13.3149 14.5465 13.5859V14.4298H12.0957V10.4336C12.0957 10.1626 11.8761 9.943 11.6051 9.943C11.3343 9.943 11.1145 10.1626 11.1145 10.4336V14.4298H8.65273V12.8143C8.65273 12.5433 8.4331 12.3237 8.16211 12.3237C7.89112 12.3237 7.67148 12.5433 7.67148 12.8143V14.4298H5.36792C3.77605 14.4298 2.48086 13.1354 2.48086 11.5448C2.48086 9.95425 3.77605 8.65984 5.36792 8.65984C5.40299 8.65984 5.4383 8.661 5.4753 8.66237L5.479 8.56244L15.5277 14.4298ZM7.31619 4.3802L7.37979 4.45737L7.31619 4.3802C6.27859 5.23539 5.52943 6.39684 5.17802 7.68322C3.13288 7.78248 1.49961 9.47654 1.49961 11.5448C1.49961 13.6768 3.2348 15.4111 5.36792 15.4111H7.67148V16.7612L6.70993 17.7229C6.52715 17.6377 6.32354 17.5899 6.10904 17.5899C5.32138 17.5899 4.68091 18.2306 4.68091 19.0181C4.68091 19.8057 5.32139 20.4462 6.10904 20.4462C6.89653 20.4462 7.53716 19.8057 7.53716 19.0181C7.53716 18.8034 7.4893 18.5995 7.4039 18.4165L8.509 17.3114C8.60098 17.2195 8.65273 17.0947 8.65273 16.9645V15.4111H11.1145V18.7658C10.5682 18.9663 10.177 19.4916 10.177 20.1069C10.177 20.8946 10.8176 21.5351 11.6051 21.5351C12.3928 21.5351 13.0332 20.8946 13.0332 20.1069C13.0332 19.4916 12.6421 18.9663 12.0957 18.7658V15.4111H14.5465V16.9645C14.5465 17.0947 14.5982 17.2195 14.6902 17.3114L15.7953 18.4165C15.7099 18.5995 15.6621 18.8034 15.6621 19.0181C15.6621 19.8057 16.3027 20.4462 17.0902 20.4462C17.8778 20.4462 18.5183 19.8057 18.5183 19.0181C18.5183 18.2306 17.8778 17.5899 17.0902 17.5899C16.8757 17.5899 16.6721 17.6377 16.4893 17.7229L15.5277 16.7612V15.4109H18.7885C20.3938 15.4109 21.6996 14.106 21.6996 12.5015C21.6996 11.4443 21.1366 10.4909 20.2369 9.97712C20.2441 9.89405 20.2477 9.81078 20.2477 9.72775C20.2477 8.14653 18.9795 6.85603 17.4063 6.81897C16.9355 5.72728 16.1779 4.79111 15.1995 4.09615L15.1416 4.17767L15.1995 4.09614C14.0978 3.31367 12.7989 2.9 11.4434 2.9C9.94009 2.9 8.47442 3.42562 7.31619 4.3802ZM6.10904 19.4649C5.86262 19.4649 5.66216 19.2644 5.66216 19.0181C5.66216 18.7718 5.86262 18.5712 6.10904 18.5712C6.35532 18.5712 6.55591 18.7718 6.55591 19.0181C6.55591 19.2644 6.35532 19.4649 6.10904 19.4649ZM11.6051 20.5538C11.3588 20.5538 11.1582 20.3532 11.1582 20.1069C11.1582 19.8606 11.3588 19.6601 11.6051 19.6601C11.8515 19.6601 12.052 19.8606 12.052 20.1069C12.052 20.3532 11.8514 20.5538 11.6051 20.5538ZM17.5371 19.0181C17.5371 19.2644 17.3366 19.4649 17.0902 19.4649C16.8439 19.4649 16.6433 19.2644 16.6433 19.0181C16.6433 18.7718 16.8439 18.5712 17.0902 18.5712C17.3366 18.5712 17.5371 18.7718 17.5371 19.0181Z" fill="#929AB5" stroke="#929AB5" stroke-width="0.2"/>
</g>
</svg>
