<svg width="24" height="26" viewBox="0 0 24 26" fill="none" xmlns="http://www.w3.org/2000/svg">
<g id="Icon / Database">
<g id="Group">
<g id="Group_2">
<g id="Vector">
<mask id="path-1-outside-1_1764_84125" maskUnits="userSpaceOnUse" x="2.23047" y="0" width="19" height="26" fill="black">
<rect fill="white" x="2.23047" width="19" height="26"/>
<path d="M18.0309 1.90614C16.4127 1.3218 14.2708 1 11.9997 1C9.72856 1 7.58666 1.3218 5.96848 1.90614C4.20284 2.54369 3.23047 3.45123 3.23047 4.46153V21.5385C3.23047 22.5488 4.20284 23.4563 5.96848 24.0939C7.58666 24.6782 9.72856 25 11.9997 25C14.2708 25 16.4127 24.6782 18.0309 24.0939C19.7966 23.4563 20.7689 22.5488 20.7689 21.5385V4.46153C20.7689 3.45123 19.7966 2.54369 18.0309 1.90614ZM6.28203 2.77436C7.80219 2.22541 9.83272 1.92311 11.9997 1.92311C14.1667 1.92311 16.1972 2.22541 17.7174 2.77436C19.0502 3.25567 19.8459 3.88637 19.8459 4.46158C19.8459 5.03673 19.0502 5.66748 17.7174 6.1488C16.1972 6.6977 14.1667 7 11.9997 7C9.83272 7 7.80219 6.6977 6.28203 6.14875C4.94923 5.66744 4.15353 5.03669 4.15353 4.46153C4.15353 3.88637 4.94923 3.25563 6.28203 2.77436ZM4.15353 8.37442C4.67173 8.78486 5.39994 9.14734 6.3193 9.44448C6.36645 9.45977 6.41427 9.46698 6.46133 9.46698C6.65614 9.46698 6.83731 9.34258 6.90045 9.14725C6.97883 8.90472 6.8457 8.64456 6.60322 8.56619C5.0922 8.07784 4.15358 7.38925 4.15358 6.76923V6.06475C4.16787 6.07609 4.18278 6.08734 4.19736 6.09859C4.20823 6.10698 4.21892 6.11542 4.22998 6.12377C4.2567 6.14397 4.28408 6.16403 4.31183 6.184C4.31731 6.18798 4.32256 6.19197 4.32814 6.19591C4.36156 6.21972 4.39578 6.2433 4.43066 6.26673C4.44106 6.27372 4.45175 6.28056 4.46225 6.2875C4.48719 6.304 4.51222 6.32036 4.53786 6.33667C4.55155 6.34534 4.56552 6.35397 4.57939 6.36259C4.60269 6.37708 4.62617 6.39152 4.65003 6.40591C4.66494 6.41486 4.67994 6.42377 4.69508 6.43263C4.71913 6.44673 4.74345 6.46084 4.76806 6.47477C4.78316 6.48334 4.79816 6.49188 4.81348 6.50041C4.84016 6.51527 4.86725 6.52998 4.89458 6.54461C4.90817 6.55197 4.92162 6.55933 4.93541 6.56659C4.97277 6.58628 5.01073 6.60588 5.04922 6.62523C5.0533 6.62725 5.05719 6.62941 5.06127 6.63142C5.10406 6.65284 5.14761 6.67403 5.19177 6.69508C5.20494 6.70136 5.21844 6.7075 5.23175 6.71373C5.2632 6.72845 5.29475 6.74312 5.32686 6.75761C5.34341 6.76511 5.36023 6.77252 5.37697 6.77997C5.40678 6.79319 5.43678 6.80631 5.46716 6.81939C5.48478 6.82694 5.5025 6.83448 5.52031 6.84198C5.55116 6.85497 5.58233 6.86781 5.61378 6.88066C5.63112 6.88773 5.64847 6.89481 5.66605 6.90184C5.70083 6.91577 5.73622 6.92955 5.7717 6.94323C5.78609 6.94877 5.8003 6.95439 5.81483 6.95992C5.86541 6.97919 5.9165 6.99817 5.96848 7.01697C7.1315 7.43692 8.56513 7.72127 10.1228 7.84802C10.7324 7.89756 11.3609 7.92306 11.9997 7.92306C12.6385 7.92306 13.267 7.89756 13.8765 7.84802C15.4342 7.72127 16.8679 7.43692 18.0309 7.01697C18.0829 6.99822 18.134 6.97919 18.1845 6.95992C18.1991 6.95439 18.2133 6.94881 18.2277 6.94323C18.2632 6.92955 18.2985 6.91577 18.3334 6.90184C18.3509 6.89481 18.3682 6.88773 18.3856 6.88066C18.417 6.86786 18.4482 6.85502 18.4791 6.84198C18.4969 6.83448 18.5147 6.82694 18.5322 6.81939C18.5626 6.80636 18.5927 6.79323 18.6224 6.77997C18.6392 6.77252 18.656 6.76511 18.6725 6.75761C18.7047 6.74312 18.7362 6.72845 18.7677 6.71373C18.781 6.7075 18.7945 6.70136 18.8076 6.69508C18.8518 6.67408 18.8954 6.65284 18.9381 6.63142C18.9422 6.62941 18.9461 6.62725 18.9502 6.62523C18.9887 6.60583 19.0266 6.58628 19.064 6.56659C19.0778 6.55928 19.0913 6.55192 19.1049 6.54456C19.1321 6.52994 19.1592 6.51522 19.1858 6.50041C19.2012 6.49188 19.2162 6.48325 19.2314 6.47467C19.256 6.46075 19.2803 6.44669 19.3043 6.43258C19.3194 6.42367 19.3345 6.41477 19.3493 6.40581C19.3732 6.39147 19.3967 6.37703 19.42 6.3625C19.4338 6.35388 19.4479 6.34525 19.4615 6.33658C19.4871 6.32027 19.5122 6.30391 19.5371 6.28741C19.5476 6.28047 19.5583 6.27363 19.5687 6.26664C19.6036 6.2432 19.6378 6.21962 19.6712 6.19581C19.6767 6.19187 19.682 6.18789 19.6875 6.18391C19.7153 6.16398 19.7427 6.14388 19.7694 6.12367C19.7804 6.11533 19.7911 6.10689 19.802 6.0985C19.8166 6.08734 19.8315 6.07609 19.8458 6.06475V10.4499C19.8458 11.025 19.0501 11.6558 17.7173 12.1371C16.1972 12.686 14.1666 12.9883 11.9997 12.9883C9.83267 12.9883 7.80214 12.686 6.28198 12.1371C4.94919 11.6558 4.15348 11.0251 4.15348 10.4499L4.15353 8.37442ZM4.15353 12.0525C4.60442 12.4107 5.2137 12.7327 5.96848 13.0052C7.58666 13.5896 9.72856 13.9114 11.9997 13.9114C14.2708 13.9114 16.4127 13.5896 18.0309 13.0052C18.7857 12.7327 19.395 12.4106 19.8459 12.0525V15.9883C19.8459 16.5635 19.0502 17.1942 17.7174 17.6755C16.1972 18.2245 14.1667 18.5268 11.9997 18.5268C9.83272 18.5268 7.80219 18.2245 6.28203 17.6755C4.94923 17.1942 4.15353 16.5635 4.15353 15.9883V12.0525ZM19.8459 21.5385C19.8459 22.1136 19.0502 22.7444 17.7174 23.2257C16.1972 23.7746 14.1667 24.0769 11.9997 24.0769C9.83272 24.0769 7.80219 23.7746 6.28203 23.2257C4.94923 22.7444 4.15353 22.1137 4.15353 21.5385V17.591C4.60442 17.9492 5.2137 18.2711 5.96848 18.5437C7.58666 19.1281 9.72856 19.4499 11.9997 19.4499C14.2708 19.4499 16.4127 19.1281 18.0309 18.5437C18.7857 18.2711 19.395 17.9491 19.8459 17.591V18.3077C19.8459 18.9277 18.9072 19.6163 17.3963 20.1047C17.1537 20.183 17.0206 20.4432 17.099 20.6857C17.1622 20.8811 17.3433 21.0055 17.5382 21.0055C17.5852 21.0055 17.633 20.9982 17.6802 20.9829C18.5996 20.6858 19.3277 20.3233 19.8459 19.9128V21.5385Z"/>
</mask>
<path d="M18.0309 1.90614C16.4127 1.3218 14.2708 1 11.9997 1C9.72856 1 7.58666 1.3218 5.96848 1.90614C4.20284 2.54369 3.23047 3.45123 3.23047 4.46153V21.5385C3.23047 22.5488 4.20284 23.4563 5.96848 24.0939C7.58666 24.6782 9.72856 25 11.9997 25C14.2708 25 16.4127 24.6782 18.0309 24.0939C19.7966 23.4563 20.7689 22.5488 20.7689 21.5385V4.46153C20.7689 3.45123 19.7966 2.54369 18.0309 1.90614ZM6.28203 2.77436C7.80219 2.22541 9.83272 1.92311 11.9997 1.92311C14.1667 1.92311 16.1972 2.22541 17.7174 2.77436C19.0502 3.25567 19.8459 3.88637 19.8459 4.46158C19.8459 5.03673 19.0502 5.66748 17.7174 6.1488C16.1972 6.6977 14.1667 7 11.9997 7C9.83272 7 7.80219 6.6977 6.28203 6.14875C4.94923 5.66744 4.15353 5.03669 4.15353 4.46153C4.15353 3.88637 4.94923 3.25563 6.28203 2.77436ZM4.15353 8.37442C4.67173 8.78486 5.39994 9.14734 6.3193 9.44448C6.36645 9.45977 6.41427 9.46698 6.46133 9.46698C6.65614 9.46698 6.83731 9.34258 6.90045 9.14725C6.97883 8.90472 6.8457 8.64456 6.60322 8.56619C5.0922 8.07784 4.15358 7.38925 4.15358 6.76923V6.06475C4.16787 6.07609 4.18278 6.08734 4.19736 6.09859C4.20823 6.10698 4.21892 6.11542 4.22998 6.12377C4.2567 6.14397 4.28408 6.16403 4.31183 6.184C4.31731 6.18798 4.32256 6.19197 4.32814 6.19591C4.36156 6.21972 4.39578 6.2433 4.43066 6.26673C4.44106 6.27372 4.45175 6.28056 4.46225 6.2875C4.48719 6.304 4.51222 6.32036 4.53786 6.33667C4.55155 6.34534 4.56552 6.35397 4.57939 6.36259C4.60269 6.37708 4.62617 6.39152 4.65003 6.40591C4.66494 6.41486 4.67994 6.42377 4.69508 6.43263C4.71913 6.44673 4.74345 6.46084 4.76806 6.47477C4.78316 6.48334 4.79816 6.49188 4.81348 6.50041C4.84016 6.51527 4.86725 6.52998 4.89458 6.54461C4.90817 6.55197 4.92162 6.55933 4.93541 6.56659C4.97277 6.58628 5.01073 6.60588 5.04922 6.62523C5.0533 6.62725 5.05719 6.62941 5.06127 6.63142C5.10406 6.65284 5.14761 6.67403 5.19177 6.69508C5.20494 6.70136 5.21844 6.7075 5.23175 6.71373C5.2632 6.72845 5.29475 6.74312 5.32686 6.75761C5.34341 6.76511 5.36023 6.77252 5.37697 6.77997C5.40678 6.79319 5.43678 6.80631 5.46716 6.81939C5.48478 6.82694 5.5025 6.83448 5.52031 6.84198C5.55116 6.85497 5.58233 6.86781 5.61378 6.88066C5.63112 6.88773 5.64847 6.89481 5.66605 6.90184C5.70083 6.91577 5.73622 6.92955 5.7717 6.94323C5.78609 6.94877 5.8003 6.95439 5.81483 6.95992C5.86541 6.97919 5.9165 6.99817 5.96848 7.01697C7.1315 7.43692 8.56513 7.72127 10.1228 7.84802C10.7324 7.89756 11.3609 7.92306 11.9997 7.92306C12.6385 7.92306 13.267 7.89756 13.8765 7.84802C15.4342 7.72127 16.8679 7.43692 18.0309 7.01697C18.0829 6.99822 18.134 6.97919 18.1845 6.95992C18.1991 6.95439 18.2133 6.94881 18.2277 6.94323C18.2632 6.92955 18.2985 6.91577 18.3334 6.90184C18.3509 6.89481 18.3682 6.88773 18.3856 6.88066C18.417 6.86786 18.4482 6.85502 18.4791 6.84198C18.4969 6.83448 18.5147 6.82694 18.5322 6.81939C18.5626 6.80636 18.5927 6.79323 18.6224 6.77997C18.6392 6.77252 18.656 6.76511 18.6725 6.75761C18.7047 6.74312 18.7362 6.72845 18.7677 6.71373C18.781 6.7075 18.7945 6.70136 18.8076 6.69508C18.8518 6.67408 18.8954 6.65284 18.9381 6.63142C18.9422 6.62941 18.9461 6.62725 18.9502 6.62523C18.9887 6.60583 19.0266 6.58628 19.064 6.56659C19.0778 6.55928 19.0913 6.55192 19.1049 6.54456C19.1321 6.52994 19.1592 6.51522 19.1858 6.50041C19.2012 6.49188 19.2162 6.48325 19.2314 6.47467C19.256 6.46075 19.2803 6.44669 19.3043 6.43258C19.3194 6.42367 19.3345 6.41477 19.3493 6.40581C19.3732 6.39147 19.3967 6.37703 19.42 6.3625C19.4338 6.35388 19.4479 6.34525 19.4615 6.33658C19.4871 6.32027 19.5122 6.30391 19.5371 6.28741C19.5476 6.28047 19.5583 6.27363 19.5687 6.26664C19.6036 6.2432 19.6378 6.21962 19.6712 6.19581C19.6767 6.19187 19.682 6.18789 19.6875 6.18391C19.7153 6.16398 19.7427 6.14388 19.7694 6.12367C19.7804 6.11533 19.7911 6.10689 19.802 6.0985C19.8166 6.08734 19.8315 6.07609 19.8458 6.06475V10.4499C19.8458 11.025 19.0501 11.6558 17.7173 12.1371C16.1972 12.686 14.1666 12.9883 11.9997 12.9883C9.83267 12.9883 7.80214 12.686 6.28198 12.1371C4.94919 11.6558 4.15348 11.0251 4.15348 10.4499L4.15353 8.37442ZM4.15353 12.0525C4.60442 12.4107 5.2137 12.7327 5.96848 13.0052C7.58666 13.5896 9.72856 13.9114 11.9997 13.9114C14.2708 13.9114 16.4127 13.5896 18.0309 13.0052C18.7857 12.7327 19.395 12.4106 19.8459 12.0525V15.9883C19.8459 16.5635 19.0502 17.1942 17.7174 17.6755C16.1972 18.2245 14.1667 18.5268 11.9997 18.5268C9.83272 18.5268 7.80219 18.2245 6.28203 17.6755C4.94923 17.1942 4.15353 16.5635 4.15353 15.9883V12.0525ZM19.8459 21.5385C19.8459 22.1136 19.0502 22.7444 17.7174 23.2257C16.1972 23.7746 14.1667 24.0769 11.9997 24.0769C9.83272 24.0769 7.80219 23.7746 6.28203 23.2257C4.94923 22.7444 4.15353 22.1137 4.15353 21.5385V17.591C4.60442 17.9492 5.2137 18.2711 5.96848 18.5437C7.58666 19.1281 9.72856 19.4499 11.9997 19.4499C14.2708 19.4499 16.4127 19.1281 18.0309 18.5437C18.7857 18.2711 19.395 17.9491 19.8459 17.591V18.3077C19.8459 18.9277 18.9072 19.6163 17.3963 20.1047C17.1537 20.183 17.0206 20.4432 17.099 20.6857C17.1622 20.8811 17.3433 21.0055 17.5382 21.0055C17.5852 21.0055 17.633 20.9982 17.6802 20.9829C18.5996 20.6858 19.3277 20.3233 19.8459 19.9128V21.5385Z" fill="white"/>
<path d="M18.0309 1.90614C16.4127 1.3218 14.2708 1 11.9997 1C9.72856 1 7.58666 1.3218 5.96848 1.90614C4.20284 2.54369 3.23047 3.45123 3.23047 4.46153V21.5385C3.23047 22.5488 4.20284 23.4563 5.96848 24.0939C7.58666 24.6782 9.72856 25 11.9997 25C14.2708 25 16.4127 24.6782 18.0309 24.0939C19.7966 23.4563 20.7689 22.5488 20.7689 21.5385V4.46153C20.7689 3.45123 19.7966 2.54369 18.0309 1.90614ZM6.28203 2.77436C7.80219 2.22541 9.83272 1.92311 11.9997 1.92311C14.1667 1.92311 16.1972 2.22541 17.7174 2.77436C19.0502 3.25567 19.8459 3.88637 19.8459 4.46158C19.8459 5.03673 19.0502 5.66748 17.7174 6.1488C16.1972 6.6977 14.1667 7 11.9997 7C9.83272 7 7.80219 6.6977 6.28203 6.14875C4.94923 5.66744 4.15353 5.03669 4.15353 4.46153C4.15353 3.88637 4.94923 3.25563 6.28203 2.77436ZM4.15353 8.37442C4.67173 8.78486 5.39994 9.14734 6.3193 9.44448C6.36645 9.45977 6.41427 9.46698 6.46133 9.46698C6.65614 9.46698 6.83731 9.34258 6.90045 9.14725C6.97883 8.90472 6.8457 8.64456 6.60322 8.56619C5.0922 8.07784 4.15358 7.38925 4.15358 6.76923V6.06475C4.16787 6.07609 4.18278 6.08734 4.19736 6.09859C4.20823 6.10698 4.21892 6.11542 4.22998 6.12377C4.2567 6.14397 4.28408 6.16403 4.31183 6.184C4.31731 6.18798 4.32256 6.19197 4.32814 6.19591C4.36156 6.21972 4.39578 6.2433 4.43066 6.26673C4.44106 6.27372 4.45175 6.28056 4.46225 6.2875C4.48719 6.304 4.51222 6.32036 4.53786 6.33667C4.55155 6.34534 4.56552 6.35397 4.57939 6.36259C4.60269 6.37708 4.62617 6.39152 4.65003 6.40591C4.66494 6.41486 4.67994 6.42377 4.69508 6.43263C4.71913 6.44673 4.74345 6.46084 4.76806 6.47477C4.78316 6.48334 4.79816 6.49188 4.81348 6.50041C4.84016 6.51527 4.86725 6.52998 4.89458 6.54461C4.90817 6.55197 4.92162 6.55933 4.93541 6.56659C4.97277 6.58628 5.01073 6.60588 5.04922 6.62523C5.0533 6.62725 5.05719 6.62941 5.06127 6.63142C5.10406 6.65284 5.14761 6.67403 5.19177 6.69508C5.20494 6.70136 5.21844 6.7075 5.23175 6.71373C5.2632 6.72845 5.29475 6.74312 5.32686 6.75761C5.34341 6.76511 5.36023 6.77252 5.37697 6.77997C5.40678 6.79319 5.43678 6.80631 5.46716 6.81939C5.48478 6.82694 5.5025 6.83448 5.52031 6.84198C5.55116 6.85497 5.58233 6.86781 5.61378 6.88066C5.63112 6.88773 5.64847 6.89481 5.66605 6.90184C5.70083 6.91577 5.73622 6.92955 5.7717 6.94323C5.78609 6.94877 5.8003 6.95439 5.81483 6.95992C5.86541 6.97919 5.9165 6.99817 5.96848 7.01697C7.1315 7.43692 8.56513 7.72127 10.1228 7.84802C10.7324 7.89756 11.3609 7.92306 11.9997 7.92306C12.6385 7.92306 13.267 7.89756 13.8765 7.84802C15.4342 7.72127 16.8679 7.43692 18.0309 7.01697C18.0829 6.99822 18.134 6.97919 18.1845 6.95992C18.1991 6.95439 18.2133 6.94881 18.2277 6.94323C18.2632 6.92955 18.2985 6.91577 18.3334 6.90184C18.3509 6.89481 18.3682 6.88773 18.3856 6.88066C18.417 6.86786 18.4482 6.85502 18.4791 6.84198C18.4969 6.83448 18.5147 6.82694 18.5322 6.81939C18.5626 6.80636 18.5927 6.79323 18.6224 6.77997C18.6392 6.77252 18.656 6.76511 18.6725 6.75761C18.7047 6.74312 18.7362 6.72845 18.7677 6.71373C18.781 6.7075 18.7945 6.70136 18.8076 6.69508C18.8518 6.67408 18.8954 6.65284 18.9381 6.63142C18.9422 6.62941 18.9461 6.62725 18.9502 6.62523C18.9887 6.60583 19.0266 6.58628 19.064 6.56659C19.0778 6.55928 19.0913 6.55192 19.1049 6.54456C19.1321 6.52994 19.1592 6.51522 19.1858 6.50041C19.2012 6.49188 19.2162 6.48325 19.2314 6.47467C19.256 6.46075 19.2803 6.44669 19.3043 6.43258C19.3194 6.42367 19.3345 6.41477 19.3493 6.40581C19.3732 6.39147 19.3967 6.37703 19.42 6.3625C19.4338 6.35388 19.4479 6.34525 19.4615 6.33658C19.4871 6.32027 19.5122 6.30391 19.5371 6.28741C19.5476 6.28047 19.5583 6.27363 19.5687 6.26664C19.6036 6.2432 19.6378 6.21962 19.6712 6.19581C19.6767 6.19187 19.682 6.18789 19.6875 6.18391C19.7153 6.16398 19.7427 6.14388 19.7694 6.12367C19.7804 6.11533 19.7911 6.10689 19.802 6.0985C19.8166 6.08734 19.8315 6.07609 19.8458 6.06475V10.4499C19.8458 11.025 19.0501 11.6558 17.7173 12.1371C16.1972 12.686 14.1666 12.9883 11.9997 12.9883C9.83267 12.9883 7.80214 12.686 6.28198 12.1371C4.94919 11.6558 4.15348 11.0251 4.15348 10.4499L4.15353 8.37442ZM4.15353 12.0525C4.60442 12.4107 5.2137 12.7327 5.96848 13.0052C7.58666 13.5896 9.72856 13.9114 11.9997 13.9114C14.2708 13.9114 16.4127 13.5896 18.0309 13.0052C18.7857 12.7327 19.395 12.4106 19.8459 12.0525V15.9883C19.8459 16.5635 19.0502 17.1942 17.7174 17.6755C16.1972 18.2245 14.1667 18.5268 11.9997 18.5268C9.83272 18.5268 7.80219 18.2245 6.28203 17.6755C4.94923 17.1942 4.15353 16.5635 4.15353 15.9883V12.0525ZM19.8459 21.5385C19.8459 22.1136 19.0502 22.7444 17.7174 23.2257C16.1972 23.7746 14.1667 24.0769 11.9997 24.0769C9.83272 24.0769 7.80219 23.7746 6.28203 23.2257C4.94923 22.7444 4.15353 22.1137 4.15353 21.5385V17.591C4.60442 17.9492 5.2137 18.2711 5.96848 18.5437C7.58666 19.1281 9.72856 19.4499 11.9997 19.4499C14.2708 19.4499 16.4127 19.1281 18.0309 18.5437C18.7857 18.2711 19.395 17.9491 19.8459 17.591V18.3077C19.8459 18.9277 18.9072 19.6163 17.3963 20.1047C17.1537 20.183 17.0206 20.4432 17.099 20.6857C17.1622 20.8811 17.3433 21.0055 17.5382 21.0055C17.5852 21.0055 17.633 20.9982 17.6802 20.9829C18.5996 20.6858 19.3277 20.3233 19.8459 19.9128V21.5385Z" stroke="#929AB5" stroke-width="0.4" mask="url(#path-1-outside-1_1764_84125)"/>
</g>
</g>
</g>
<g id="Group_3">
<g id="Group_4">
<path id="Vector_2" d="M8.24323 9.75786C8.26918 9.73196 8.29267 9.70338 8.31331 9.67265L8.31355 9.67229C8.33414 9.64136 8.35098 9.60873 8.36472 9.57525C8.37843 9.54229 8.38966 9.50711 8.39706 9.47068C8.40452 9.43398 8.40783 9.3968 8.40783 9.36077C8.40783 9.32463 8.40445 9.28752 8.39709 9.25101C8.38969 9.2143 8.37833 9.17898 8.36462 9.14605L8.2723 9.18448L8.36484 9.14659C8.35108 9.11296 8.33418 9.0802 8.3135 9.04918L8.31338 9.049L7.394 9.45077M8.24323 9.75786L8.17259 9.68707L8.2433 9.75778C8.24328 9.75781 8.24325 9.75783 8.24323 9.75786ZM8.24323 9.75786C8.21748 9.7836 8.18865 9.80742 8.15711 9.82803L8.10242 9.7443L8.15793 9.82748C8.12756 9.84775 8.09507 9.8651 8.06144 9.87909L8.0609 9.87932L8.0609 9.87932C8.02808 9.89275 7.99269 9.90417 7.95542 9.91122C7.91995 9.91837 7.88301 9.9223 7.84625 9.9223C7.69833 9.9223 7.5538 9.86233 7.44924 9.75778C7.42347 9.73201 7.39962 9.70316 7.379 9.67158L7.46272 9.6169L7.37951 9.67237C7.35934 9.6421 7.34183 9.60946 7.3277 9.57495L7.42025 9.53707L7.32793 9.5755C7.31431 9.54278 7.30286 9.50724 7.29585 9.46994M7.29585 9.46994C7.29591 9.47024 7.29597 9.47054 7.29603 9.47083L7.394 9.45077M7.29585 9.46994C7.29579 9.46964 7.29574 9.46934 7.29568 9.46903L7.394 9.45077M7.29585 9.46994C7.28862 9.43432 7.28477 9.39744 7.28477 9.36077C7.28477 9.3241 7.28862 9.28722 7.29585 9.2516M7.394 9.45077C7.38795 9.42124 7.38477 9.39077 7.38477 9.36077C7.38477 9.33077 7.38795 9.3003 7.394 9.27077M7.29585 9.2516C7.29579 9.2519 7.29574 9.25221 7.29568 9.25251L7.394 9.27077M7.29585 9.2516C7.30286 9.2143 7.31431 9.17876 7.32793 9.14605L7.42025 9.18448M7.29585 9.2516C7.29591 9.2513 7.29597 9.25101 7.29603 9.25071L7.394 9.27077M7.394 9.27077L7.42025 9.18448M7.42025 9.18448L7.32772 9.14654C7.34187 9.11203 7.35941 9.07947 7.37939 9.04936L7.46272 9.10465L7.379 9.04996C7.39962 9.01839 7.42347 8.98953 7.44924 8.96376C7.47509 8.93792 7.50368 8.9144 7.53442 8.89376L7.5347 8.89357L7.5347 8.89357C7.56568 8.87291 7.59839 8.85601 7.63207 8.84222L7.66995 8.93477L7.63152 8.84245C7.66432 8.8288 7.69988 8.81735 7.73716 8.81031C7.73739 8.81027 7.73761 8.81023 7.73784 8.81018L7.75625 8.90848C7.81578 8.89648 7.87719 8.89648 7.93625 8.90848L7.42025 9.18448ZM8.0609 8.84222C8.02808 8.82879 7.99269 8.81737 7.95542 8.81033L8.2433 8.96376C8.24328 8.96374 8.24325 8.96371 8.24323 8.96369C8.21739 8.93786 8.1889 8.91445 8.15828 8.89383L8.15828 8.89383L8.15782 8.89352C8.12685 8.87291 8.09427 8.85611 8.06144 8.84245L8.06145 8.84245L8.0609 8.84222Z" fill="white" stroke="#929AB5" stroke-width="0.2"/>
</g>
</g>
<g id="Group_5">
<g id="Group_6">
<path id="Vector_3" d="M16.6715 20.6846L16.6715 20.6846C16.6849 20.7172 16.6964 20.7527 16.7034 20.7901C16.7105 20.8256 16.7145 20.8624 16.7145 20.8992C16.7145 20.936 16.7105 20.9729 16.7034 21.0084M16.6715 20.6846L16.243 21.3515C16.2135 21.3575 16.1829 21.3607 16.153 21.3607C16.123 21.3607 16.0925 21.3575 16.063 21.3515C16.0335 21.346 16.0044 21.3367 15.9762 21.3252C15.9485 21.3137 15.9217 21.2993 15.8968 21.2827M16.6715 20.6846L16.6713 20.684M16.6715 20.6846L16.6713 20.684M16.7034 21.0084C16.6963 21.0456 16.6849 21.0812 16.6713 21.1139L16.5789 21.0755M16.7034 21.0084C16.7033 21.0086 16.7033 21.0089 16.7032 21.0091L16.6052 20.9892M16.7034 21.0084C16.7034 21.0081 16.7035 21.0079 16.7035 21.0076L16.6052 20.9892M16.5789 21.0755L16.6715 21.1134C16.6574 21.1477 16.64 21.1802 16.62 21.2104C16.5994 21.2418 16.5757 21.2705 16.5499 21.2963M16.5789 21.0755C16.5674 21.1036 16.5531 21.1304 16.5365 21.1553L16.6052 20.9892M16.5789 21.0755C16.5905 21.0478 16.5997 21.0187 16.6052 20.9892M16.5499 21.2963L16.4792 21.2255L16.5499 21.2962C16.5499 21.2962 16.5499 21.2963 16.5499 21.2963ZM16.5499 21.2963C16.5241 21.322 16.4953 21.3459 16.4637 21.3665L16.4091 21.2827L16.4646 21.3659C16.4342 21.3862 16.4015 21.4037 16.3671 21.4178L16.3292 21.3252L16.3677 21.4175C16.335 21.4312 16.2994 21.4426 16.2622 21.4497C16.2267 21.4568 16.1897 21.4607 16.153 21.4607C16.1162 21.4607 16.0793 21.4568 16.0438 21.4497C16.0065 21.4426 15.9712 21.4312 15.9383 21.4178L15.9378 21.4176L15.9378 21.4176C15.9041 21.4035 15.8718 21.3862 15.8418 21.3662M15.8418 21.3662C15.8419 21.3663 15.842 21.3664 15.8421 21.3664L15.8968 21.2827M15.8418 21.3662C15.8416 21.3661 15.8415 21.3661 15.8414 21.366L15.8968 21.2827M15.8418 21.3662C15.8104 21.3457 15.7816 21.322 15.7559 21.2962C15.7304 21.2707 15.7067 21.2422 15.6862 21.2109M15.8968 21.2827C15.8714 21.2661 15.8478 21.2467 15.8266 21.2255C15.8054 21.2043 15.786 21.1807 15.7694 21.1553M15.7694 21.1553L15.6869 21.2119C15.6867 21.2116 15.6865 21.2113 15.6862 21.2109M15.7694 21.1553C15.7523 21.1304 15.7384 21.1037 15.7269 21.0755M15.7694 21.1553L15.6856 21.21C15.6858 21.2103 15.686 21.2106 15.6862 21.2109M15.6862 21.2109C15.6649 21.1796 15.648 21.1467 15.6343 21.1134L15.7269 21.0755M15.7269 21.0755L15.6346 21.1139C15.621 21.0812 15.6095 21.0457 15.6025 21.0084M15.7269 21.0755L15.6025 21.0084M15.6025 21.0084C15.6026 21.0087 15.6026 21.009 15.6027 21.0093L15.7006 20.9892M15.6025 21.0084C15.6024 21.0081 15.6024 21.0078 15.6023 21.0075L15.7006 20.9892M15.6025 21.0084C15.5953 20.9728 15.5914 20.9359 15.5914 20.8992C15.5914 20.8625 15.5953 20.8257 15.6025 20.79M15.6025 21.0084L15.7006 20.8092M15.7006 20.9892C15.6946 20.9597 15.6914 20.9292 15.6914 20.8992C15.6914 20.8692 15.6946 20.8387 15.7006 20.8092M15.7006 20.9892V20.8092M15.7006 20.8092L15.6023 20.7909C15.6024 20.7906 15.6024 20.7903 15.6025 20.79M15.7006 20.8092L15.6027 20.7891C15.6026 20.7894 15.6026 20.7897 15.6025 20.79M15.7006 20.8092C15.7061 20.7797 15.7154 20.7506 15.7269 20.7224C15.7384 20.6947 15.7523 20.668 15.7694 20.643M15.6025 20.79C15.6095 20.7527 15.6209 20.7173 15.6343 20.6846L15.6346 20.684L15.6346 20.684C15.6481 20.6515 15.6649 20.6187 15.6863 20.5874M15.6863 20.5874C15.6861 20.5877 15.6859 20.588 15.6857 20.5882L15.7694 20.643M15.6863 20.5874C15.6864 20.5871 15.6866 20.5868 15.6868 20.5866L15.7694 20.643M15.6863 20.5874C15.7067 20.5563 15.7303 20.5278 15.7559 20.5022C15.7817 20.4763 15.8103 20.4528 15.8411 20.4321L15.8414 20.4319L15.8414 20.4319C15.8724 20.4113 15.9049 20.3945 15.9378 20.3808L15.9383 20.3806L15.9383 20.3806C15.9712 20.3672 16.0066 20.3558 16.0438 20.3487C16.0441 20.3487 16.0443 20.3486 16.0446 20.3486L16.063 20.4469C16.122 20.4349 16.1835 20.4349 16.243 20.4469L15.8968 20.5152C15.8714 20.5322 15.8478 20.5516 15.8266 20.5729C15.8054 20.5941 15.786 20.6176 15.7694 20.643M16.6713 20.684C16.6573 20.6504 16.6399 20.6179 16.6196 20.5875M16.6713 20.684L16.6196 20.5875M16.6196 20.5875L16.5365 20.643M16.6196 20.5875L16.5365 20.643M16.5365 20.643L16.6202 20.5884C16.5996 20.5569 16.5758 20.528 16.5499 20.5021L16.5365 20.643ZM16.3674 20.3807C16.3347 20.3671 16.2993 20.3557 16.2621 20.3487L16.5499 20.5021C16.524 20.4763 16.4955 20.4528 16.4649 20.4322L16.4649 20.4322L16.4645 20.4319C16.4335 20.4113 16.4009 20.3945 16.3674 20.3807Z" fill="white" stroke="#929AB5" stroke-width="0.2"/>
</g>
</g>
</g>
</svg>
