<svg width="110" height="135" viewBox="0 0 110 135" fill="none" xmlns="http://www.w3.org/2000/svg">
    <path d="M1 93.77V118.38C1 126.87 20.61 133.76 44.81 133.76C69.01 133.76 88.62 126.87 88.62 118.38V93.77H1Z" fill="#191C28" stroke="#949AB3" stroke-width="2" stroke-linecap="round" stroke-linejoin="round"/>
    <path d="M44.81 109.15C69.0056 109.15 88.62 102.264 88.62 93.7701C88.62 85.276 69.0056 78.3901 44.81 78.3901C20.6144 78.3901 1 85.276 1 93.7701C1 102.264 20.6144 109.15 44.81 109.15Z" fill="url(#paint0_linear_1683_172593)" stroke="#949AB3" stroke-width="2" stroke-linecap="round" stroke-linejoin="round"/>
    <path d="M1 58.46V83.0699C1 91.5599 20.61 98.45 44.81 98.45C69.01 98.45 88.62 91.5599 88.62 83.0699V58.46H1Z" fill="#191C28" stroke="#949AB3" stroke-width="2" stroke-linecap="round" stroke-linejoin="round"/>
    <path d="M44.81 73.8401C69.0056 73.8401 88.62 66.9542 88.62 58.4601C88.62 49.9659 69.0056 43.0801 44.81 43.0801C20.6144 43.0801 1 49.9659 1 58.4601C1 66.9542 20.6144 73.8401 44.81 73.8401Z" fill="url(#paint1_linear_1683_172593)" stroke="#949AB3" stroke-width="2" stroke-linecap="round" stroke-linejoin="round"/>
    <path d="M1 23.3799V47.9899C1 56.4799 20.61 63.3699 44.81 63.3699C69.01 63.3699 88.62 56.4799 88.62 47.9899V23.3799H1Z" fill="#191C28" stroke="#949AB3" stroke-width="2" stroke-linecap="round" stroke-linejoin="round"/>
    <path d="M44.81 38.76C69.0056 38.76 88.62 31.8741 88.62 23.38C88.62 14.8859 69.0056 8 44.81 8C20.6144 8 1 14.8859 1 23.38C1 31.8741 20.6144 38.76 44.81 38.76Z" fill="url(#paint2_linear_1683_172593)" stroke="#949AB3" stroke-width="2" stroke-linecap="round" stroke-linejoin="round"/>
    <path d="M97.5781 17.95L108.008 16.54" stroke="#949AB3" stroke-width="2" stroke-linecap="round" stroke-linejoin="round"/>
    <path d="M90.3398 10.14L91.7999 1" stroke="#949AB3" stroke-width="2" stroke-linecap="round" stroke-linejoin="round"/>
    <path d="M95.8008 12.7201L104.741 4.08008" stroke="#949AB3" stroke-width="2" stroke-linecap="round" stroke-linejoin="round"/>
    <path d="M77.4599 51.1199C78.7688 51.1199 79.8298 50.0588 79.8298 48.7499C79.8298 47.441 78.7688 46.3799 77.4599 46.3799C76.1509 46.3799 75.0898 47.441 75.0898 48.7499C75.0898 50.0588 76.1509 51.1199 77.4599 51.1199Z" fill="#949AB3"/>
    <path d="M69.4286 53.8499C70.7375 53.8499 71.7986 52.7888 71.7986 51.4799C71.7986 50.1709 70.7375 49.1099 69.4286 49.1099C68.1197 49.1099 67.0586 50.1709 67.0586 51.4799C67.0586 52.7888 68.1197 53.8499 69.4286 53.8499Z" fill="#949AB3"/>
    <path d="M77.4599 121.63C78.7688 121.63 79.8298 120.569 79.8298 119.26C79.8298 117.951 78.7688 116.89 77.4599 116.89C76.1509 116.89 75.0898 117.951 75.0898 119.26C75.0898 120.569 76.1509 121.63 77.4599 121.63Z" fill="#949AB3"/>
    <path d="M69.4286 124.36C70.7375 124.36 71.7986 123.299 71.7986 121.99C71.7986 120.681 70.7375 119.62 69.4286 119.62C68.1197 119.62 67.0586 120.681 67.0586 121.99C67.0586 123.299 68.1197 124.36 69.4286 124.36Z" fill="#949AB3"/>
    <path d="M77.4599 86.5799C78.7688 86.5799 79.8298 85.5188 79.8298 84.2099C79.8298 82.901 78.7688 81.8398 77.4599 81.8398C76.1509 81.8398 75.0898 82.901 75.0898 84.2099C75.0898 85.5188 76.1509 86.5799 77.4599 86.5799Z" fill="#949AB3"/>
    <path d="M69.4286 89.3098C70.7375 89.3098 71.7986 88.2487 71.7986 86.9398C71.7986 85.6309 70.7375 84.5698 69.4286 84.5698C68.1197 84.5698 67.0586 85.6309 67.0586 86.9398C67.0586 88.2487 68.1197 89.3098 69.4286 89.3098Z" fill="#949AB3"/>
    <path d="M61.4286 55.3201C62.7375 55.3201 63.7986 54.259 63.7986 52.9501C63.7986 51.6412 62.7375 50.5801 61.4286 50.5801C60.1197 50.5801 59.0586 51.6412 59.0586 52.9501C59.0586 54.259 60.1197 55.3201 61.4286 55.3201Z" fill="#949AB3"/>
    <path d="M61.4286 125.83C62.7375 125.83 63.7986 124.769 63.7986 123.46C63.7986 122.151 62.7375 121.09 61.4286 121.09C60.1197 121.09 59.0586 122.151 59.0586 123.46C59.0586 124.769 60.1197 125.83 61.4286 125.83Z" fill="#949AB3"/>
    <path d="M61.4286 90.78C62.7375 90.78 63.7986 89.7189 63.7986 88.41C63.7986 87.1011 62.7375 86.04 61.4286 86.04C60.1197 86.04 59.0586 87.1011 59.0586 88.41C59.0586 89.7189 60.1197 90.78 61.4286 90.78Z" fill="#949AB3"/>
    <defs>
        <linearGradient id="paint0_linear_1683_172593" x1="44.81" y1="135.89" x2="44.81" y2="48.2801" gradientUnits="userSpaceOnUse">
            <stop offset="0.15" stop-color="#191C28"/>
            <stop offset="0.24" stop-color="#191E2D"/>
            <stop offset="0.35" stop-color="#1C253E"/>
            <stop offset="0.49" stop-color="#20305A"/>
            <stop offset="0.64" stop-color="#264081"/>
            <stop offset="0.79" stop-color="#2D55B3"/>
            <stop offset="0.96" stop-color="#366EEE"/>
            <stop offset="0.97" stop-color="#3770F3"/>
        </linearGradient>
        <linearGradient id="paint1_linear_1683_172593" x1="-93.42" y1="101.69" x2="-92.42" y2="14.0701" gradientUnits="userSpaceOnUse">
            <stop offset="0.15" stop-color="#191C28"/>
            <stop offset="0.24" stop-color="#191E2D"/>
            <stop offset="0.35" stop-color="#1C253E"/>
            <stop offset="0.49" stop-color="#20305A"/>
            <stop offset="0.64" stop-color="#264081"/>
            <stop offset="0.79" stop-color="#2D55B3"/>
            <stop offset="0.96" stop-color="#366EEE"/>
            <stop offset="0.97" stop-color="#3770F3"/>
        </linearGradient>
        <linearGradient id="paint2_linear_1683_172593" x1="-93.42" y1="69.05" x2="44.81" y2="-33.84" gradientUnits="userSpaceOnUse">
            <stop offset="0.15" stop-color="#191C28"/>
            <stop offset="0.24" stop-color="#191E2D"/>
            <stop offset="0.35" stop-color="#1C253E"/>
            <stop offset="0.49" stop-color="#20305A"/>
            <stop offset="0.64" stop-color="#264081"/>
            <stop offset="0.79" stop-color="#2D55B3"/>
            <stop offset="0.96" stop-color="#366EEE"/>
            <stop offset="0.97" stop-color="#3770F3"/>
        </linearGradient>
    </defs>
</svg>
