<svg width="22" height="22" viewBox="0 0 22 22" fill="none" xmlns="http://www.w3.org/2000/svg">
    <path d="M13.3332 12.6666H12.9666C12.8286 12.6669 12.7053 12.5808 12.6579 12.4513C12.6172 12.3446 12.5736 12.2403 12.5266 12.137C12.4681 12.0113 12.4948 11.8625 12.5932 11.765L12.8546 11.5033C13.2425 11.1119 13.2418 10.4808 12.8529 10.0903L11.9109 9.14829C11.5199 8.75963 10.8885 8.75963 10.4976 9.14829L10.2362 9.40929C10.1385 9.50733 9.98996 9.53396 9.86425 9.47596C9.76092 9.42896 9.65659 9.38529 9.54959 9.34263C9.41938 9.29558 9.33276 9.17175 9.33326 9.03329V8.66663C9.33326 8.11433 8.88555 7.66663 8.33327 7.66663H6.99995C6.44766 7.66663 5.99996 8.11433 5.99996 8.66663V9.03329C6.00021 9.17121 5.91416 9.29458 5.78462 9.34196C5.67796 9.38263 5.57363 9.42629 5.47029 9.47329C5.34459 9.53142 5.196 9.50479 5.0983 9.40663L4.83663 9.14529C4.44572 8.75688 3.81456 8.75688 3.42364 9.14529L2.48165 10.0903C2.09299 10.4813 2.09299 11.1127 2.48165 11.5036L2.74265 11.765C2.84107 11.8625 2.86773 12.0113 2.80932 12.137C2.76232 12.2403 2.71865 12.3446 2.67765 12.4516C2.62994 12.5819 2.5054 12.668 2.36665 12.6666H1.99999C1.4477 12.6666 1 13.1143 1 13.6666V15C1 15.5523 1.4477 16 1.99999 16H2.36665C2.50457 15.9997 2.62794 16.0858 2.67532 16.2153C2.71598 16.322 2.75965 16.4263 2.80665 16.5296C2.86507 16.6553 2.8384 16.8041 2.73998 16.9016L2.47865 17.1633C2.09024 17.5542 2.09024 18.1854 2.47865 18.5763L3.42064 19.5183C3.8116 19.907 4.44301 19.907 4.83397 19.5183L5.0953 19.2573C5.19305 19.1593 5.34159 19.1326 5.46729 19.1906C5.57063 19.2376 5.67496 19.2813 5.78196 19.324C5.91283 19.3705 6.00021 19.4944 5.99996 19.6333V20C5.99996 20.5522 6.44766 21 6.99995 21H8.33327C8.88555 21 9.33326 20.5522 9.33326 20V19.6333C9.33301 19.4954 9.41905 19.372 9.54859 19.3246C9.65526 19.284 9.75959 19.2403 9.86292 19.1933C9.98863 19.1352 10.1372 19.1618 10.2349 19.26L10.4966 19.5213C10.888 19.9091 11.519 19.9083 11.9096 19.5196L12.8516 18.5776C13.2402 18.1867 13.2402 17.5553 12.8516 17.1643L12.5906 16.903C12.4921 16.8054 12.4655 16.6566 12.5239 16.531C12.5709 16.4276 12.6146 16.3233 12.6572 16.2163C12.7043 16.0861 12.8281 15.9995 12.9666 16H13.3332C13.8855 16 14.3332 15.5523 14.3332 15V13.6666C14.3332 13.1143 13.8855 12.6666 13.3332 12.6666ZM13.6666 15C13.6666 15.184 13.5173 15.3333 13.3332 15.3333H12.9666C12.5522 15.3348 12.1814 15.591 12.0332 15.978C11.9979 16.0713 11.9597 16.1632 11.9186 16.2536C11.7472 16.632 11.8267 17.0768 12.1186 17.3723L12.3792 17.6333C12.5095 17.7634 12.5096 17.9745 12.3795 18.1047C12.3794 18.1048 12.3793 18.1049 12.3792 18.105L11.4372 19.047C11.3071 19.1771 11.0961 19.1771 10.9659 19.047L10.7046 18.786C10.4092 18.4938 9.96421 18.4143 9.58592 18.586C9.49559 18.627 9.40359 18.6653 9.31093 18.7006C8.92422 18.8487 8.66826 19.2192 8.6666 19.6333V20C8.6666 20.184 8.51735 20.3333 8.33327 20.3333H6.99995C6.81586 20.3333 6.66662 20.184 6.66662 20V19.6333C6.66507 19.2189 6.40895 18.8481 6.02196 18.7C5.92862 18.6646 5.83675 18.6264 5.74629 18.5853C5.36796 18.414 4.92317 18.4935 4.62763 18.7853L4.36664 19.046C4.23655 19.1762 4.02547 19.1763 3.89522 19.0462C3.89514 19.0461 3.89506 19.046 3.89497 19.046L2.95298 18.105C2.82286 17.9748 2.82286 17.7638 2.95298 17.6336L3.21398 17.3723C3.50585 17.0768 3.58535 16.632 3.41398 16.2536C3.37298 16.1633 3.33465 16.0713 3.29931 15.9786C3.15156 15.5915 2.78098 15.3351 2.36665 15.3333H1.99999C1.81591 15.3333 1.66666 15.184 1.66666 15V13.6666C1.66666 13.4825 1.81591 13.3333 1.99999 13.3333H2.36665C2.78103 13.3318 3.15186 13.0756 3.29998 12.6886C3.33531 12.5953 3.37352 12.5034 3.41464 12.413C3.58602 12.0346 3.50648 11.5898 3.21465 11.2943L2.95265 11.0333C2.8224 10.9032 2.82228 10.6921 2.9524 10.5619C2.95248 10.5618 2.95257 10.5617 2.95265 10.5616L3.89464 9.61963C4.02481 9.4895 4.2358 9.4895 4.36597 9.61963L4.6273 9.88063C4.92267 10.1728 5.36767 10.2523 5.74596 10.0806C5.83629 10.0396 5.92829 10.0013 6.02095 9.96596C6.4082 9.81833 6.66474 9.44771 6.66662 9.03329V8.66663C6.66662 8.48254 6.81586 8.33329 6.99995 8.33329H8.33327C8.51735 8.33329 8.6666 8.48254 8.6666 8.66663V9.03329C8.66814 9.44767 8.92426 9.8185 9.31126 9.96663C9.40459 10.002 9.49646 10.0402 9.58692 10.0813C9.96521 10.253 10.4102 10.1734 10.7056 9.88129L10.9666 9.62063C11.0972 9.49138 11.3076 9.49138 11.4382 9.62063L12.3802 10.5626C12.5104 10.6928 12.5104 10.9038 12.3802 11.034L12.1192 11.2953C11.8274 11.5908 11.7479 12.0356 11.9192 12.414C11.9602 12.5043 11.9986 12.5963 12.0339 12.689C12.182 13.0757 12.5525 13.3316 12.9666 13.3333H13.3332C13.5173 13.3333 13.6666 13.4825 13.6666 13.6666V15Z" fill="currentColor" stroke="currentColor" stroke-width="0.3"/>
    <path d="M10.6591 14.2C10.6557 14.12 10.6501 14.0404 10.6404 13.961C10.6297 13.8757 10.6171 13.791 10.5994 13.708C10.5877 13.6537 10.5724 13.6 10.5577 13.546C10.5391 13.4774 10.5181 13.4097 10.4947 13.343C10.4784 13.2967 10.4614 13.2507 10.4441 13.205C10.4012 13.0983 10.3521 12.9941 10.2971 12.893C10.2927 12.8854 10.2901 12.877 10.2857 12.8694C10.199 12.715 10.0986 12.5687 9.98574 12.4324C9.97608 12.4204 9.96508 12.409 9.95508 12.3974C9.90908 12.343 9.86174 12.2904 9.81208 12.24C9.78608 12.213 9.75875 12.1877 9.73141 12.1617C9.69808 12.1307 9.66475 12.1 9.63141 12.0707C9.59095 12.0356 9.54975 12.0016 9.50775 11.9687L9.45308 11.928C8.93729 11.5417 8.31017 11.333 7.66576 11.3334C7.63243 11.3334 7.5991 11.3384 7.56577 11.3397C7.49477 11.3417 7.42343 11.3457 7.35177 11.353C7.3141 11.357 7.2761 11.3614 7.23843 11.3667C7.12977 11.381 7.02194 11.4012 6.91544 11.427C5.31041 11.8418 4.3455 13.4792 4.76025 15.0842C5.03358 16.1419 5.85991 16.9676 6.91777 17.24C6.9231 17.24 6.92877 17.2417 6.93444 17.243C7.04956 17.2717 7.16619 17.294 7.28377 17.3097C7.36143 17.3194 7.4391 17.3214 7.5171 17.325C7.5691 17.3277 7.6171 17.3354 7.67143 17.3354C7.76643 17.3354 7.8651 17.329 7.96576 17.319C7.97643 17.319 7.98709 17.316 7.99909 17.3147C8.08009 17.3057 8.16209 17.2937 8.24576 17.277C8.27909 17.2707 8.31009 17.2624 8.34209 17.255C8.40076 17.2414 8.45909 17.227 8.51909 17.2094C8.56576 17.1954 8.61109 17.179 8.65676 17.163C8.70242 17.147 8.74975 17.1297 8.79709 17.1117C8.84442 17.0937 8.88409 17.073 8.92709 17.053C8.98309 17.0274 9.03875 17.002 9.09375 16.972H9.09575C9.40683 16.8055 9.69416 16.598 9.95008 16.355C10.0192 16.2905 10.0793 16.217 10.1287 16.1364C10.3889 15.7193 10.5598 15.2528 10.6307 14.7664C10.6401 14.702 10.6484 14.6377 10.6534 14.572C10.6581 14.5117 10.6614 14.4517 10.6627 14.3917C10.6627 14.3727 10.6654 14.3547 10.6654 14.3357C10.6657 14.2887 10.6611 14.2454 10.6591 14.2ZM9.99474 14.4184C9.99474 14.446 9.99241 14.4737 9.99074 14.501C9.98474 14.5817 9.97441 14.6624 9.96074 14.7434C9.83616 15.4364 9.40587 16.0364 8.78942 16.3767C8.74809 16.3984 8.70742 16.4187 8.66676 16.4374L8.63909 16.4507C8.44542 16.5386 8.24101 16.6005 8.03109 16.6347C8.01643 16.637 8.00143 16.6397 7.98643 16.6417C7.94476 16.6477 7.90376 16.6527 7.8631 16.6564C7.80943 16.661 7.75543 16.6637 7.70043 16.6647C7.6771 16.6647 7.6541 16.6647 7.63076 16.6647C7.55189 16.6638 7.47314 16.6589 7.39477 16.65L7.35477 16.6454C7.2631 16.6334 7.17219 16.6163 7.08244 16.594C5.83403 16.2745 5.08104 15.0034 5.40053 13.755C5.61166 12.9301 6.2554 12.2857 7.0801 12.0737V12.0734C7.2716 12.0251 7.46827 12.0004 7.66576 12C7.76105 12.0006 7.85626 12.007 7.95076 12.0194C7.97609 12.0224 8.00109 12.027 8.02609 12.0307C8.09809 12.042 8.16943 12.0564 8.23976 12.0744C8.26276 12.0804 8.28576 12.0857 8.30842 12.092C8.48567 12.1432 8.6563 12.215 8.81675 12.306C8.84242 12.321 8.86742 12.3367 8.89275 12.3524C8.94542 12.3857 8.99642 12.419 9.04675 12.457C9.07375 12.4767 9.10108 12.496 9.12708 12.517C9.1925 12.5693 9.25513 12.6249 9.31475 12.6837C9.33842 12.7077 9.36008 12.734 9.38308 12.759C9.42142 12.8007 9.45875 12.8434 9.49441 12.8884C9.51908 12.9194 9.54275 12.9514 9.56608 12.9837C9.59941 13.0317 9.63275 13.0817 9.66275 13.1324C9.67941 13.16 9.69608 13.187 9.71308 13.2154C9.75608 13.2945 9.79437 13.3761 9.82774 13.4597C9.84108 13.493 9.85241 13.5264 9.86441 13.5597C9.88608 13.621 9.90474 13.683 9.92108 13.7457C9.92941 13.779 9.93874 13.8087 9.94574 13.841C9.9652 13.9311 9.97933 14.0223 9.98808 14.114C9.99008 14.1384 9.99008 14.163 9.99174 14.1874C9.99641 14.264 9.99774 14.341 9.99474 14.4184Z" fill="currentColor" stroke="currentColor" stroke-width="0.3"/>
    <path d="M20.0007 8H18.9524C18.8126 8.00142 18.6875 7.91338 18.6417 7.78133C18.5383 7.47171 18.4132 7.16971 18.2674 6.87767C18.2055 6.75154 18.2313 6.59992 18.3314 6.50133L19.0747 5.757C19.4649 5.36654 19.4649 4.73379 19.0747 4.34333L17.6574 2.92833C17.2669 2.53817 16.6342 2.53817 16.2437 2.92833L15.5007 3.671C15.4023 3.77108 15.2509 3.797 15.1247 3.73533C14.8327 3.58871 14.5306 3.46296 14.2207 3.359C14.0882 3.31363 13.9995 3.18846 14.0007 3.04833V2C14.0007 1.44771 13.553 1 13.0008 1H11.0008C10.4485 1 10.0008 1.44771 10.0008 2V3.04833C10.0022 3.18813 9.9142 3.31317 9.78212 3.359C9.47246 3.46292 9.17046 3.58858 8.87846 3.735C8.75234 3.79713 8.60063 3.77133 8.50213 3.671L7.7578 2.92767C7.36689 2.53863 6.73506 2.53863 6.34415 2.92767L4.9295 4.34233C4.53913 4.73283 4.53913 5.36583 4.9295 5.75633L6.02249 6.85133C6.15469 6.97942 6.36573 6.97608 6.49382 6.84383C6.61877 6.71483 6.61907 6.51 6.49448 6.38067L5.40083 5.286C5.2707 5.15583 5.2707 4.94483 5.40083 4.81467L6.81548 3.4C6.94565 3.26988 7.15664 3.26988 7.28681 3.4L8.03147 4.14333C8.33276 4.44642 8.79442 4.52217 9.17679 4.33133C9.44083 4.19913 9.71383 4.08563 9.99378 3.99167C10.3979 3.85488 10.6692 3.47496 10.6674 3.04833V2C10.6674 1.81592 10.8167 1.66667 11.0008 1.66667H13.0008C13.1848 1.66667 13.3341 1.81592 13.3341 2V3.04833C13.3324 3.47487 13.6037 3.85467 14.0077 3.99133C14.2878 4.08533 14.561 4.19892 14.8251 4.33133C15.2075 4.52117 15.6686 4.44533 15.9701 4.143L16.7147 3.4C16.8449 3.26988 17.0559 3.26988 17.1861 3.4L18.6007 4.815C18.7306 4.94513 18.7306 5.15588 18.6007 5.286L17.8574 6.03067C17.5546 6.33213 17.4789 6.79358 17.6694 7.176C17.8016 7.44004 17.9151 7.71304 18.009 7.993C18.1458 8.39717 18.5257 8.6685 18.9524 8.66667H20.0007C20.1848 8.66667 20.334 8.81592 20.334 9V11C20.334 11.1841 20.1848 11.3333 20.0007 11.3333H18.9524C18.5258 11.3316 18.146 11.603 18.0094 12.007C17.9154 12.2871 17.8018 12.5602 17.6694 12.8243C17.4792 13.2067 17.5551 13.668 17.8577 13.9693L18.601 14.714C18.7312 14.8442 18.7312 15.0552 18.601 15.1853L17.1857 16.6C17.0556 16.7299 16.8448 16.7299 16.7147 16.6L15.6194 15.507C15.4913 15.3748 15.2803 15.3714 15.1481 15.4995C15.0158 15.6276 15.0125 15.8386 15.1406 15.9708C15.1432 15.9736 15.146 15.9763 15.1487 15.979L16.2437 17.072C16.6342 17.4622 17.2669 17.4622 17.6574 17.072L19.072 15.6577C19.4624 15.2672 19.4624 14.6342 19.072 14.2437L18.3297 13.5C18.2297 13.4015 18.2038 13.2501 18.2654 13.124C18.412 12.8319 18.5377 12.5298 18.6417 12.22C18.6871 12.0874 18.8122 11.9988 18.9524 12H20.0007C20.553 12 21.0007 11.5523 21.0007 11V9C21.0007 8.44771 20.553 8 20.0007 8Z" fill="currentColor" stroke="currentColor" stroke-width="0.3"/>
    <path d="M15.0652 6.9361C13.372 5.2464 10.6305 5.2464 8.93731 6.9361C8.80943 7.06852 8.8131 7.27956 8.94551 7.40744C9.07468 7.53219 9.27947 7.53219 9.40863 7.40744C10.8309 5.96594 13.1524 5.9504 14.5939 7.37269C16.0354 8.79498 16.0509 11.1165 14.6287 12.558C14.6172 12.5697 14.6056 12.5813 14.5939 12.5928C14.4615 12.7207 14.4578 12.9317 14.5858 13.0641C14.7137 13.1965 14.9247 13.2002 15.0571 13.0723C15.0598 13.0696 15.0626 13.0669 15.0652 13.0641C16.7549 11.3709 16.7549 8.62935 15.0652 6.9361Z" fill="currentColor" stroke="currentColor" stroke-width="0.3"/>
</svg>
