<svg width="134" height="127" viewBox="0 0 134 127" fill="none" xmlns="http://www.w3.org/2000/svg">
<path d="M128.67 52.2099L125.92 50.3299C125.4 49.9799 125.17 49.3199 125.38 48.7299C125.93 47.1799 126.25 45.5799 126.35 43.9699C126.39 43.3399 126.87 42.8199 127.49 42.7099L130.96 42.0599C131.72 41.9199 132.22 41.1899 132.08 40.4299L131.3 36.2599C131.16 35.4999 130.43 34.9999 129.66 35.1399L126.1 35.7999C125.47 35.9199 124.82 35.6199 124.54 35.0499C123.79 33.5499 122.83 32.1399 121.65 30.8799C121.21 30.4099 121.18 29.6799 121.54 29.1499L123.31 26.5599C123.75 25.9199 123.59 25.0499 122.95 24.6099L119.45 22.2099C118.81 21.7699 117.94 21.9299 117.5 22.5699L115.48 25.5199C115.14 26.0199 114.52 26.2499 113.94 26.0799C112.52 25.6499 111.06 25.3999 109.6 25.3399C109 25.3099 108.5 24.8999 108.34 24.3199L107.16 20.1699C106.95 19.4299 106.17 18.9899 105.43 19.1999L101.35 20.3599C100.61 20.5699 100.17 21.3499 100.39 22.0899L101.41 25.6799C101.59 26.3099 101.32 26.9899 100.73 27.2899C99.5603 27.8999 98.4403 28.6499 97.4203 29.5299C96.9403 29.9399 96.2403 29.9499 95.7203 29.5999L92.9803 27.7199C92.3403 27.2799 91.4704 27.4499 91.0304 28.0799L88.6303 31.5799C88.1903 32.2199 88.3503 33.0899 88.9903 33.5299L91.7303 35.4099C92.2503 35.7699 92.4803 36.4299 92.2703 37.0299C91.9003 38.0699 91.6403 39.1399 91.4803 40.2199C91.3803 40.8799 90.8204 41.3699 90.1504 41.3899L87.1303 41.4999C86.3603 41.5299 85.7504 42.1799 85.7804 42.9499L85.9303 47.1899C85.9603 47.9599 86.6103 48.5699 87.3803 48.5399L91.1703 48.4099C91.7603 48.3899 92.2903 48.7599 92.5103 49.3099C93.1203 50.8599 93.9503 52.3299 94.9903 53.6699C95.3603 54.1499 95.4103 54.7999 95.0603 55.2999L93.0203 58.2799C92.5803 58.9199 92.7503 59.7899 93.3803 60.2299L96.8803 62.6299C97.5203 63.0699 98.3903 62.9099 98.8303 62.2699L100.6 59.6799C100.97 59.1499 101.65 58.9099 102.25 59.1599C103.84 59.7999 105.5 60.1999 107.16 60.3499C107.79 60.4099 108.3 60.8999 108.42 61.5199L109.03 64.7599C109.24 65.8899 109.97 66.3899 110.73 66.2399L114.9 65.4599C115.66 65.3199 116.16 64.5899 116.02 63.8299L115.37 60.3499C115.25 59.7299 115.56 59.0899 116.14 58.8299C117.61 58.1599 118.99 57.2799 120.25 56.1999C120.72 55.7899 121.42 55.7799 121.94 56.1299L124.69 58.0099C125.33 58.4499 126.2 58.2899 126.64 57.6499L129.04 54.1499C129.48 53.5099 129.31 52.6399 128.68 52.1999L128.67 52.2099ZM114.05 51.3099C111.99 52.6999 109.41 53.1799 106.99 52.6299C98.1003 50.6099 96.0403 39.5299 103.6 34.4499C105.66 33.0599 108.24 32.5799 110.67 33.1299C119.56 35.1499 121.62 46.2299 114.06 51.3099H114.05Z" fill="url(#paint0_linear_2091_185158)" stroke="#BDBFC1" stroke-width="1.84" stroke-linecap="round" stroke-linejoin="round"/>
<path d="M56.15 11.7798H68.28C68.8 11.7798 69.2199 12.1998 69.2199 12.7198V26.5298H55.21V12.7198C55.21 12.1998 55.63 11.7798 56.15 11.7798Z" fill="white" stroke="#6B6D6E" stroke-width="2" stroke-linecap="round" stroke-linejoin="round"/>
<path d="M61.8301 125.22C90.1347 125.22 113.08 102.274 113.08 73.9697C113.08 45.6651 90.1347 22.7197 61.8301 22.7197C33.5255 22.7197 10.5801 45.6651 10.5801 73.9697C10.5801 102.274 33.5255 125.22 61.8301 125.22Z" fill="url(#paint1_linear_2091_185158)" stroke="#6B6D6E" stroke-width="2" stroke-linecap="round" stroke-linejoin="round"/>
<path d="M61.8301 112.72C83.2311 112.72 100.58 95.3708 100.58 73.9697C100.58 52.5687 83.2311 35.2197 61.8301 35.2197C40.4291 35.2197 23.0801 52.5687 23.0801 73.9697C23.0801 95.3708 40.4291 112.72 61.8301 112.72Z" fill="white" stroke="#6B6D6E" stroke-width="2" stroke-linecap="round" stroke-linejoin="round"/>
<path d="M61.8301 104.77V112.24" stroke="#6B6D6E" stroke-width="2" stroke-linecap="round" stroke-linejoin="round"/>
<path d="M61.8301 35.23V43.08" stroke="#6B6D6E" stroke-width="2" stroke-linecap="round" stroke-linejoin="round"/>
<path d="M61.5997 57.3799C61.5997 57.3799 52.9797 73.7299 61.5997 73.7299C70.2197 73.7299 61.5997 57.3799 61.5997 57.3799Z" fill="url(#paint2_linear_2091_185158)" stroke="#6B6D6E" stroke-width="2" stroke-linecap="round" stroke-linejoin="round"/>
<path d="M30.7903 73.73H23.3203" stroke="#6B6D6E" stroke-width="2" stroke-linecap="round" stroke-linejoin="round"/>
<path d="M100.331 73.73H92.4805" stroke="#6B6D6E" stroke-width="2" stroke-linecap="round" stroke-linejoin="round"/>
<path d="M39.8796 95.6797L34.5996 100.96" stroke="#6B6D6E" stroke-width="2" stroke-linecap="round" stroke-linejoin="round"/>
<path d="M89.05 46.5L83.5 52.06" stroke="#6B6D6E" stroke-width="2" stroke-linecap="round" stroke-linejoin="round"/>
<path d="M39.8796 51.79L34.5996 46.5" stroke="#6B6D6E" stroke-width="2" stroke-linecap="round" stroke-linejoin="round"/>
<path d="M89.05 100.96L83.5 95.3999" stroke="#6B6D6E" stroke-width="2" stroke-linecap="round" stroke-linejoin="round"/>
<path d="M61.6001 78.71C64.3505 78.71 66.5801 76.4804 66.5801 73.73C66.5801 70.9796 64.3505 68.75 61.6001 68.75C58.8497 68.75 56.6201 70.9796 56.6201 73.73C56.6201 76.4804 58.8497 78.71 61.6001 78.71Z" fill="url(#paint3_linear_2091_185158)" stroke="#6B6D6E" stroke-width="2" stroke-linecap="round" stroke-linejoin="round"/>
<path d="M77.1901 1.66992H47.2501C45.2232 1.66992 43.5801 3.31302 43.5801 5.3399V9.78992C43.5801 11.8168 45.2232 13.4599 47.2501 13.4599H77.1901C79.217 13.4599 80.8601 11.8168 80.8601 9.78992V5.3399C80.8601 3.31302 79.217 1.66992 77.1901 1.66992Z" fill="url(#paint4_linear_2091_185158)" stroke="#6B6D6E" stroke-width="2" stroke-linecap="round" stroke-linejoin="round"/>
<path d="M12.18 40.7498L1.75 39.3398L12.18 40.7498Z" fill="white"/>
<path d="M12.18 40.7498L1.75 39.3398" stroke="#6B6D6E" stroke-width="2" stroke-linecap="round" stroke-linejoin="round"/>
<path d="M19.4102 32.93L17.9502 23.79L19.4102 32.93Z" fill="white"/>
<path d="M19.4102 32.93L17.9502 23.79" stroke="#6B6D6E" stroke-width="2" stroke-linecap="round" stroke-linejoin="round"/>
<path d="M13.9595 35.5101L5.01953 26.8701L13.9595 35.5101Z" fill="white"/>
<path d="M13.9595 35.5101L5.01953 26.8701" stroke="#6B6D6E" stroke-width="2" stroke-linecap="round" stroke-linejoin="round"/>
<defs>
<linearGradient id="paint0_linear_2091_185158" x1="112.262" y1="19.7765" x2="97.6213" y2="115.021" gradientUnits="userSpaceOnUse">
<stop stop-color="white"/>
<stop offset="0.12" stop-color="#FAFAFA"/>
<stop offset="0.25" stop-color="#EEEEEE"/>
<stop offset="0.37" stop-color="#D9D9D9"/>
<stop offset="0.5" stop-color="#BCBCBC"/>
<stop offset="0.63" stop-color="#969696"/>
<stop offset="0.76" stop-color="#686868"/>
<stop offset="0.89" stop-color="#333333"/>
<stop offset="1"/>
</linearGradient>
<linearGradient id="paint1_linear_2091_185158" x1="42.6401" y1="43.5597" x2="161.77" y2="232.38" gradientUnits="userSpaceOnUse">
<stop offset="0.1" stop-color="white"/>
<stop offset="0.2" stop-color="#FAFAFA"/>
<stop offset="0.31" stop-color="#EDEDED"/>
<stop offset="0.43" stop-color="#D7D7D7"/>
<stop offset="0.55" stop-color="#B9B9B9"/>
<stop offset="0.67" stop-color="#919191"/>
<stop offset="0.79" stop-color="#616161"/>
<stop offset="0.92" stop-color="#2A2A2A"/>
<stop offset="1"/>
</linearGradient>
<linearGradient id="paint2_linear_2091_185158" x1="58.1597" y1="64.4799" x2="70.5097" y2="68.9499" gradientUnits="userSpaceOnUse">
<stop offset="0.1" stop-color="white"/>
<stop offset="0.2" stop-color="#FAFAFA"/>
<stop offset="0.31" stop-color="#EDEDED"/>
<stop offset="0.43" stop-color="#D7D7D7"/>
<stop offset="0.55" stop-color="#B9B9B9"/>
<stop offset="0.67" stop-color="#919191"/>
<stop offset="0.79" stop-color="#616161"/>
<stop offset="0.92" stop-color="#2A2A2A"/>
<stop offset="1"/>
</linearGradient>
<linearGradient id="paint3_linear_2091_185158" x1="58.4801" y1="71.32" x2="71.2101" y2="81.17" gradientUnits="userSpaceOnUse">
<stop offset="0.18" stop-color="white"/>
<stop offset="0.27" stop-color="#FAFAFA"/>
<stop offset="0.38" stop-color="#EDEDED"/>
<stop offset="0.48" stop-color="#D7D7D7"/>
<stop offset="0.59" stop-color="#B9B9B9"/>
<stop offset="0.7" stop-color="#919191"/>
<stop offset="0.81" stop-color="#616161"/>
<stop offset="0.92" stop-color="#2A2A2A"/>
<stop offset="1"/>
</linearGradient>
<linearGradient id="paint4_linear_2091_185158" x1="47.2301" y1="0.169927" x2="125.51" y2="38.83" gradientUnits="userSpaceOnUse">
<stop offset="0.02" stop-color="white"/>
<stop offset="0.13" stop-color="#FAFAFA"/>
<stop offset="0.25" stop-color="#EDEDED"/>
<stop offset="0.38" stop-color="#D7D7D7"/>
<stop offset="0.51" stop-color="#B9B9B9"/>
<stop offset="0.64" stop-color="#919191"/>
<stop offset="0.78" stop-color="#616161"/>
<stop offset="0.91" stop-color="#2A2A2A"/>
<stop offset="1"/>
</linearGradient>
</defs>
</svg>
