<svg width="109" height="150" viewBox="0 0 109 150" fill="none" xmlns="http://www.w3.org/2000/svg">
<path d="M55.8701 49.3404C84.1967 49.3404 107.16 41.6397 107.16 32.1404C107.16 22.6411 84.1967 14.9404 55.8701 14.9404C27.5434 14.9404 4.58008 22.6411 4.58008 32.1404C4.58008 41.6397 27.5434 49.3404 55.8701 49.3404Z" fill="url(#paint0_linear_236_3)" stroke="#6B6D6E" stroke-width="2" stroke-linecap="round" stroke-linejoin="round"/>
<path d="M14.8398 103.92L55.8698 144.82" stroke="#6B6D6E" stroke-width="2" stroke-linejoin="round"/>
<path d="M9.83984 69.9705L82.8698 142.78" stroke="#6B6D6E" stroke-width="2" stroke-linejoin="round"/>
<path d="M9.24023 39.1604L94.1002 126.07" stroke="#6B6D6E" stroke-width="2" stroke-linejoin="round"/>
<path d="M49.0596 49.1904L98.0095 97.9804" stroke="#6B6D6E" stroke-width="2" stroke-linejoin="round"/>
<path d="M79.3398 47.4404L101.95 69.9704" stroke="#6B6D6E" stroke-width="2" stroke-linejoin="round"/>
<path d="M95.8693 113.35L62.5293 146.58" stroke="#6B6D6E" stroke-width="2" stroke-linejoin="round"/>
<path d="M100.56 79.6204L35.3496 144.62" stroke="#6B6D6E" stroke-width="2" stroke-linejoin="round"/>
<path d="M105.75 40.5103L17.9795 130.39" stroke="#6B6D6E" stroke-width="2" stroke-linejoin="round"/>
<path d="M65.3796 49.0403L13.6396 100.62" stroke="#6B6D6E" stroke-width="2" stroke-linejoin="round"/>
<path d="M34.2298 47.7402L10.0898 71.8002" stroke="#6B6D6E" stroke-width="2" stroke-linejoin="round"/>
<path d="M56.08 50.67C29.29 50.67 7.31 43.78 5 35L18.64 133.09C19.9 141.59 35.4 148.15 56.08 148.15C76.76 148.15 91.4901 141.99 93.5201 133.09L107.16 35C104.86 43.78 82.87 50.67 56.08 50.67Z" stroke="#6B6D6E" stroke-width="2" stroke-linejoin="round"/>
<path d="M10.7698 16.8903L1.96973 11.7903Z" fill="white"/>
<path d="M10.7698 16.8903L1.96973 11.7903" stroke="#6B6D6E" stroke-width="2" stroke-linecap="round" stroke-linejoin="round"/>
<path d="M20.1094 12.5603L22.1594 3.85034Z" fill="white"/>
<path d="M20.1094 12.5603L22.1594 3.85034" stroke="#6B6D6E" stroke-width="2" stroke-linecap="round" stroke-linejoin="round"/>
<path d="M14.2895 12.8603L9.47949 1.85034Z" fill="white"/>
<path d="M14.2895 12.8603L9.47949 1.85034" stroke="#6B6D6E" stroke-width="2" stroke-linecap="round" stroke-linejoin="round"/>
<defs>
<linearGradient id="paint0_linear_236_3" x1="23.1401" y1="7.49043" x2="152.79" y2="105.14" gradientUnits="userSpaceOnUse">
<stop stop-color="white"/>
<stop offset="0.1" stop-color="#FAFAFA"/>
<stop offset="0.23" stop-color="#EBEBEB"/>
<stop offset="0.36" stop-color="#D3D3D3"/>
<stop offset="0.5" stop-color="#B1B1B1"/>
<stop offset="0.65" stop-color="#868686"/>
<stop offset="0.8" stop-color="#515151"/>
<stop offset="0.95" stop-color="#141414"/>
<stop offset="1"/>
</linearGradient>
</defs>
</svg>
