<svg width="155" height="126" viewBox="0 0 155 126" fill="none" xmlns="http://www.w3.org/2000/svg">
<path d="M13.79 12.02H153.21V107.6C153.21 111.13 150.35 113.99 146.82 113.99H20.19C16.66 113.99 13.8 111.13 13.8 107.6V12.02H13.79Z" fill="white" stroke="#BDBFC1" stroke-width="2" stroke-linecap="round" stroke-linejoin="round"/>
<path d="M49.2803 11.4697V113.47" stroke="#BDBFC1" stroke-width="2" stroke-miterlimit="10" stroke-linecap="round"/>
<path d="M83.5 11.2798V113.64" stroke="#BDBFC1" stroke-width="2" stroke-miterlimit="10" stroke-linecap="round"/>
<path d="M119.38 11.2798V113.27" stroke="#BDBFC1" stroke-width="2" stroke-miterlimit="10" stroke-linecap="round"/>
<path d="M20.12 1.33984H146.86C150.36 1.33984 153.2 4.17985 153.2 7.67985V13.7198H13.79V7.67985C13.79 4.17985 16.6301 1.33984 20.1301 1.33984H20.12Z" fill="url(#paint0_linear_2091_185527)" stroke="#BDBFC1" stroke-width="2" stroke-linecap="round" stroke-linejoin="round"/>
<path d="M14.4199 38.79H151.87" stroke="#BDBFC1" stroke-width="2" stroke-miterlimit="10" stroke-linecap="round"/>
<path d="M14.2197 63.8599H152.81" stroke="#BDBFC1" stroke-width="2" stroke-miterlimit="10" stroke-linecap="round"/>
<path d="M13.71 88.25H152.59" stroke="#BDBFC1" stroke-width="2" stroke-miterlimit="10" stroke-linecap="round"/>
<path d="M1.78027 22.3198H141.2V117.9C141.2 121.43 138.34 124.29 134.81 124.29H8.18027C4.65027 124.29 1.79027 121.43 1.79027 117.9V22.3198H1.78027Z" fill="white" stroke="#6B6D6E" stroke-width="2" stroke-linecap="round" stroke-linejoin="round"/>
<path d="M37.2695 21.7695V123.76" stroke="#6B6D6E" stroke-width="2" stroke-miterlimit="10" stroke-linecap="round"/>
<path d="M71.4902 21.5796V123.94" stroke="#6B6D6E" stroke-width="2" stroke-miterlimit="10" stroke-linecap="round"/>
<path d="M107.37 21.5796V123.57" stroke="#6B6D6E" stroke-width="2" stroke-miterlimit="10" stroke-linecap="round"/>
<path d="M8.12027 11.6396H134.86C138.36 11.6396 141.2 14.4797 141.2 17.9797V24.0196H1.78027V17.9797C1.78027 14.4797 4.62027 11.6396 8.12027 11.6396Z" fill="url(#paint1_linear_2091_185527)" stroke="#6B6D6E" stroke-width="2" stroke-linecap="round" stroke-linejoin="round"/>
<path d="M2.41992 49.0796H139.87" stroke="#6B6D6E" stroke-width="2" stroke-miterlimit="10" stroke-linecap="round"/>
<path d="M2.21973 74.1494H140.8" stroke="#6B6D6E" stroke-width="2" stroke-miterlimit="10" stroke-linecap="round"/>
<path d="M1.70996 98.5498H140.58" stroke="#6B6D6E" stroke-width="2" stroke-miterlimit="10" stroke-linecap="round"/>
<defs>
<linearGradient id="paint0_linear_2091_185527" x1="54.31" y1="-66.0902" x2="119.33" y2="103.67" gradientUnits="userSpaceOnUse">
<stop stop-color="white"/>
<stop offset="0.15" stop-color="#FBFBFB"/>
<stop offset="0.28" stop-color="#F1F1F1"/>
<stop offset="0.4" stop-color="#E0E0E0"/>
<stop offset="0.51" stop-color="#C8C8C8"/>
<stop offset="0.62" stop-color="#A8A8A8"/>
<stop offset="0.72" stop-color="#828282"/>
<stop offset="0.82" stop-color="#545454"/>
<stop offset="0.92" stop-color="#212121"/>
<stop offset="0.98"/>
</linearGradient>
<linearGradient id="paint1_linear_2091_185527" x1="42.3103" y1="-55.7903" x2="107.32" y2="113.97" gradientUnits="userSpaceOnUse">
<stop stop-color="white"/>
<stop offset="0.15" stop-color="#FBFBFB"/>
<stop offset="0.28" stop-color="#F1F1F1"/>
<stop offset="0.4" stop-color="#E0E0E0"/>
<stop offset="0.51" stop-color="#C8C8C8"/>
<stop offset="0.62" stop-color="#A8A8A8"/>
<stop offset="0.72" stop-color="#828282"/>
<stop offset="0.82" stop-color="#545454"/>
<stop offset="0.92" stop-color="#212121"/>
<stop offset="0.98"/>
</linearGradient>
</defs>
</svg>
