<svg width="110" height="136" viewBox="0 0 110 136" fill="none" xmlns="http://www.w3.org/2000/svg">
<path d="M1.41992 94.54V119.15C1.41992 127.64 21.0299 134.53 45.2299 134.53C69.4299 134.53 89.0399 127.64 89.0399 119.15V94.54H1.41992Z" fill="#191C28" stroke="#949AB3" stroke-width="2" stroke-linecap="round" stroke-linejoin="round"/>
<path d="M45.2299 109.92C69.4255 109.92 89.0399 103.034 89.0399 94.5402C89.0399 86.046 69.4255 79.1602 45.2299 79.1602C21.0343 79.1602 1.41992 86.046 1.41992 94.5402C1.41992 103.034 21.0343 109.92 45.2299 109.92Z" fill="url(#paint0_linear_2091_185342)" stroke="#949AB3" stroke-width="2" stroke-linecap="round" stroke-linejoin="round"/>
<path d="M1.41992 59.23V83.84C1.41992 92.33 21.0299 99.22 45.2299 99.22C69.4299 99.22 89.0399 92.33 89.0399 83.84V59.23H1.41992Z" fill="#191C28" stroke="#949AB3" stroke-width="2" stroke-linecap="round" stroke-linejoin="round"/>
<path d="M45.2299 74.6101C69.4255 74.6101 89.0399 67.7242 89.0399 59.2301C89.0399 50.736 69.4255 43.8501 45.2299 43.8501C21.0343 43.8501 1.41992 50.736 1.41992 59.2301C1.41992 67.7242 21.0343 74.6101 45.2299 74.6101Z" fill="url(#paint1_linear_2091_185342)" stroke="#949AB3" stroke-width="2" stroke-linecap="round" stroke-linejoin="round"/>
<path d="M1.41992 24.1499V48.7599C1.41992 57.2499 21.0299 64.1399 45.2299 64.1399C69.4299 64.1399 89.0399 57.2499 89.0399 48.7599V24.1499H1.41992Z" fill="#191C28" stroke="#949AB3" stroke-width="2" stroke-linecap="round" stroke-linejoin="round"/>
<path d="M45.2299 39.53C69.4255 39.53 89.0399 32.6442 89.0399 24.15C89.0399 15.6559 69.4255 8.77002 45.2299 8.77002C21.0343 8.77002 1.41992 15.6559 1.41992 24.15C1.41992 32.6442 21.0343 39.53 45.2299 39.53Z" fill="url(#paint2_linear_2091_185342)" stroke="#949AB3" stroke-width="2" stroke-linecap="round" stroke-linejoin="round"/>
<path d="M98 18.7201L108.43 17.3101" stroke="#949AB3" stroke-width="2" stroke-linecap="round" stroke-linejoin="round"/>
<path d="M90.7598 10.91L92.2198 1.77002" stroke="#949AB3" stroke-width="2" stroke-linecap="round" stroke-linejoin="round"/>
<path d="M96.2197 13.4901L105.16 4.8501" stroke="#949AB3" stroke-width="2" stroke-linecap="round" stroke-linejoin="round"/>
<path d="M77.8798 51.8899C79.1887 51.8899 80.2498 50.8288 80.2498 49.5199C80.2498 48.211 79.1887 47.1499 77.8798 47.1499C76.5709 47.1499 75.5098 48.211 75.5098 49.5199C75.5098 50.8288 76.5709 51.8899 77.8798 51.8899Z" fill="#949AB3"/>
<path d="M69.8495 54.6199C71.1584 54.6199 72.2195 53.5588 72.2195 52.2499C72.2195 50.941 71.1584 49.8799 69.8495 49.8799C68.5406 49.8799 67.4795 50.941 67.4795 52.2499C67.4795 53.5588 68.5406 54.6199 69.8495 54.6199Z" fill="#949AB3"/>
<path d="M77.8798 122.4C79.1887 122.4 80.2498 121.339 80.2498 120.03C80.2498 118.721 79.1887 117.66 77.8798 117.66C76.5709 117.66 75.5098 118.721 75.5098 120.03C75.5098 121.339 76.5709 122.4 77.8798 122.4Z" fill="#949AB3"/>
<path d="M69.8495 125.13C71.1584 125.13 72.2195 124.069 72.2195 122.76C72.2195 121.451 71.1584 120.39 69.8495 120.39C68.5406 120.39 67.4795 121.451 67.4795 122.76C67.4795 124.069 68.5406 125.13 69.8495 125.13Z" fill="#949AB3"/>
<path d="M77.8798 87.3499C79.1887 87.3499 80.2498 86.2888 80.2498 84.9799C80.2498 83.671 79.1887 82.6099 77.8798 82.6099C76.5709 82.6099 75.5098 83.671 75.5098 84.9799C75.5098 86.2888 76.5709 87.3499 77.8798 87.3499Z" fill="#949AB3"/>
<path d="M69.8495 90.0798C71.1584 90.0798 72.2195 89.0188 72.2195 87.7098C72.2195 86.4009 71.1584 85.3398 69.8495 85.3398C68.5406 85.3398 67.4795 86.4009 67.4795 87.7098C67.4795 89.0188 68.5406 90.0798 69.8495 90.0798Z" fill="#949AB3"/>
<path d="M61.8495 56.0901C63.1584 56.0901 64.2195 55.029 64.2195 53.7201C64.2195 52.4112 63.1584 51.3501 61.8495 51.3501C60.5406 51.3501 59.4795 52.4112 59.4795 53.7201C59.4795 55.029 60.5406 56.0901 61.8495 56.0901Z" fill="#949AB3"/>
<path d="M61.8495 126.6C63.1584 126.6 64.2195 125.539 64.2195 124.23C64.2195 122.921 63.1584 121.86 61.8495 121.86C60.5406 121.86 59.4795 122.921 59.4795 124.23C59.4795 125.539 60.5406 126.6 61.8495 126.6Z" fill="#949AB3"/>
<path d="M61.8495 91.55C63.1584 91.55 64.2195 90.489 64.2195 89.1801C64.2195 87.8711 63.1584 86.8101 61.8495 86.8101C60.5406 86.8101 59.4795 87.8711 59.4795 89.1801C59.4795 90.489 60.5406 91.55 61.8495 91.55Z" fill="#949AB3"/>
<defs>
<linearGradient id="paint0_linear_2091_185342" x1="45.2299" y1="136.66" x2="45.2299" y2="49.0501" gradientUnits="userSpaceOnUse">
<stop offset="0.15" stop-color="#191C28"/>
<stop offset="0.24" stop-color="#191E2D"/>
<stop offset="0.35" stop-color="#1C253E"/>
<stop offset="0.49" stop-color="#20305A"/>
<stop offset="0.64" stop-color="#264081"/>
<stop offset="0.79" stop-color="#2D55B3"/>
<stop offset="0.96" stop-color="#366EEE"/>
<stop offset="0.97" stop-color="#3770F3"/>
</linearGradient>
<linearGradient id="paint1_linear_2091_185342" x1="-93.0001" y1="102.46" x2="-92.0001" y2="14.8401" gradientUnits="userSpaceOnUse">
<stop offset="0.15" stop-color="#191C28"/>
<stop offset="0.24" stop-color="#191E2D"/>
<stop offset="0.35" stop-color="#1C253E"/>
<stop offset="0.49" stop-color="#20305A"/>
<stop offset="0.64" stop-color="#264081"/>
<stop offset="0.79" stop-color="#2D55B3"/>
<stop offset="0.96" stop-color="#366EEE"/>
<stop offset="0.97" stop-color="#3770F3"/>
</linearGradient>
<linearGradient id="paint2_linear_2091_185342" x1="-93.0001" y1="69.82" x2="45.23" y2="-33.0699" gradientUnits="userSpaceOnUse">
<stop offset="0.15" stop-color="#191C28"/>
<stop offset="0.24" stop-color="#191E2D"/>
<stop offset="0.35" stop-color="#1C253E"/>
<stop offset="0.49" stop-color="#20305A"/>
<stop offset="0.64" stop-color="#264081"/>
<stop offset="0.79" stop-color="#2D55B3"/>
<stop offset="0.96" stop-color="#366EEE"/>
<stop offset="0.97" stop-color="#3770F3"/>
</linearGradient>
</defs>
</svg>
