<svg width="108" height="148" viewBox="0 0 108 148" fill="none" xmlns="http://www.w3.org/2000/svg">
<g id="Group 779">
<path id="Vector" d="M54.8896 49.4698C83.2163 49.4698 106.18 41.7691 106.18 32.2698C106.18 22.7705 83.2163 15.0698 54.8896 15.0698C26.563 15.0698 3.59961 22.7705 3.59961 32.2698C3.59961 41.7691 26.563 49.4698 54.8896 49.4698Z" fill="url(#paint0_linear_2177_323013)" stroke="#949AB3" stroke-width="2" stroke-linecap="round" stroke-linejoin="round"/>
<path id="Vector_2" d="M13.8604 106.05L54.8904 146.95" stroke="#949AB3" stroke-width="2" stroke-linecap="round" stroke-linejoin="round"/>
<path id="Vector_3" d="M8.86035 70.1001L81.9003 142.91" stroke="#949AB3" stroke-width="2" stroke-linecap="round" stroke-linejoin="round"/>
<path id="Vector_4" d="M8.25977 39.29L93.1298 126.2" stroke="#949AB3" stroke-width="2" stroke-linecap="round" stroke-linejoin="round"/>
<path id="Vector_5" d="M48.0898 49.3198L97.0298 98.1098" stroke="#949AB3" stroke-width="2" stroke-linecap="round" stroke-linejoin="round"/>
<path id="Vector_6" d="M78.3701 47.5698L100.98 70.0998" stroke="#949AB3" stroke-width="2" stroke-linecap="round" stroke-linejoin="round"/>
<path id="Vector_7" d="M94.8896 113.48L61.5596 146.71" stroke="#949AB3" stroke-width="2" stroke-linecap="round" stroke-linejoin="round"/>
<path id="Vector_8" d="M99.5898 79.75L34.3799 144.75" stroke="#949AB3" stroke-width="2" stroke-linecap="round" stroke-linejoin="round"/>
<path id="Vector_9" d="M104.77 40.6401L17.0098 130.52" stroke="#949AB3" stroke-width="2" stroke-linecap="round" stroke-linejoin="round"/>
<path id="Vector_10" d="M64.4099 49.1699L12.6699 100.75" stroke="#949AB3" stroke-width="2" stroke-linecap="round" stroke-linejoin="round"/>
<path id="Vector_11" d="M33.2502 47.8701L9.12012 71.9301" stroke="#949AB3" stroke-width="2" stroke-linecap="round" stroke-linejoin="round"/>
<path id="Vector_12" d="M54.8896 49.4698C28.0996 49.4698 6.11957 42.5798 3.80957 33.7998L17.4496 131.89C18.7096 140.39 34.2096 146.95 54.8896 146.95C75.5696 146.95 90.2996 140.79 92.3296 131.89L105.97 33.7998C103.67 42.5798 81.6796 49.4698 54.8896 49.4698Z" stroke="#949AB3" stroke-width="2" stroke-linecap="round" stroke-linejoin="round"/>
<g id="Group">
<path id="Vector_13" d="M9.80005 17.0199L1 11.9199" stroke="#949AB3" stroke-width="2" stroke-linecap="round" stroke-linejoin="round"/>
<path id="Vector_14" d="M19.1396 12.69L21.1896 3.97998" stroke="#949AB3" stroke-width="2" stroke-linecap="round" stroke-linejoin="round"/>
<path id="Vector_15" d="M13.31 12.99L8.5 1.97998" stroke="#949AB3" stroke-width="2" stroke-linecap="round" stroke-linejoin="round"/>
</g>
</g>
<defs>
<linearGradient id="paint0_linear_2177_323013" x1="0.81961" y1="-25.0302" x2="71.2296" y2="49.5798" gradientUnits="userSpaceOnUse">
<stop stop-color="#3770F3"/>
<stop offset="0.05" stop-color="#3366DC"/>
<stop offset="0.18" stop-color="#2C52AC"/>
<stop offset="0.3" stop-color="#264284"/>
<stop offset="0.43" stop-color="#213462"/>
<stop offset="0.56" stop-color="#1D2948"/>
<stop offset="0.7" stop-color="#1B2236"/>
<stop offset="0.84" stop-color="#191D2B"/>
<stop offset="1" stop-color="#191C28"/>
</linearGradient>
</defs>
</svg>
