<svg width="110" height="136" viewBox="0 0 110 136" fill="none" xmlns="http://www.w3.org/2000/svg">
<path d="M1.23438 94.2573V118.867C1.23438 127.357 20.8444 134.247 45.0444 134.247C69.2444 134.247 88.8544 127.357 88.8544 118.867V94.2573H1.23438Z" fill="#191C28" stroke="#949AB3" stroke-width="2" stroke-linecap="round" stroke-linejoin="round"/>
<path d="M45.0444 109.637C69.24 109.637 88.8544 102.752 88.8544 94.2574C88.8544 85.7633 69.24 78.8774 45.0444 78.8774C20.8488 78.8774 1.23438 85.7633 1.23438 94.2574C1.23438 102.752 20.8488 109.637 45.0444 109.637Z" fill="url(#paint0_linear_2177_322999)" stroke="#949AB3" stroke-width="2" stroke-linecap="round" stroke-linejoin="round"/>
<path d="M1.23438 58.9473V83.5573C1.23438 92.0472 20.8444 98.9373 45.0444 98.9373C69.2444 98.9373 88.8544 92.0472 88.8544 83.5573V58.9473H1.23438Z" fill="#191C28" stroke="#949AB3" stroke-width="2" stroke-linecap="round" stroke-linejoin="round"/>
<path d="M45.0444 74.3274C69.24 74.3274 88.8544 67.4415 88.8544 58.9474C88.8544 50.4532 69.24 43.5674 45.0444 43.5674C20.8488 43.5674 1.23438 50.4532 1.23438 58.9474C1.23438 67.4415 20.8488 74.3274 45.0444 74.3274Z" fill="url(#paint1_linear_2177_322999)" stroke="#949AB3" stroke-width="2" stroke-linecap="round" stroke-linejoin="round"/>
<path d="M1.23438 23.8672V48.4772C1.23438 56.9672 20.8444 63.8572 45.0444 63.8572C69.2444 63.8572 88.8544 56.9672 88.8544 48.4772V23.8672H1.23438Z" fill="#191C28" stroke="#949AB3" stroke-width="2" stroke-linecap="round" stroke-linejoin="round"/>
<path d="M45.0444 39.2473C69.24 39.2473 88.8544 32.3615 88.8544 23.8673C88.8544 15.3732 69.24 8.4873 45.0444 8.4873C20.8488 8.4873 1.23438 15.3732 1.23438 23.8673C1.23438 32.3615 20.8488 39.2473 45.0444 39.2473Z" fill="url(#paint2_linear_2177_322999)" stroke="#949AB3" stroke-width="2" stroke-linecap="round" stroke-linejoin="round"/>
<path d="M97.8145 18.4373L108.244 17.0273" stroke="#949AB3" stroke-width="2" stroke-linecap="round" stroke-linejoin="round"/>
<path d="M90.5742 10.6273L92.0342 1.4873" stroke="#949AB3" stroke-width="2" stroke-linecap="round" stroke-linejoin="round"/>
<path d="M96.0342 13.2074L104.974 4.56738" stroke="#949AB3" stroke-width="2" stroke-linecap="round" stroke-linejoin="round"/>
<path d="M77.6942 51.6072C79.0031 51.6072 80.0642 50.5461 80.0642 49.2372C80.0642 47.9283 79.0031 46.8672 77.6942 46.8672C76.3853 46.8672 75.3242 47.9283 75.3242 49.2372C75.3242 50.5461 76.3853 51.6072 77.6942 51.6072Z" fill="#949AB3"/>
<path d="M69.664 54.3372C70.9729 54.3372 72.034 53.2761 72.034 51.9672C72.034 50.6582 70.9729 49.5972 69.664 49.5972C68.355 49.5972 67.2939 50.6582 67.2939 51.9672C67.2939 53.2761 68.355 54.3372 69.664 54.3372Z" fill="#949AB3"/>
<path d="M77.6942 122.117C79.0031 122.117 80.0642 121.056 80.0642 119.747C80.0642 118.439 79.0031 117.377 77.6942 117.377C76.3853 117.377 75.3242 118.439 75.3242 119.747C75.3242 121.056 76.3853 122.117 77.6942 122.117Z" fill="#949AB3"/>
<path d="M69.664 124.847C70.9729 124.847 72.034 123.786 72.034 122.477C72.034 121.169 70.9729 120.107 69.664 120.107C68.355 120.107 67.2939 121.169 67.2939 122.477C67.2939 123.786 68.355 124.847 69.664 124.847Z" fill="#949AB3"/>
<path d="M77.6942 87.0672C79.0031 87.0672 80.0642 86.0061 80.0642 84.6972C80.0642 83.3883 79.0031 82.3271 77.6942 82.3271C76.3853 82.3271 75.3242 83.3883 75.3242 84.6972C75.3242 86.0061 76.3853 87.0672 77.6942 87.0672Z" fill="#949AB3"/>
<path d="M69.664 89.7971C70.9729 89.7971 72.034 88.736 72.034 87.4271C72.034 86.1182 70.9729 85.0571 69.664 85.0571C68.355 85.0571 67.2939 86.1182 67.2939 87.4271C67.2939 88.736 68.355 89.7971 69.664 89.7971Z" fill="#949AB3"/>
<path d="M61.664 55.8074C62.9729 55.8074 64.034 54.7463 64.034 53.4374C64.034 52.1285 62.9729 51.0674 61.664 51.0674C60.355 51.0674 59.2939 52.1285 59.2939 53.4374C59.2939 54.7463 60.355 55.8074 61.664 55.8074Z" fill="#949AB3"/>
<path d="M61.664 126.317C62.9729 126.317 64.034 125.256 64.034 123.947C64.034 122.638 62.9729 121.577 61.664 121.577C60.355 121.577 59.2939 122.638 59.2939 123.947C59.2939 125.256 60.355 126.317 61.664 126.317Z" fill="#949AB3"/>
<path d="M61.664 91.2673C62.9729 91.2673 64.034 90.2063 64.034 88.8973C64.034 87.5884 62.9729 86.5273 61.664 86.5273C60.355 86.5273 59.2939 87.5884 59.2939 88.8973C59.2939 90.2063 60.355 91.2673 61.664 91.2673Z" fill="#949AB3"/>
<defs>
<linearGradient id="paint0_linear_2177_322999" x1="45.0444" y1="136.377" x2="45.0444" y2="48.7674" gradientUnits="userSpaceOnUse">
<stop offset="0.15" stop-color="#191C28"/>
<stop offset="0.24" stop-color="#191E2D"/>
<stop offset="0.35" stop-color="#1C253E"/>
<stop offset="0.49" stop-color="#20305A"/>
<stop offset="0.64" stop-color="#264081"/>
<stop offset="0.79" stop-color="#2D55B3"/>
<stop offset="0.96" stop-color="#366EEE"/>
<stop offset="0.97" stop-color="#3770F3"/>
</linearGradient>
<linearGradient id="paint1_linear_2177_322999" x1="-93.1856" y1="102.177" x2="-92.1856" y2="14.5574" gradientUnits="userSpaceOnUse">
<stop offset="0.15" stop-color="#191C28"/>
<stop offset="0.24" stop-color="#191E2D"/>
<stop offset="0.35" stop-color="#1C253E"/>
<stop offset="0.49" stop-color="#20305A"/>
<stop offset="0.64" stop-color="#264081"/>
<stop offset="0.79" stop-color="#2D55B3"/>
<stop offset="0.96" stop-color="#366EEE"/>
<stop offset="0.97" stop-color="#3770F3"/>
</linearGradient>
<linearGradient id="paint2_linear_2177_322999" x1="-93.1856" y1="69.5373" x2="45.0444" y2="-33.3527" gradientUnits="userSpaceOnUse">
<stop offset="0.15" stop-color="#191C28"/>
<stop offset="0.24" stop-color="#191E2D"/>
<stop offset="0.35" stop-color="#1C253E"/>
<stop offset="0.49" stop-color="#20305A"/>
<stop offset="0.64" stop-color="#264081"/>
<stop offset="0.79" stop-color="#2D55B3"/>
<stop offset="0.96" stop-color="#366EEE"/>
<stop offset="0.97" stop-color="#3770F3"/>
</linearGradient>
</defs>
</svg>
