<svg width="146" height="135" viewBox="0 0 146 135" fill="none" xmlns="http://www.w3.org/2000/svg">
<path d="M2.31055 52.1101L53.5605 5.90012C59.5605 0.490118 68.6805 0.480118 74.6906 5.90012L125.981 52.0601L64.1605 93.0801L2.31055 52.1101Z" fill="white" stroke="#6B6D6E" stroke-width="2" stroke-linecap="round" stroke-linejoin="round"/>
<path d="M6.03046 133.14L122.95 133.09C124.56 132.94 125.63 132.36 126.34 131.64C127.7 130.28 127.25 127.94 125.63 126.9L7.76044 51.5101C6.03044 50.4101 3.64043 50.5302 2.32043 52.1002C1.61043 52.9402 1.19043 54.0202 1.19043 55.2102L1.2204 128.32C1.2204 130.98 3.38041 133.14 6.04041 133.14H6.03046Z" fill="url(#paint0_linear_2091_185599)" stroke="#6B6D6E" stroke-width="2" stroke-linecap="round" stroke-linejoin="round"/>
<path d="M122.33 133.09L5.41005 133.14C3.80005 132.99 2.73009 132.41 2.02009 131.7C0.660094 130.34 1.10006 128 2.73006 126.96L120.54 51.4699C122.27 50.3599 124.66 50.4899 125.98 52.0599C126.69 52.8999 127.11 53.9799 127.11 55.1599L127.14 128.27C127.14 130.93 124.98 133.09 122.32 133.09H122.33Z" fill="white" stroke="#6B6D6E" stroke-width="2" stroke-linecap="round" stroke-linejoin="round"/>
<path d="M134.54 49.95L144.97 48.54L134.54 49.95Z" fill="white"/>
<path d="M134.54 49.95L144.97 48.54" stroke="#6B6D6E" stroke-width="2" stroke-linecap="round" stroke-linejoin="round"/>
<path d="M127.301 42.1302L128.761 32.9902L127.301 42.1302Z" fill="white"/>
<path d="M127.301 42.1302L128.761 32.9902" stroke="#6B6D6E" stroke-width="2" stroke-linecap="round" stroke-linejoin="round"/>
<path d="M132.761 44.7103L141.701 36.0703L132.761 44.7103Z" fill="white"/>
<path d="M132.761 44.7103L141.701 36.0703" stroke="#6B6D6E" stroke-width="2" stroke-linecap="round" stroke-linejoin="round"/>
<defs>
<linearGradient id="paint0_linear_2091_185599" x1="-10.0248" y1="48.8424" x2="154.227" y2="227.115" gradientUnits="userSpaceOnUse">
<stop stop-color="white"/>
<stop offset="0.1" stop-color="#FAFAFA"/>
<stop offset="0.23" stop-color="#EBEBEB"/>
<stop offset="0.36" stop-color="#D3D3D3"/>
<stop offset="0.5" stop-color="#B1B1B1"/>
<stop offset="0.65" stop-color="#868686"/>
<stop offset="0.8" stop-color="#515151"/>
<stop offset="0.95" stop-color="#141414"/>
<stop offset="1"/>
</linearGradient>
</defs>
</svg>
