<svg width="172" height="172" viewBox="0 0 172 172" fill="none" xmlns="http://www.w3.org/2000/svg">
<g id="Frame 40302">
<g id="Group">
<path id="Vector" d="M147.727 75.3691L144.977 73.4891C144.457 73.1391 144.227 72.4791 144.437 71.8891C144.987 70.3391 145.307 68.7391 145.407 67.1291C145.447 66.4991 145.927 65.9791 146.547 65.8691L150.017 65.2191C150.777 65.0791 151.277 64.3491 151.137 63.5891L150.357 59.4191C150.217 58.6591 149.487 58.1591 148.717 58.2991L145.157 58.9591C144.527 59.0791 143.877 58.7791 143.597 58.2091C142.847 56.7091 141.887 55.2991 140.707 54.0391C140.267 53.5691 140.237 52.8391 140.597 52.3091L142.367 49.7191C142.807 49.0791 142.647 48.2091 142.007 47.7691L138.507 45.3691C137.867 44.9291 136.997 45.0891 136.557 45.7291L134.537 48.6791C134.197 49.1791 133.577 49.4091 132.997 49.2391C131.577 48.8091 130.117 48.5591 128.657 48.4991C128.057 48.4691 127.557 48.0591 127.397 47.4791L126.217 43.3291C126.007 42.5891 125.227 42.1491 124.487 42.3591L120.407 43.5191C119.667 43.7291 119.227 44.5091 119.447 45.2491L120.467 48.8391C120.647 49.4691 120.377 50.1491 119.787 50.4491C118.617 51.0591 117.497 51.8091 116.477 52.6891C115.997 53.0991 115.297 53.1091 114.777 52.7591L112.037 50.8791C111.397 50.4391 110.527 50.6091 110.087 51.2391L107.687 54.7391C107.247 55.3791 107.407 56.2491 108.047 56.6891L110.787 58.5691C111.307 58.9291 111.537 59.5891 111.327 60.1891C110.957 61.2291 110.697 62.2991 110.537 63.3791C110.437 64.0391 109.877 64.5291 109.207 64.5491L106.187 64.6591C105.417 64.6891 104.807 65.3391 104.837 66.1091L104.987 70.3491C105.017 71.1191 105.667 71.7291 106.437 71.6991L110.227 71.5691C110.817 71.5491 111.347 71.9191 111.567 72.4691C112.177 74.0191 113.007 75.4891 114.047 76.8291C114.417 77.3091 114.467 77.9591 114.117 78.4591L112.077 81.4391C111.637 82.0791 111.807 82.9491 112.437 83.3891L115.937 85.7891C116.577 86.2291 117.447 86.0691 117.887 85.4291L119.657 82.8391C120.027 82.3091 120.707 82.0691 121.307 82.3191C122.897 82.9591 124.557 83.3591 126.217 83.5091C126.847 83.5691 127.357 84.0591 127.477 84.6791L128.087 87.9191C128.297 89.0491 129.027 89.5491 129.787 89.3991L133.957 88.6191C134.717 88.4791 135.217 87.7491 135.077 86.9891L134.427 83.5091C134.307 82.8891 134.617 82.2491 135.197 81.9891C136.667 81.3191 138.047 80.4391 139.307 79.3591C139.777 78.9491 140.477 78.9391 140.997 79.2891L143.747 81.1691C144.387 81.6091 145.257 81.4491 145.697 80.8091L148.097 77.3091C148.537 76.6691 148.367 75.7991 147.737 75.3591L147.727 75.3691ZM133.107 74.4691C131.047 75.8591 128.467 76.3391 126.047 75.7891C117.157 73.7691 115.097 62.6891 122.657 57.6091C124.717 56.2191 127.297 55.7391 129.727 56.2891C138.617 58.3091 140.677 69.3891 133.117 74.4691H133.107Z" fill="url(#paint0_linear_1683_172656)" stroke="#677393" stroke-width="2" stroke-linecap="round" stroke-linejoin="round"/>
<g id="Group_2">
<path id="Vector_2" d="M75.2056 34.9395H87.3356C87.8556 34.9395 88.2756 35.3595 88.2756 35.8795V49.6895H74.2656V35.8795C74.2656 35.3595 74.6856 34.9395 75.2056 34.9395Z" fill="#191C28" stroke="#949AB3" stroke-width="2" stroke-linecap="round" stroke-linejoin="round"/>
<path id="Vector_3" d="M80.8867 148.391C109.191 148.391 132.137 125.445 132.137 97.1406C132.137 68.836 109.191 45.8906 80.8867 45.8906C52.5821 45.8906 29.6367 68.836 29.6367 97.1406C29.6367 125.445 52.5821 148.391 80.8867 148.391Z" fill="url(#paint1_linear_1683_172656)" stroke="#949AB3" stroke-width="2" stroke-linecap="round" stroke-linejoin="round"/>
<path id="Vector_4" d="M80.8867 135.891C102.288 135.891 119.637 118.542 119.637 97.1406C119.637 75.7396 102.288 58.3906 80.8867 58.3906C59.4857 58.3906 42.1367 75.7396 42.1367 97.1406C42.1367 118.542 59.4857 135.891 80.8867 135.891Z" fill="#191C28" stroke="#949AB3" stroke-width="2" stroke-linecap="round" stroke-linejoin="round"/>
<path id="Vector_5" d="M80.8867 127.93V135.4" stroke="#949AB3" stroke-width="2" stroke-linecap="round" stroke-linejoin="round"/>
<path id="Vector_6" d="M80.8867 58.3906V66.2506" stroke="#949AB3" stroke-width="2" stroke-linecap="round" stroke-linejoin="round"/>
<path id="Vector_7" d="M80.6553 80.5508C80.6553 80.5508 72.0353 96.9008 80.6553 96.9008C89.2753 96.9008 80.6553 80.5508 80.6553 80.5508Z" fill="#191C28" stroke="#949AB3" stroke-width="2" stroke-linecap="round" stroke-linejoin="round"/>
<path id="Vector_8" d="M49.845 96.9004H42.375" stroke="#949AB3" stroke-width="2" stroke-linecap="round" stroke-linejoin="round"/>
<path id="Vector_9" d="M119.385 96.9004H111.535" stroke="#949AB3" stroke-width="2" stroke-linecap="round" stroke-linejoin="round"/>
<path id="Vector_10" d="M58.9362 118.84L53.6562 124.12" stroke="#949AB3" stroke-width="2" stroke-linecap="round" stroke-linejoin="round"/>
<path id="Vector_11" d="M108.119 69.6699L102.559 75.2199" stroke="#949AB3" stroke-width="2" stroke-linecap="round" stroke-linejoin="round"/>
<path id="Vector_12" d="M58.9362 74.9499L53.6562 69.6699" stroke="#949AB3" stroke-width="2" stroke-linecap="round" stroke-linejoin="round"/>
<path id="Vector_13" d="M108.119 124.12L102.559 118.57" stroke="#949AB3" stroke-width="2" stroke-linecap="round" stroke-linejoin="round"/>
<path id="Vector_14" d="M80.6558 101.88C83.4061 101.88 85.6358 99.6503 85.6358 96.8999C85.6358 94.1495 83.4061 91.9199 80.6558 91.9199C77.9054 91.9199 75.6758 94.1495 75.6758 96.8999C75.6758 99.6503 77.9054 101.88 80.6558 101.88Z" fill="#191C28" stroke="#949AB3" stroke-width="2" stroke-linecap="round" stroke-linejoin="round"/>
<path id="Vector_15" d="M96.2467 24.8398H66.3067C64.2798 24.8398 62.6367 26.483 62.6367 28.5099V32.9598C62.6367 34.9867 64.2798 36.6299 66.3067 36.6299H96.2467C98.2736 36.6299 99.9167 34.9867 99.9167 32.9598V28.5099C99.9167 26.483 98.2736 24.8398 96.2467 24.8398Z" fill="url(#paint2_linear_1683_172656)" stroke="#949AB3" stroke-width="2" stroke-linecap="round" stroke-linejoin="round"/>
</g>
<path id="Vector_16" d="M31.2386 63.91L20.8086 62.5" stroke="#949AB3" stroke-width="2" stroke-linecap="round" stroke-linejoin="round"/>
<path id="Vector_17" d="M38.4678 56.0892L37.0078 46.9492" stroke="#949AB3" stroke-width="2" stroke-linecap="round" stroke-linejoin="round"/>
<path id="Vector_18" d="M33.0181 58.6693L24.0781 50.0293" stroke="#949AB3" stroke-width="2" stroke-linecap="round" stroke-linejoin="round"/>
</g>
</g>
<defs>
<linearGradient id="paint0_linear_1683_172656" x1="127.788" y1="-0.43938" x2="128.067" y2="95.9295" gradientUnits="userSpaceOnUse">
<stop offset="0.01" stop-color="#3770F3"/>
<stop offset="0.27" stop-color="#2D54B0"/>
<stop offset="0.52" stop-color="#243C75"/>
<stop offset="0.73" stop-color="#1E2A4B"/>
<stop offset="0.9" stop-color="#1A1F31"/>
<stop offset="1" stop-color="#191C28"/>
</linearGradient>
<linearGradient id="paint1_linear_1683_172656" x1="45.5967" y1="-34.7894" x2="103.287" y2="180.891" gradientUnits="userSpaceOnUse">
<stop stop-color="#3770F3"/>
<stop offset="0.05" stop-color="#3468E0"/>
<stop offset="0.23" stop-color="#2C51A8"/>
<stop offset="0.4" stop-color="#253E7A"/>
<stop offset="0.56" stop-color="#1F2F56"/>
<stop offset="0.71" stop-color="#1C243D"/>
<stop offset="0.85" stop-color="#191E2D"/>
<stop offset="0.96" stop-color="#191C28"/>
</linearGradient>
<linearGradient id="paint2_linear_1683_172656" x1="55.3867" y1="-11.7302" x2="100.837" y2="62.8198" gradientUnits="userSpaceOnUse">
<stop stop-color="#3770F3"/>
<stop offset="0.23" stop-color="#2D54B1"/>
<stop offset="0.46" stop-color="#243C76"/>
<stop offset="0.65" stop-color="#1E2A4B"/>
<stop offset="0.81" stop-color="#1A2031"/>
<stop offset="0.9" stop-color="#191C28"/>
</linearGradient>
</defs>
</svg>
