<svg width="172" height="172" viewBox="0 0 172 172" fill="none" xmlns="http://www.w3.org/2000/svg">
<g id="Frame 40300">
<g id="Group">
<path id="Vector" d="M86.2891 145.11C118.968 145.11 145.459 118.618 145.459 85.9395C145.459 53.2609 118.968 26.7695 86.2891 26.7695C53.6104 26.7695 27.1191 53.2609 27.1191 85.9395C27.1191 118.618 53.6104 145.11 86.2891 145.11Z" fill="#191C28" stroke="#949AB3" stroke-width="2" stroke-linecap="round" stroke-linejoin="round"/>
<path id="Vector_2" d="M100.439 45.5801H72.149C69.8349 45.5801 67.959 47.456 67.959 49.7701V122.12C67.959 124.434 69.8349 126.31 72.149 126.31H100.439C102.753 126.31 104.629 124.434 104.629 122.12V49.7701C104.629 47.456 102.753 45.5801 100.439 45.5801Z" fill="url(#paint0_linear_1683_172624)" stroke="#949AB3" stroke-width="2" stroke-linecap="round" stroke-linejoin="round"/>
<path id="Vector_3" d="M86.4498 71.7786C91.205 71.7786 95.0598 67.9238 95.0598 63.1686C95.0598 58.4134 91.205 54.5586 86.4498 54.5586C81.6947 54.5586 77.8398 58.4134 77.8398 63.1686C77.8398 67.9238 81.6947 71.7786 86.4498 71.7786Z" fill="#191C28" stroke="#949AB3" stroke-width="2" stroke-linecap="round" stroke-linejoin="round"/>
<path id="Vector_4" d="M86.4498 93.8391C91.205 93.8391 95.0598 89.9843 95.0598 85.2292C95.0598 80.474 91.205 76.6191 86.4498 76.6191C81.6947 76.6191 77.8398 80.474 77.8398 85.2292C77.8398 89.9843 81.6947 93.8391 86.4498 93.8391Z" fill="#191C28" stroke="#949AB3" stroke-width="2" stroke-linecap="round" stroke-linejoin="round"/>
<path id="Vector_5" d="M86.4498 115.89C91.205 115.89 95.0598 112.035 95.0598 107.28C95.0598 102.525 91.205 98.6699 86.4498 98.6699C81.6947 98.6699 77.8398 102.525 77.8398 107.28C77.8398 112.035 81.6947 115.89 86.4498 115.89Z" fill="#191C28" stroke="#949AB3" stroke-width="2" stroke-linecap="round" stroke-linejoin="round"/>
</g>
</g>
<defs>
<linearGradient id="paint0_linear_1683_172624" x1="7.15901" y1="30.1401" x2="140.939" y2="124.48" gradientUnits="userSpaceOnUse">
<stop stop-color="#3770F3"/>
<stop offset="0.05" stop-color="#3366DC"/>
<stop offset="0.18" stop-color="#2C52AC"/>
<stop offset="0.3" stop-color="#264284"/>
<stop offset="0.43" stop-color="#213462"/>
<stop offset="0.56" stop-color="#1D2948"/>
<stop offset="0.7" stop-color="#1B2236"/>
<stop offset="0.84" stop-color="#191D2B"/>
<stop offset="1" stop-color="#191C28"/>
</linearGradient>
</defs>
</svg>
