<svg width="110" height="135" viewBox="0 0 110 135" fill="none" xmlns="http://www.w3.org/2000/svg">
<path d="M1.5 24.73V118.78C1.5 127.14 20.81 133.93 44.64 133.93C68.47 133.93 87.78 127.15 87.78 118.78V24.73H1.51001H1.5Z" fill="url(#paint0_linear_2091_185331)" stroke="#949AB3" stroke-width="2" stroke-linecap="round" stroke-linejoin="round"/>
<path d="M44.64 38.34C68.4656 38.34 87.78 31.5571 87.78 23.19C87.78 14.8229 68.4656 8.04004 44.64 8.04004C20.8145 8.04004 1.5 14.8229 1.5 23.19C1.5 31.5571 20.8145 38.34 44.64 38.34Z" fill="#191C28" stroke="#949AB3" stroke-width="2" stroke-linecap="round" stroke-linejoin="round"/>
<path d="M44.6401 29.7596C60.1152 29.7596 72.6601 26.8181 72.6601 23.1896C72.6601 19.5611 60.1152 16.6196 44.6401 16.6196C29.1651 16.6196 16.6201 19.5611 16.6201 23.1896C16.6201 26.8181 29.1651 29.7596 44.6401 29.7596Z" fill="url(#paint1_linear_2091_185331)" stroke="#949AB3" stroke-width="2" stroke-linecap="round" stroke-linejoin="round"/>
<path d="M72.6601 23.1896C72.6601 19.5596 60.1201 16.6196 44.6401 16.6196C29.1601 16.6196 16.6201 19.5596 16.6201 23.1896C16.6201 23.8596 17.0501 24.5096 17.8601 25.1296C21.3901 22.4496 32.0401 20.4996 44.6401 20.4996C57.2401 20.4996 67.8901 22.4496 71.4201 25.1296C72.2301 24.5196 72.6601 23.8696 72.6601 23.1896Z" fill="url(#paint2_linear_2091_185331)" stroke="#949AB3" stroke-width="2" stroke-linecap="round" stroke-linejoin="round"/>
<path d="M87.78 47.21C87.78 55.57 68.47 62.36 44.64 62.36C20.81 62.36 1.5 55.58 1.5 47.21" stroke="#949AB3" stroke-width="2" stroke-linecap="round" stroke-linejoin="round"/>
<path d="M87.78 71.23C87.78 79.59 68.47 86.38 44.64 86.38C20.81 86.38 1.5 79.6 1.5 71.23" stroke="#949AB3" stroke-width="2" stroke-linecap="round" stroke-linejoin="round"/>
<path d="M87.78 94.3198C87.78 102.68 68.47 109.47 44.64 109.47C20.81 109.47 1.5 102.69 1.5 94.3198" stroke="#949AB3" stroke-width="2" stroke-linecap="round" stroke-linejoin="round"/>
<path d="M97.1104 20.6996L108.54 20.0996" stroke="#949AB3" stroke-width="2" stroke-linecap="round" stroke-linejoin="round"/>
<path d="M89.9697 11.5798L92.3797 1.7998" stroke="#949AB3" stroke-width="2" stroke-linecap="round" stroke-linejoin="round"/>
<path d="M95.6504 14.86L106.11 6.29004" stroke="#949AB3" stroke-width="2" stroke-linecap="round" stroke-linejoin="round"/>
<defs>
<linearGradient id="paint0_linear_2091_185331" x1="-5.78" y1="71.2" x2="247.24" y2="101.24" gradientUnits="userSpaceOnUse">
<stop stop-color="#191C28"/>
<stop offset="0.1" stop-color="#1A2032"/>
<stop offset="0.27" stop-color="#1E2C4F"/>
<stop offset="0.5" stop-color="#253F7E"/>
<stop offset="0.77" stop-color="#2F5ABE"/>
<stop offset="0.97" stop-color="#3770F3"/>
</linearGradient>
<linearGradient id="paint1_linear_2091_185331" x1="16.6201" y1="23.1896" x2="134.33" y2="23.1896" gradientUnits="userSpaceOnUse">
<stop stop-color="#191C28"/>
<stop offset="0.1" stop-color="#191E2E"/>
<stop offset="0.25" stop-color="#1C2640"/>
<stop offset="0.42" stop-color="#21325E"/>
<stop offset="0.62" stop-color="#274488"/>
<stop offset="0.82" stop-color="#2F5ABD"/>
<stop offset="1" stop-color="#3770F3"/>
</linearGradient>
<linearGradient id="paint2_linear_2091_185331" x1="16.6201" y1="20.8696" x2="115.07" y2="20.8696" gradientUnits="userSpaceOnUse">
<stop stop-color="#191C28"/>
<stop offset="0.11" stop-color="#1B2135"/>
<stop offset="0.32" stop-color="#20305A"/>
<stop offset="0.6" stop-color="#294995"/>
<stop offset="0.95" stop-color="#356AE5"/>
<stop offset="1" stop-color="#3770F3"/>
</linearGradient>
</defs>
</svg>
