<svg width="143" height="98" viewBox="0 0 143 98" fill="none" xmlns="http://www.w3.org/2000/svg">
<path d="M20.4203 84.0403H137.34C138.95 83.8903 140.02 83.3103 140.73 82.5903C142.09 81.2303 141.64 78.8903 140.02 77.8503L22.1804 2.41033C20.4504 1.30033 18.0604 1.43032 16.7404 3.00032C16.0304 3.84032 15.6104 4.92032 15.6104 6.10032V79.2103C15.6104 81.8703 17.7704 84.0303 20.4304 84.0303L20.4203 84.0403Z" fill="url(#paint0_linear_2091_185128)" stroke="#BDBFC1" stroke-width="2" stroke-linecap="round" stroke-linejoin="round"/>
<path d="M136.711 84.0403H19.7909C18.1809 83.8903 17.111 83.3103 16.401 82.5903C15.041 81.2303 15.4909 78.8903 17.1109 77.8503L134.951 2.41033C136.681 1.30033 139.071 1.43032 140.391 3.00032C141.101 3.84032 141.521 4.92032 141.521 6.10032V79.2103C141.521 81.8703 139.361 84.0303 136.701 84.0303L136.711 84.0403Z" fill="url(#paint1_linear_2091_185128)" stroke="#BDBFC1" stroke-width="2" stroke-linecap="round" stroke-linejoin="round"/>
<path d="M19.8005 83.99H136.72C136.72 83.99 136.771 83.99 136.801 83.99C141.491 84.11 142.831 79.78 138.581 76.93L78.5805 36.23L17.0005 77.59C15.3705 78.68 15.0005 80.91 16.3205 82.38C17.0305 83.17 18.1305 83.83 19.8005 83.99Z" fill="url(#paint2_linear_2091_185128)" stroke="#BDBFC1" stroke-width="2" stroke-linecap="round" stroke-linejoin="round"/>
<path d="M19.8003 1.69018H136.72C136.72 1.69018 136.77 1.69018 136.8 1.69018C141.49 1.57018 142.83 5.90018 138.58 8.75018L83.9603 45.7902C80.7003 48.0002 76.4403 48.0102 73.1703 45.8102L18.5403 9.12018C16.4203 7.59018 15.1103 5.26018 16.3203 3.29018C16.8803 2.38018 18.1303 1.84018 19.8003 1.68018V1.69018Z" fill="white" stroke="#BDBFC1" stroke-width="2" stroke-linecap="round" stroke-linejoin="round"/>
<path d="M14.1596 89.8601H131.08C132.69 89.7101 133.76 89.1301 134.47 88.4101C135.83 87.0501 135.38 84.7101 133.76 83.6701L15.9196 8.23015C14.1896 7.12015 11.7996 7.25015 10.4796 8.82015C9.76961 9.66015 9.34961 10.7401 9.34961 11.9201V85.0301C9.34961 87.6901 11.5096 89.8502 14.1696 89.8502L14.1596 89.8601Z" fill="url(#paint3_linear_2091_185128)" stroke="#BDBFC1" stroke-width="2" stroke-linecap="round" stroke-linejoin="round"/>
<path d="M130.45 89.8601H13.5302C11.9202 89.7101 10.8502 89.1301 10.1402 88.4101C8.78021 87.0501 9.23017 84.7101 10.8502 83.6701L128.69 8.23015C130.42 7.12015 132.81 7.25015 134.13 8.82015C134.84 9.66015 135.26 10.7401 135.26 11.9201V85.0301C135.26 87.6901 133.1 89.8502 130.44 89.8502L130.45 89.8601Z" fill="url(#paint4_linear_2091_185128)" stroke="#BDBFC1" stroke-width="2" stroke-linecap="round" stroke-linejoin="round"/>
<path d="M13.5301 89.8098H130.45C130.45 89.8098 130.5 89.8098 130.53 89.8098C135.22 89.9298 136.56 85.5998 132.31 82.7498L72.31 42.0498L10.73 83.4098C9.10001 84.4998 8.73002 86.7298 10.05 88.1998C10.76 88.9898 11.8601 89.6498 13.5301 89.8098Z" fill="url(#paint5_linear_2091_185128)" stroke="#BDBFC1" stroke-width="2" stroke-linecap="round" stroke-linejoin="round"/>
<path d="M13.5298 7.51H130.45C130.45 7.51 130.5 7.51 130.53 7.51C135.22 7.39 136.56 11.72 132.31 14.57L77.6898 51.61C74.4298 53.82 70.1698 53.83 66.8998 51.63L12.2698 14.94C10.1498 13.41 8.83979 11.08 10.0498 9.11C10.6098 8.2 11.8598 7.66 13.5298 7.5V7.51Z" fill="white" stroke="#BDBFC1" stroke-width="2" stroke-linecap="round" stroke-linejoin="round"/>
<path d="M6.76996 96.45H123.69C125.3 96.3 126.37 95.72 127.08 95C128.44 93.64 127.99 91.3 126.37 90.26L8.52997 14.82C6.79997 13.71 4.40997 13.84 3.08997 15.41C2.37997 16.25 1.95996 17.33 1.95996 18.51V91.62C1.95996 94.28 4.11997 96.44 6.77997 96.44L6.76996 96.45Z" fill="url(#paint6_linear_2091_185128)" stroke="#6B6D6E" stroke-width="2" stroke-linecap="round" stroke-linejoin="round"/>
<path d="M123.07 96.45H6.15034C4.54034 96.3 3.47033 95.72 2.76033 95C1.40033 93.64 1.85029 91.3 3.47029 90.26L121.31 14.82C123.04 13.71 125.43 13.84 126.75 15.41C127.46 16.25 127.88 17.33 127.88 18.51V91.62C127.88 94.28 125.72 96.44 123.06 96.44L123.07 96.45Z" fill="url(#paint7_linear_2091_185128)" stroke="#6B6D6E" stroke-width="2" stroke-linecap="round" stroke-linejoin="round"/>
<path d="M6.15017 96.4099H123.07C123.07 96.4099 123.12 96.4099 123.15 96.4099C127.84 96.5299 129.18 92.1999 124.93 89.3499L64.9301 48.6499L3.35013 90.0099C1.72013 91.0999 1.35013 93.3299 2.67013 94.7999C3.38013 95.5899 4.48017 96.2499 6.15017 96.4099Z" fill="url(#paint8_linear_2091_185128)" stroke="#6B6D6E" stroke-width="2" stroke-linecap="round" stroke-linejoin="round"/>
<path d="M6.14995 14.1101H123.07C123.07 14.1101 123.12 14.1101 123.15 14.1101C127.84 13.9901 129.18 18.3201 124.93 21.1701L70.3099 58.2101C67.0499 60.4201 62.7899 60.4301 59.5199 58.2301L4.88994 21.5401C2.76994 20.0101 1.45991 17.6801 2.66991 15.7101C3.22991 14.8001 4.47995 14.2601 6.14995 14.1001V14.1101Z" fill="white" stroke="#6B6D6E" stroke-width="2" stroke-linecap="round" stroke-linejoin="round"/>
<defs>
<linearGradient id="paint0_linear_2091_185128" x1="78.6404" y1="-28.5797" x2="78.3804" y2="213.82" gradientUnits="userSpaceOnUse">
<stop offset="0.12" stop-color="white"/>
<stop offset="0.21" stop-color="#FAFAFA"/>
<stop offset="0.31" stop-color="#EBEBEB"/>
<stop offset="0.42" stop-color="#D3D3D3"/>
<stop offset="0.53" stop-color="#B1B1B1"/>
<stop offset="0.65" stop-color="#868686"/>
<stop offset="0.78" stop-color="#515151"/>
<stop offset="0.9" stop-color="#141414"/>
<stop offset="0.94"/>
</linearGradient>
<linearGradient id="paint1_linear_2091_185128" x1="77.3909" y1="-28.1097" x2="80.9609" y2="188.54" gradientUnits="userSpaceOnUse">
<stop offset="0.12" stop-color="white"/>
<stop offset="0.21" stop-color="#FAFAFA"/>
<stop offset="0.32" stop-color="#EBEBEB"/>
<stop offset="0.44" stop-color="#D3D3D3"/>
<stop offset="0.56" stop-color="#B1B1B1"/>
<stop offset="0.69" stop-color="#868686"/>
<stop offset="0.82" stop-color="#515151"/>
<stop offset="0.96" stop-color="#141414"/>
<stop offset="1"/>
</linearGradient>
<linearGradient id="paint2_linear_2091_185128" x1="78.3205" y1="-40.67" x2="78.3205" y2="216.45" gradientUnits="userSpaceOnUse">
<stop offset="0.34" stop-color="white"/>
<stop offset="0.4" stop-color="#F9F9F9"/>
<stop offset="0.48" stop-color="#E8E8E8"/>
<stop offset="0.58" stop-color="#CCCCCC"/>
<stop offset="0.68" stop-color="#A6A6A6"/>
<stop offset="0.79" stop-color="#747474"/>
<stop offset="0.9" stop-color="#393939"/>
<stop offset="1"/>
</linearGradient>
<linearGradient id="paint3_linear_2091_185128" x1="72.3796" y1="-22.7698" x2="72.1196" y2="219.64" gradientUnits="userSpaceOnUse">
<stop offset="0.12" stop-color="white"/>
<stop offset="0.21" stop-color="#FAFAFA"/>
<stop offset="0.31" stop-color="#EBEBEB"/>
<stop offset="0.42" stop-color="#D3D3D3"/>
<stop offset="0.53" stop-color="#B1B1B1"/>
<stop offset="0.65" stop-color="#868686"/>
<stop offset="0.78" stop-color="#515151"/>
<stop offset="0.9" stop-color="#141414"/>
<stop offset="0.94"/>
</linearGradient>
<linearGradient id="paint4_linear_2091_185128" x1="71.1302" y1="-22.2898" x2="74.7002" y2="194.36" gradientUnits="userSpaceOnUse">
<stop offset="0.12" stop-color="white"/>
<stop offset="0.21" stop-color="#FAFAFA"/>
<stop offset="0.32" stop-color="#EBEBEB"/>
<stop offset="0.44" stop-color="#D3D3D3"/>
<stop offset="0.56" stop-color="#B1B1B1"/>
<stop offset="0.69" stop-color="#868686"/>
<stop offset="0.82" stop-color="#515151"/>
<stop offset="0.96" stop-color="#141414"/>
<stop offset="1"/>
</linearGradient>
<linearGradient id="paint5_linear_2091_185128" x1="72.06" y1="-34.8502" x2="72.06" y2="222.27" gradientUnits="userSpaceOnUse">
<stop offset="0.34" stop-color="white"/>
<stop offset="0.4" stop-color="#F9F9F9"/>
<stop offset="0.48" stop-color="#E8E8E8"/>
<stop offset="0.58" stop-color="#CCCCCC"/>
<stop offset="0.68" stop-color="#A6A6A6"/>
<stop offset="0.79" stop-color="#747474"/>
<stop offset="0.9" stop-color="#393939"/>
<stop offset="1"/>
</linearGradient>
<linearGradient id="paint6_linear_2091_185128" x1="64.99" y1="-16.17" x2="64.73" y2="226.24" gradientUnits="userSpaceOnUse">
<stop offset="0.12" stop-color="white"/>
<stop offset="0.21" stop-color="#FAFAFA"/>
<stop offset="0.31" stop-color="#EBEBEB"/>
<stop offset="0.42" stop-color="#D3D3D3"/>
<stop offset="0.53" stop-color="#B1B1B1"/>
<stop offset="0.65" stop-color="#868686"/>
<stop offset="0.78" stop-color="#515151"/>
<stop offset="0.9" stop-color="#141414"/>
<stop offset="0.94"/>
</linearGradient>
<linearGradient id="paint7_linear_2091_185128" x1="63.7403" y1="-15.7" x2="67.3103" y2="200.96" gradientUnits="userSpaceOnUse">
<stop offset="0.12" stop-color="white"/>
<stop offset="0.21" stop-color="#FAFAFA"/>
<stop offset="0.32" stop-color="#EBEBEB"/>
<stop offset="0.44" stop-color="#D3D3D3"/>
<stop offset="0.56" stop-color="#B1B1B1"/>
<stop offset="0.69" stop-color="#868686"/>
<stop offset="0.82" stop-color="#515151"/>
<stop offset="0.96" stop-color="#141414"/>
<stop offset="1"/>
</linearGradient>
<linearGradient id="paint8_linear_2091_185128" x1="64.6701" y1="-28.2501" x2="64.6701" y2="228.87" gradientUnits="userSpaceOnUse">
<stop offset="0.34" stop-color="white"/>
<stop offset="0.4" stop-color="#F9F9F9"/>
<stop offset="0.48" stop-color="#E8E8E8"/>
<stop offset="0.58" stop-color="#CCCCCC"/>
<stop offset="0.68" stop-color="#A6A6A6"/>
<stop offset="0.79" stop-color="#747474"/>
<stop offset="0.9" stop-color="#393939"/>
<stop offset="1"/>
</linearGradient>
</defs>
</svg>
