<svg width="102" height="131" viewBox="0 0 102 131" fill="none" xmlns="http://www.w3.org/2000/svg">
<path d="M81.9695 1.27979H6.59958C3.53992 1.27979 1.05957 3.76013 1.05957 6.81979V113.65C1.05957 116.709 3.53992 119.19 6.59958 119.19H81.9695C85.0292 119.19 87.5096 116.709 87.5096 113.65V6.81979C87.5096 3.76013 85.0292 1.27979 81.9695 1.27979Z" fill="white" stroke="#BDBFC1" stroke-width="2" stroke-linecap="round" stroke-linejoin="round"/>
<path d="M76.6194 11.3599H18.0894C15.8894 11.3599 14.1094 13.1399 14.1094 15.3399V125.29C14.1094 127.49 15.8894 129.27 18.0894 129.27H96.5794C98.7794 129.27 100.559 127.49 100.559 125.29V35.4799L76.6194 11.3599Z" fill="white" stroke="#6B6D6E" stroke-width="2" stroke-linecap="round" stroke-linejoin="round"/>
<path d="M80.6498 35.4797H100.61C100.67 35.4797 100.7 35.4097 100.66 35.3697L76.6198 11.3297C76.6198 11.3297 76.5098 11.3197 76.5098 11.3797V31.3397C76.5098 33.6297 78.3598 35.4797 80.6498 35.4797Z" fill="url(#paint0_linear_2091_185546)" stroke="#6B6D6E" stroke-width="2" stroke-linecap="round" stroke-linejoin="round"/>
<path d="M32.4395 43.6396H58.5794" stroke="#6B6D6E" stroke-width="2" stroke-miterlimit="10" stroke-linecap="round"/>
<path d="M32.4395 57.5996H82.2294" stroke="#6B6D6E" stroke-width="2" stroke-miterlimit="10" stroke-linecap="round"/>
<path d="M32.4395 71.5698H82.2294" stroke="#6B6D6E" stroke-width="2" stroke-miterlimit="10" stroke-linecap="round"/>
<path d="M32.4395 85.5298H82.2294" stroke="#6B6D6E" stroke-width="2" stroke-miterlimit="10" stroke-linecap="round"/>
<path d="M32.4395 99.4897H82.2294" stroke="#6B6D6E" stroke-width="2" stroke-miterlimit="10" stroke-linecap="round"/>
<defs>
<linearGradient id="paint0_linear_2091_185546" x1="70.8598" y1="9.92973" x2="102.91" y2="53.5197" gradientUnits="userSpaceOnUse">
<stop stop-color="white"/>
<stop offset="0.15" stop-color="#FBFBFB"/>
<stop offset="0.28" stop-color="#F1F1F1"/>
<stop offset="0.4" stop-color="#E0E0E0"/>
<stop offset="0.51" stop-color="#C8C8C8"/>
<stop offset="0.62" stop-color="#A8A8A8"/>
<stop offset="0.72" stop-color="#828282"/>
<stop offset="0.82" stop-color="#545454"/>
<stop offset="0.92" stop-color="#212121"/>
<stop offset="0.98"/>
</linearGradient>
</defs>
</svg>
