<svg width="110" height="136" viewBox="0 0 110 136" fill="none" xmlns="http://www.w3.org/2000/svg">
<path d="M1.45996 24.8403V118.89C1.45996 127.25 20.77 134.04 44.6 134.04C68.43 134.04 87.74 127.26 87.74 118.89V24.8403H1.46997H1.45996Z" fill="url(#paint0_linear_2091_185095)" stroke="#6B6D6E" stroke-width="2" stroke-linecap="round" stroke-linejoin="round"/>
<path d="M44.6 38.4601C68.4255 38.4601 87.74 31.6773 87.74 23.3102C87.74 14.943 68.4255 8.16016 44.6 8.16016C20.7744 8.16016 1.45996 14.943 1.45996 23.3102C1.45996 31.6773 20.7744 38.4601 44.6 38.4601Z" fill="white" stroke="#6B6D6E" stroke-width="2" stroke-linecap="round" stroke-linejoin="round"/>
<path d="M44.6001 29.8802C60.0751 29.8802 72.6201 26.9388 72.6201 23.3102C72.6201 19.6817 60.0751 16.7402 44.6001 16.7402C29.1251 16.7402 16.5801 19.6817 16.5801 23.3102C16.5801 26.9388 29.1251 29.8802 44.6001 29.8802Z" fill="url(#paint1_linear_2091_185095)" stroke="#6B6D6E" stroke-width="2" stroke-linecap="round" stroke-linejoin="round"/>
<path d="M72.6201 23.3102C72.6201 19.6802 60.0801 16.7402 44.6001 16.7402C29.1201 16.7402 16.5801 19.6802 16.5801 23.3102C16.5801 23.9802 17.0101 24.6302 17.8201 25.2502C21.3501 22.5702 32.0001 20.6202 44.6001 20.6202C57.2001 20.6202 67.8501 22.5702 71.3801 25.2502C72.1901 24.6402 72.6201 23.9902 72.6201 23.3102Z" fill="url(#paint2_linear_2091_185095)" stroke="#6B6D6E" stroke-width="2" stroke-linecap="round" stroke-linejoin="round"/>
<path d="M87.74 47.3301C87.74 55.6901 68.43 62.4801 44.6 62.4801C20.77 62.4801 1.45996 55.7001 1.45996 47.3301" stroke="#6B6D6E" stroke-width="2" stroke-linecap="round" stroke-linejoin="round"/>
<path d="M87.74 71.3501C87.74 79.7101 68.43 86.5001 44.6 86.5001C20.77 86.5001 1.45996 79.7201 1.45996 71.3501" stroke="#6B6D6E" stroke-width="2" stroke-linecap="round" stroke-linejoin="round"/>
<path d="M87.74 94.4399C87.74 102.8 68.43 109.59 44.6 109.59C20.77 109.59 1.45996 102.81 1.45996 94.4399" stroke="#6B6D6E" stroke-width="2" stroke-linecap="round" stroke-linejoin="round"/>
<path d="M97.0703 20.8202L108.5 20.2202L97.0703 20.8202Z" fill="white"/>
<path d="M97.0703 20.8202L108.5 20.2202" stroke="#6B6D6E" stroke-width="2" stroke-linecap="round" stroke-linejoin="round"/>
<path d="M89.9297 11.6902L92.3397 1.91016L89.9297 11.6902Z" fill="white"/>
<path d="M89.9297 11.6902L92.3397 1.91016" stroke="#6B6D6E" stroke-width="2" stroke-linecap="round" stroke-linejoin="round"/>
<path d="M95.6104 14.9802L106.07 6.41016L95.6104 14.9802Z" fill="white"/>
<path d="M95.6104 14.9802L106.07 6.41016" stroke="#6B6D6E" stroke-width="2" stroke-linecap="round" stroke-linejoin="round"/>
<defs>
<linearGradient id="paint0_linear_2091_185095" x1="1.45996" y1="79.4403" x2="192.07" y2="79.4403" gradientUnits="userSpaceOnUse">
<stop stop-color="white"/>
<stop offset="0.11" stop-color="#FAFAFA"/>
<stop offset="0.24" stop-color="#EDEDED"/>
<stop offset="0.37" stop-color="#D7D7D7"/>
<stop offset="0.5" stop-color="#B9B9B9"/>
<stop offset="0.63" stop-color="#919191"/>
<stop offset="0.77" stop-color="#616161"/>
<stop offset="0.91" stop-color="#2A2A2A"/>
<stop offset="1"/>
</linearGradient>
<linearGradient id="paint1_linear_2091_185095" x1="16.5801" y1="23.3102" x2="134.3" y2="23.3102" gradientUnits="userSpaceOnUse">
<stop stop-color="white"/>
<stop offset="0.11" stop-color="#FAFAFA"/>
<stop offset="0.24" stop-color="#EDEDED"/>
<stop offset="0.37" stop-color="#D7D7D7"/>
<stop offset="0.5" stop-color="#B9B9B9"/>
<stop offset="0.63" stop-color="#919191"/>
<stop offset="0.77" stop-color="#616161"/>
<stop offset="0.91" stop-color="#2A2A2A"/>
<stop offset="1"/>
</linearGradient>
<linearGradient id="paint2_linear_2091_185095" x1="16.5801" y1="20.9902" x2="115.03" y2="20.9902" gradientUnits="userSpaceOnUse">
<stop stop-color="white"/>
<stop offset="0.11" stop-color="#FAFAFA"/>
<stop offset="0.24" stop-color="#EDEDED"/>
<stop offset="0.37" stop-color="#D7D7D7"/>
<stop offset="0.5" stop-color="#B9B9B9"/>
<stop offset="0.63" stop-color="#919191"/>
<stop offset="0.77" stop-color="#616161"/>
<stop offset="0.91" stop-color="#2A2A2A"/>
<stop offset="1"/>
</linearGradient>
</defs>
</svg>
