<svg width="147" height="134" viewBox="0 0 147 134" fill="none" xmlns="http://www.w3.org/2000/svg">
<path d="M2.7793 51.8002L54.0493 5.61023C60.0593 0.200234 69.1793 0.200234 75.1793 5.61023L126.449 51.8002L64.6193 92.7903L2.78925 51.8002H2.7793Z" fill="#191C28" stroke="#949AB3" stroke-width="2" stroke-linecap="round" stroke-linejoin="round"/>
<path d="M6.47015 132.83H123.39C125 132.68 126.07 132.1 126.78 131.38C128.14 130.02 127.69 127.68 126.07 126.64L8.23016 51.2004C6.50016 50.0904 4.11016 50.2204 2.79016 51.7904C2.08016 52.6304 1.66016 53.7104 1.66016 54.8904V128C1.66016 130.66 3.82016 132.82 6.48016 132.82L6.47015 132.83Z" fill="url(#paint0_linear_2091_185631)" stroke="#949AB3" stroke-width="2" stroke-linecap="round" stroke-linejoin="round"/>
<path d="M122.76 132.83H5.8398C4.2298 132.68 3.15978 132.1 2.44978 131.38C1.08978 130.02 1.53974 127.68 3.15974 126.64L121 51.2004C122.73 50.0904 125.12 50.2204 126.44 51.7904C127.15 52.6304 127.57 53.7104 127.57 54.8904V128C127.57 130.66 125.41 132.82 122.75 132.82L122.76 132.83Z" fill="#191C28" stroke="#949AB3" stroke-width="2" stroke-linecap="round" stroke-linejoin="round"/>
<path d="M134.97 49.6703L145.4 48.2603" stroke="#949AB3" stroke-width="2" stroke-linecap="round" stroke-linejoin="round"/>
<path d="M127.74 41.8505L129.2 32.7104" stroke="#949AB3" stroke-width="2" stroke-linecap="round" stroke-linejoin="round"/>
<path d="M133.189 44.43L142.129 35.79" stroke="#949AB3" stroke-width="2" stroke-linecap="round" stroke-linejoin="round"/>
<defs>
<linearGradient id="paint0_linear_2091_185631" x1="-22.4599" y1="25.8204" x2="133.88" y2="211.07" gradientUnits="userSpaceOnUse">
<stop stop-color="#3770F3"/>
<stop offset="0.03" stop-color="#3366DC"/>
<stop offset="0.09" stop-color="#2C52AC"/>
<stop offset="0.15" stop-color="#264284"/>
<stop offset="0.22" stop-color="#213462"/>
<stop offset="0.28" stop-color="#1D2948"/>
<stop offset="0.35" stop-color="#1B2236"/>
<stop offset="0.42" stop-color="#191D2B"/>
<stop offset="0.5" stop-color="#191C28"/>
</linearGradient>
</defs>
</svg>
