<svg width="24" height="24" viewBox="0 0 24 24" fill="none" xmlns="http://www.w3.org/2000/svg">
    <mask id="mask0_1632_24524" style="mask-type:luminance" maskUnits="userSpaceOnUse" x="-1" y="0" width="25" height="25">
        <path d="M-0.00390625 0.000377655H23.9961V24.0004H-0.00390625V0.000377655Z" fill="white"/>
    </mask>
    <g mask="url(#mask0_1632_24524)">
        <path d="M0.464844 7.28113H7.8193H21.8173" stroke="currentColor" stroke-width="0.94575" stroke-miterlimit="10" stroke-linecap="round" stroke-linejoin="round"/>
        <path d="M4.37909 5.28625C4.99297 5.28625 5.49387 4.78694 5.49387 4.1734C5.49387 3.55985 4.99297 3.06054 4.37909 3.06054C3.76658 3.06054 3.26562 3.55985 3.26562 4.1734C3.26562 4.78694 3.76658 5.28625 4.37909 5.28625Z" stroke="currentColor" stroke-width="0.94575" stroke-miterlimit="10" stroke-linecap="round" stroke-linejoin="round"/>
        <path d="M14.0549 3.06054H18.2483C18.8608 3.06054 19.3618 3.56121 19.3618 4.1734C19.3618 4.78563 18.8608 5.28625 18.2483 5.28625H14.0549C13.4424 5.28625 12.9414 4.78563 12.9414 4.1734C12.9414 3.56121 13.4424 3.06054 14.0549 3.06054Z" stroke="currentColor" stroke-width="0.94575" stroke-miterlimit="10" stroke-linecap="round" stroke-linejoin="round"/>
        <path d="M8.49237 5.28625C9.10625 5.28625 9.60716 4.78694 9.60716 4.1734C9.60716 3.55985 9.10625 3.06054 8.49237 3.06054C7.87986 3.06054 7.37891 3.55985 7.37891 4.1734C7.37891 4.78694 7.87986 5.28625 8.49237 5.28625Z" stroke="currentColor" stroke-width="0.94575" stroke-miterlimit="10" stroke-linecap="round" stroke-linejoin="round"/>
        <path d="M7.60998 10.8866L6.67188 14.8123" stroke="currentColor" stroke-width="0.94575" stroke-miterlimit="10" stroke-linecap="round" stroke-linejoin="round"/>
        <path d="M9.76953 14.4576L11.0969 12.9676C11.1553 12.9025 11.1553 12.7963 11.0969 12.7312L9.76953 11.2412" stroke="currentColor" stroke-width="0.94575" stroke-miterlimit="10" stroke-linecap="round" stroke-linejoin="round"/>
        <path d="M4.51186 14.4578L3.1845 12.9677C3.126 12.9026 3.126 12.7964 3.1845 12.7314L4.51186 11.2413" stroke="currentColor" stroke-width="0.94575" stroke-miterlimit="10" stroke-linecap="round" stroke-linejoin="round"/>
        <path d="M18.9597 12.9581C19.4726 13.0724 19.9523 13.2742 20.3841 13.5451L20.7681 13.1626C20.9953 12.9342 21.3687 12.9342 21.5973 13.1626L22.2018 13.7669C22.4303 13.9953 22.4303 14.3685 22.2018 14.5956L21.8191 14.9794C22.0889 15.407 22.2882 15.8825 22.4038 16.3898H22.9419C23.2648 16.3898 23.5292 16.654 23.5292 16.9754V17.832C23.5292 18.1533 23.2648 18.4176 22.9419 18.4176H22.4011C22.2855 18.9223 22.0862 19.395 21.8191 19.82L22.2018 20.2025C22.4303 20.4309 22.4303 20.8041 22.2018 21.0312L21.5973 21.6368C21.3687 21.8652 20.9953 21.8652 20.7681 21.6368L20.3841 21.2543C19.9576 21.5225 19.4832 21.7217 18.9757 21.8373V22.3817C18.9757 22.7045 18.7113 22.9688 18.3897 22.9688H17.5327C17.2111 22.9688 16.9467 22.7045 16.9467 22.3817V21.836C16.4418 21.7217 15.9675 21.5212 15.5409 21.2543L15.1583 21.6368C14.9297 21.8652 14.5564 21.8652 14.3292 21.6368L13.7233 21.0312C13.496 20.8041 13.496 20.4309 13.7233 20.2025L14.1072 19.82C13.8389 19.395 13.6396 18.9223 13.524 18.4176H12.9805C12.6577 18.4176 12.3945 18.1533 12.3945 17.832V16.9754C12.3945 16.654 12.6577 16.3898 12.9805 16.3898H13.5227C13.6369 15.8878 13.8336 15.4177 14.098 14.994L13.7127 14.6076C13.4841 14.3805 13.4841 14.0073 13.7127 13.7789L14.3172 13.1746C14.5458 12.9462 14.9191 12.9462 15.1463 13.1746L15.5277 13.5544C15.9529 13.2848 16.4259 13.0843 16.9308 12.9661V12.4256C16.9308 12.1029 17.1939 11.8386 17.5167 11.8386H18.3725C18.6953 11.8386 18.9597 12.1029 18.9597 12.4256V12.9581Z" stroke="currentColor" stroke-width="0.94575" stroke-miterlimit="10" stroke-linecap="round" stroke-linejoin="round"/>
        <path d="M17.9599 14.9887C19.294 14.9887 20.3755 16.0698 20.3755 17.4044C20.3755 18.7377 19.294 19.8187 17.9599 19.8187C16.6246 19.8187 15.543 18.7377 15.543 17.4044C15.543 16.0698 16.6246 14.9887 17.9599 14.9887Z" stroke="currentColor" stroke-width="0.94575" stroke-miterlimit="10" stroke-linecap="round" stroke-linejoin="round"/>
        <path d="M4.98514 18.4177H2.21075C1.2515 18.4177 0.464844 17.4789 0.464844 16.3328V3.11632C0.464844 1.96897 1.25009 1.03137 2.21075 1.03137H4.23308H20.0714C21.032 1.03137 21.8173 1.97028 21.8173 3.11632V13.3846M12.9787 18.4177H9.17459" stroke="currentColor" stroke-width="0.94575" stroke-miterlimit="10" stroke-linecap="round" stroke-linejoin="round"/>
        <path d="M7.08594 18.4177H7.09522" stroke="currentColor" stroke-width="0.94575" stroke-miterlimit="10" stroke-linecap="round" stroke-linejoin="round"/>
    </g>
</svg>
