<svg width="48" height="48" viewBox="0 0 48 48" fill="none" xmlns="http://www.w3.org/2000/svg">
<g clip-path="url(#clip0_2650_10560)">
<path d="M3.62989 0.200657C3.19446 -0.0604517 2.65357 -0.0670436 2.21265 0.182713C1.7721 0.432835 1.5 0.899389 1.5 1.40623V38.1563C1.5 38.6507 1.75964 39.1081 2.18262 39.3622L13.4326 47.7997C13.8681 48.0601 14.4093 48.0671 14.8499 47.8173C15.2904 47.5676 15.5625 47.1006 15.5625 46.5938V9.84374C15.5625 9.34935 15.3029 8.89195 14.8799 8.6378L3.62989 0.200657ZM11.3408 28.2188C10.5645 28.2188 9.93458 27.5892 9.93458 26.8125C9.93458 26.0358 10.5645 25.4063 11.3408 25.4063C12.1179 25.4063 12.7471 26.0358 12.7471 26.8125C12.7471 27.5892 12.1176 28.2188 11.3408 28.2188Z" fill="#929AB5"/>
<path d="M40.2488 15.798C39.8189 15.5108 39.2615 15.4848 38.8052 15.728C38.3482 15.9723 38.0625 16.4487 38.0625 16.968V18.375H25.4063C24.6288 18.375 24 19.0041 24 19.7812V22.5937C24 23.3712 24.6288 24 25.4063 24H38.0625V25.4062C38.0625 25.9255 38.3482 26.402 38.8056 26.6466C39.2564 26.8883 39.8126 26.8671 40.2488 26.5767L45.8738 22.3579C46.2653 22.0968 46.5 21.6573 46.5 21.1879C46.5 20.718 46.2653 20.2786 45.8738 20.0178L40.2488 15.798Z" fill="#929AB5"/>
<path d="M21.1867 22.5938V19.7813C21.1867 17.4551 23.0792 15.5625 25.4054 15.5625H32.4367V1.40625C32.4367 0.629151 31.8075 0 31.0304 0H8.04883L16.483 6.32557C17.6546 7.10121 18.3742 8.43348 18.3742 9.84377V39.5626H31.0304C31.8075 39.5626 32.4367 38.9338 32.4367 38.1563V26.8125H25.4054C23.0792 26.8125 21.1867 24.9203 21.1867 22.5938Z" fill="#929AB5"/>
</g>
<defs>
<clipPath id="clip0_2650_10560">
<rect width="48" height="48" fill="white"/>
</clipPath>
</defs>
</svg>
