<svg width="21" height="22" viewBox="0 0 21 22" fill="none" xmlns="http://www.w3.org/2000/svg">
    <path d="M17.2326 12.3493C16.2344 12.3493 15.3367 12.7864 14.7196 13.4787L13.3231 12.635C13.5815 12.0489 13.7253 11.4014 13.7253 10.7209C13.7253 9.42581 13.2053 8.25011 12.3634 7.39084L14.3534 4.85805C14.6706 5.00067 15.0218 5.08072 15.3915 5.08072C16.7923 5.08072 17.9319 3.94113 17.9319 2.54034C17.9319 1.13955 16.7923 0 15.3916 0C13.9908 0 12.8512 1.13959 12.8512 2.54038C12.8512 2.72145 12.8706 2.89805 12.9067 3.06849C12.9877 3.44971 13.1546 3.79929 13.3858 4.09664L11.396 6.62919C10.6838 6.20427 9.85204 5.95969 8.96408 5.95969C7.75841 5.95969 6.65618 6.41037 5.81643 7.15188L4.60383 6.09193C4.7206 5.83126 4.78609 5.54285 4.78609 5.23931C4.78609 5.09012 4.77013 4.94462 4.7403 4.80418C4.53945 3.85813 3.69785 3.14612 2.69287 3.14612C1.53861 3.14612 0.599609 4.08511 0.599609 5.23931C0.599609 6.39351 1.53861 7.33254 2.69287 7.33254C3.09633 7.33254 3.47333 7.21749 3.79329 7.01894L5.00548 8.07848C4.49879 8.83504 4.20287 9.74404 4.20287 10.721C4.20287 12.0525 4.75248 13.2578 5.63647 14.1227L4.12909 16.1277C3.82497 15.9987 3.49073 15.9272 3.14011 15.9272C1.73934 15.9272 0.599691 17.0668 0.599691 18.4676C0.599691 19.8684 1.73926 21.0078 3.14007 21.0078C4.54089 21.0078 5.68049 19.8682 5.68049 18.4674C5.68049 18.301 5.66392 18.1384 5.63322 17.9807C5.55219 17.5651 5.36972 17.1854 5.11241 16.8686L6.61983 14.8637C7.31231 15.2571 8.11243 15.4821 8.9642 15.4821C10.4685 15.4821 11.8118 14.7807 12.685 13.688L14.0815 14.5317C13.9424 14.9004 13.8657 15.2995 13.8657 15.7162C13.8657 15.9369 13.8877 16.1524 13.9284 16.3613C14.2303 17.9102 15.5967 19.0831 17.2327 19.0831C19.0892 19.0831 20.5996 17.5727 20.5996 15.7162C20.5996 13.8597 19.0892 12.3493 17.2326 12.3493ZM15.3916 1.23129C16.1134 1.23129 16.7007 1.81853 16.7007 2.54038C16.7007 3.26224 16.1134 3.84947 15.3916 3.84947C14.6697 3.84947 14.0825 3.2622 14.0825 2.54038C14.0825 1.81857 14.6697 1.23129 15.3916 1.23129ZM2.69283 6.10112C2.21752 6.10112 1.83092 5.71445 1.83092 5.23923C1.83092 4.76397 2.21756 4.37737 2.69283 4.37737C3.1681 4.37737 3.55474 4.76401 3.55474 5.23923C3.55478 5.71445 3.16814 6.10112 2.69283 6.10112ZM3.13999 19.7765C2.41816 19.7765 1.83088 19.1893 1.83088 18.4674C1.83088 17.7456 2.41812 17.1583 3.13999 17.1583C3.86181 17.1583 4.4491 17.7455 4.4491 18.4674C4.44906 19.1893 3.86181 19.7765 3.13999 19.7765ZM8.96408 14.2508C7.01763 14.2508 5.43414 12.6673 5.43414 10.7209C5.43414 8.77452 7.01771 7.19098 8.96408 7.19098C10.9104 7.19098 12.494 8.77452 12.494 10.7209C12.494 12.6673 10.9105 14.2508 8.96408 14.2508ZM17.2327 17.8518C16.055 17.8518 15.097 16.8937 15.097 15.7162C15.097 14.5386 16.055 13.5806 17.2327 13.5806C18.4103 13.5806 19.3683 14.5386 19.3683 15.7162C19.3683 16.8937 18.4103 17.8518 17.2327 17.8518Z" fill="currentColor"/>
</svg>
