<svg width="20" height="20" viewBox="0 0 20 20" fill="none" xmlns="http://www.w3.org/2000/svg">
<path d="M16.875 5.875H3.125C2.97582 5.875 2.83274 5.81574 2.72725 5.71025C2.62176 5.60476 2.5625 5.46168 2.5625 5.3125C2.5625 5.16332 2.62176 5.02024 2.72725 4.91475C2.83274 4.80926 2.97582 4.75 3.125 4.75H16.875C17.0242 4.75 17.1673 4.80926 17.2727 4.91475C17.3782 5.02024 17.4375 5.16332 17.4375 5.3125C17.4375 5.46168 17.3782 5.60476 17.2727 5.71025C17.1673 5.81574 17.0242 5.875 16.875 5.875Z" fill="white" stroke="white" stroke-width="0.125"/>
<path d="M16.875 7.8125H3.125C2.95924 7.8125 2.80027 7.87835 2.68306 7.99556C2.56585 8.11277 2.5 8.27174 2.5 8.4375C2.5 8.60326 2.56585 8.76223 2.68306 8.87944C2.80027 8.99665 2.95924 9.0625 3.125 9.0625H16.875C17.0408 9.0625 17.1997 8.99665 17.3169 8.87944C17.4342 8.76223 17.5 8.60326 17.5 8.4375C17.5 8.27174 17.4342 8.11277 17.3169 7.99556C17.1997 7.87835 17.0408 7.8125 16.875 7.8125Z" fill="white"/>
<path d="M16.875 10.9375H3.12549C2.95973 10.9375 2.80076 11.0033 2.68355 11.1206C2.56634 11.2378 2.50049 11.3967 2.50049 11.5625C2.50049 11.7283 2.56634 11.8872 2.68355 12.0044C2.80076 12.1217 2.95973 12.1875 3.12549 12.1875H16.875C17.0408 12.1875 17.1998 12.1217 17.317 12.0044C17.4342 11.8872 17.5 11.7283 17.5 11.5625C17.5 11.3967 17.4342 11.2378 17.317 11.1206C17.1998 11.0033 17.0408 10.9375 16.875 10.9375Z" fill="white"/>
<path d="M16.875 14.0625H3.12549C2.95973 14.0625 2.80076 14.1283 2.68355 14.2456C2.56634 14.3628 2.50049 14.5217 2.50049 14.6875C2.50049 14.8533 2.56634 15.0122 2.68355 15.1294C2.80076 15.2467 2.95973 15.3125 3.12549 15.3125H16.875C17.0408 15.3125 17.1998 15.2467 17.317 15.1294C17.4342 15.0122 17.5 14.8533 17.5 14.6875C17.5 14.5217 17.4342 14.3628 17.317 14.2456C17.1998 14.1283 17.0408 14.0625 16.875 14.0625Z" fill="white"/>
</svg>
