<svg width="24" height="24" viewBox="0 0 24 24" fill="none" xmlns="http://www.w3.org/2000/svg">
<g id="Icon / Message Queue">
<g id="_x30_8">
<path id="Vector" d="M20.25 9.85648V7.5C20.25 6.25928 19.2407 5.25 18 5.25V3.75C18 2.50928 16.9907 1.5 15.75 1.5H8.25C7.00928 1.5 6 2.50928 6 3.75V5.25C4.75928 5.25 3.75 6.25928 3.75 7.5V9.85652C2.45979 10.192 1.5 11.3563 1.5 12.75V19.5C1.5 21.1542 2.84583 22.5 4.5 22.5H19.5C21.1545 22.5 22.5 21.1542 22.5 19.5V12.75C22.5 11.3562 21.5404 10.1919 20.25 9.85648ZM5.25 8.33862L8.07275 9.75H5.25V8.33862ZM19.5 11.25C19.8227 11.25 20.1202 11.3548 20.3652 11.5289L14.2991 15.7753C12.9441 16.7234 11.0559 16.7234 9.70093 15.7753L3.63474 11.5289C3.87973 11.3547 4.17714 11.25 4.5 11.25H19.5ZM18.75 8.33862V9.75H15.9272L18.75 8.33862ZM15.4578 5.25L16.5 4.62465V5.25H15.4578ZM15.75 3C15.8845 3 16.0041 3.04514 16.1133 3.10735L12.5422 5.25H11.4578L7.88676 3.10739C7.99599 3.04518 8.1156 3 8.25 3H15.75ZM7.5 4.62465L8.54224 5.25H7.5V4.62465ZM18 6.75C18.1335 6.75 18.2524 6.79449 18.3611 6.85583L12.5728 9.75H11.4272L5.63901 6.85588C5.74773 6.79449 5.86656 6.75 6 6.75H18ZM19.5 21H4.5C3.67273 21 3 20.3273 3 19.5V12.9155L8.84106 17.0043C9.77197 17.6558 10.8644 18 12 18C13.136 18 14.2288 17.6558 15.1589 17.0043L21 12.9155V19.5C21 20.3273 20.3269 21 19.5 21Z" fill="white"/>
</g>
</g>
</svg>
