<svg width="24" height="25" viewBox="0 0 24 25" fill="none" xmlns="http://www.w3.org/2000/svg">
<path d="M20.25 10.3565V8C20.25 6.75928 19.2407 5.75 18 5.75V4.25C18 3.00928 16.9907 2 15.75 2H8.25C7.00928 2 6 3.00928 6 4.25V5.75C4.75928 5.75 3.75 6.75928 3.75 8V10.3565C2.45979 10.692 1.5 11.8563 1.5 13.25V20C1.5 21.6542 2.84583 23 4.5 23H19.5C21.1545 23 22.5 21.6542 22.5 20V13.25C22.5 11.8562 21.5404 10.6919 20.25 10.3565ZM5.25 8.83862L8.07275 10.25H5.25V8.83862ZM19.5 11.75C19.8227 11.75 20.1202 11.8548 20.3652 12.0289L14.2991 16.2753C12.9441 17.2234 11.0559 17.2234 9.70093 16.2753L3.63474 12.0289C3.87973 11.8547 4.17714 11.75 4.5 11.75H19.5ZM18.75 8.83862V10.25H15.9272L18.75 8.83862ZM15.4578 5.75L16.5 5.12465V5.75H15.4578ZM15.75 3.5C15.8845 3.5 16.0041 3.54514 16.1133 3.60735L12.5422 5.75H11.4578L7.88676 3.60739C7.99599 3.54518 8.1156 3.5 8.25 3.5H15.75ZM7.5 5.12465L8.54224 5.75H7.5V5.12465ZM18 7.25C18.1335 7.25 18.2524 7.29449 18.3611 7.35583L12.5728 10.25H11.4272L5.63901 7.35588C5.74773 7.29449 5.86656 7.25 6 7.25H18ZM4.5 21.5C3.67273 21.5 3 20.8273 3 20V13.4155L8.84106 17.5043C9.77197 18.1558 10.8644 18.5 12 18.5C13.136 18.5 14.2288 18.1558 15.1589 17.5043L21 13.4155V20C21 20.8273 20.3269 21.5 19.5 21.5H4.5Z" fill="currentColor"/>
<path d="M20.25 10.3565V8C20.25 6.75928 19.2407 5.75 18 5.75V4.25C18 3.00928 16.9907 2 15.75 2H8.25C7.00928 2 6 3.00928 6 4.25V5.75C4.75928 5.75 3.75 6.75928 3.75 8V10.3565C2.45979 10.692 1.5 11.8563 1.5 13.25V20C1.5 21.6542 2.84583 23 4.5 23H19.5C21.1545 23 22.5 21.6542 22.5 20V13.25C22.5 11.8562 21.5404 10.6919 20.25 10.3565ZM5.25 8.83862L8.07275 10.25H5.25V8.83862ZM19.5 11.75C19.8227 11.75 20.1202 11.8548 20.3652 12.0289L14.2991 16.2753C12.9441 17.2234 11.0559 17.2234 9.70093 16.2753L3.63474 12.0289C3.87973 11.8547 4.17714 11.75 4.5 11.75H19.5ZM18.75 8.83862V10.25H15.9272L18.75 8.83862ZM15.4578 5.75L16.5 5.12465V5.75H15.4578ZM15.75 3.5C15.8845 3.5 16.0041 3.54514 16.1133 3.60735L12.5422 5.75H11.4578L7.88676 3.60739C7.99599 3.54518 8.1156 3.5 8.25 3.5H15.75ZM7.5 5.12465L8.54224 5.75H7.5V5.12465ZM18 7.25C18.1335 7.25 18.2524 7.29449 18.3611 7.35583L12.5728 10.25H11.4272L5.63901 7.35588C5.74773 7.29449 5.86656 7.25 6 7.25H18ZM4.5 21.5C3.67273 21.5 3 20.8273 3 20V13.4155L8.84106 17.5043C9.77197 18.1558 10.8644 18.5 12 18.5C13.136 18.5 14.2288 18.1558 15.1589 17.5043L21 13.4155V20C21 20.8273 20.3269 21.5 19.5 21.5H4.5Z" stroke="currentColor"/>
</svg>
