<svg width="24" height="20" viewBox="0 0 24 20" fill="none" xmlns="http://www.w3.org/2000/svg">
    <mask id="path-1-outside-1_1632_24505" maskUnits="userSpaceOnUse" x="-0.199219" y="-0.036377" width="24" height="20" fill="black">
        <rect fill="white" x="-0.199219" y="-0.036377" width="24" height="20"/>
        <path d="M7.36813 11.4479L8.54755 10.2828C8.58407 10.2467 8.61311 10.2038 8.633 10.1565C8.65289 10.1092 8.66323 10.0584 8.66344 10.0071C8.66357 9.95569 8.65353 9.9048 8.63389 9.85733C8.61425 9.80986 8.58541 9.76674 8.54903 9.73048L7.36973 8.55204L6.81237 9.10277L7.31817 9.60857H5.51877V10.3899H7.32467L6.81396 10.8941L7.36825 11.448L7.36813 11.4479ZM16.3688 11.4835L17.9412 10.3109C17.9897 10.2746 18.0292 10.2275 18.0564 10.1734C18.0836 10.1192 18.0979 10.0595 18.0981 9.99884C18.098 9.93805 18.0837 9.87812 18.0564 9.8238C18.0291 9.76949 17.9895 9.72227 17.9408 9.68591L16.3684 8.51497L15.8966 9.13985L16.5256 9.60857H14.9532V10.3899H16.5252L15.8963 10.8586L16.3688 11.4835ZM9.91824 9.99921C9.91824 10.8285 9.77473 11.6104 9.50673 12.2908C10.2139 12.019 11.0115 11.8831 11.8084 11.8831C12.6051 11.8831 13.4027 12.019 14.1095 12.2908C13.8419 11.6104 13.6984 10.8285 13.6984 9.99921C13.6984 9.16993 13.8419 8.38852 14.1096 7.70766C12.6956 8.2509 10.9211 8.2509 9.50673 7.70766C9.77473 8.3884 9.91824 9.16993 9.91824 9.99921ZM7.99252 13.7907C7.95599 13.7546 7.92698 13.7116 7.90719 13.6642C7.88739 13.6168 7.87719 13.5659 7.87719 13.5146C7.87719 13.4632 7.88739 13.4123 7.90719 13.3649C7.92698 13.3175 7.95599 13.2745 7.99252 13.2384C8.70604 12.5294 9.13217 11.3183 9.13217 9.99921C9.13217 8.68021 8.70604 7.469 7.99252 6.76003C7.95599 6.72391 7.92698 6.68091 7.90719 6.6335C7.88739 6.5861 7.87719 6.53524 7.87719 6.48386C7.87719 6.43249 7.88739 6.38163 7.90719 6.33423C7.92698 6.28682 7.95599 6.24382 7.99252 6.2077C8.06642 6.13432 8.16633 6.09314 8.27047 6.09314C8.37461 6.09314 8.47452 6.13432 8.54841 6.2077C10.0717 7.72128 13.5451 7.72128 15.0686 6.2077C15.1424 6.13436 15.2423 6.0932 15.3464 6.0932C15.4505 6.0932 15.5504 6.13436 15.6243 6.2077C15.6609 6.24382 15.6899 6.28682 15.7097 6.33423C15.7295 6.38163 15.7397 6.43249 15.7397 6.48386C15.7397 6.53524 15.7295 6.5861 15.7097 6.6335C15.6899 6.68091 15.6609 6.72391 15.6243 6.76003C14.9108 7.469 14.4847 8.68009 14.4847 9.99921C14.4847 11.3182 14.9108 12.5294 15.6243 13.2384C15.6609 13.2745 15.6899 13.3175 15.7097 13.3649C15.7295 13.4123 15.7397 13.4632 15.7397 13.5146C15.7397 13.5659 15.7295 13.6168 15.7097 13.6642C15.6899 13.7116 15.6609 13.7546 15.6243 13.7907C15.5505 13.8642 15.4505 13.9053 15.3464 13.9051C15.2457 13.9051 15.145 13.8668 15.0684 13.7907C13.5451 12.2771 10.0717 12.2771 8.54841 13.7907C8.47452 13.8641 8.37461 13.9053 8.27047 13.9053C8.16633 13.9053 8.06642 13.8641 7.99252 13.7907ZM22.0154 10.0012C22.0154 9.63717 21.8728 9.29502 21.6137 9.03746C21.356 8.78141 21.0072 8.63816 20.6439 8.63921C20.2928 8.63921 19.9414 8.77155 19.674 9.03758C19.1391 9.56879 19.1391 10.4332 19.674 10.9648C20.2087 11.496 21.0782 11.4963 21.6137 10.9648C21.7414 10.8389 21.8426 10.6888 21.9116 10.5233C21.9805 10.3579 22.0159 10.1803 22.0154 10.0011V10.0012ZM22.1695 11.5171C21.7489 11.935 21.1966 12.1439 20.6439 12.1439C20.0912 12.1439 19.539 11.935 19.1183 11.5171C18.2766 10.6812 18.2766 9.32117 19.1183 8.48526C19.96 7.64861 21.3287 7.64934 22.1695 8.48526C23.0112 9.32117 23.0112 10.6812 22.1695 11.5171ZM4.32867 10.0101C4.32867 9.64614 4.18602 9.30399 3.92698 9.04655C3.79956 8.91942 3.6483 8.81872 3.48186 8.75021C3.31543 8.68169 3.1371 8.64673 2.95712 8.64731C2.77715 8.6468 2.59884 8.6818 2.43242 8.75031C2.26599 8.81882 2.11472 8.91948 1.98726 9.04655C1.8597 9.17247 1.75851 9.32254 1.6896 9.48801C1.6207 9.65348 1.58546 9.83102 1.58594 10.0103C1.58558 10.1895 1.62089 10.3669 1.68981 10.5323C1.75874 10.6978 1.85989 10.8478 1.98738 10.9737C2.50583 11.4881 3.40878 11.4881 3.92698 10.9737C4.05452 10.8478 4.15572 10.6977 4.22469 10.5323C4.29365 10.3669 4.329 10.1894 4.32867 10.0101ZM4.48274 11.5261C4.06214 11.9439 3.50982 12.1529 2.95712 12.1529C2.40479 12.1529 1.85246 11.9439 1.4315 11.5261C0.590543 10.6901 0.590543 9.33013 1.4315 8.49422C2.27319 7.65843 3.64154 7.65843 4.48274 8.49422C5.32406 9.33013 5.32406 10.6901 4.48274 11.5261ZM17.6527 15.8354C16.0833 17.3951 13.9963 18.2536 11.7768 18.2536C9.55657 18.2536 7.47003 17.3951 5.9007 15.8354C4.8244 14.7663 4.23193 13.4887 3.92452 12.6057L3.18154 12.861C3.51608 13.8219 4.16281 15.2136 5.34481 16.3877C7.06269 18.095 9.34664 19.0348 11.7768 19.0348C14.2066 19.0348 16.4906 18.095 18.2086 16.3877C19.2011 15.4023 19.9916 14.1493 20.4354 12.8599L19.6917 12.6068C19.286 13.7856 18.5619 14.9324 17.6526 15.8355L17.6527 15.8354ZM3.92403 7.39313L3.18191 7.13692C3.6575 5.77618 4.42639 4.5231 5.34714 3.60862C7.06428 1.90315 9.3475 0.963623 11.7768 0.963623C14.2064 0.963623 16.4895 1.90303 18.2061 3.60874C19.1751 4.57147 19.9877 5.85733 20.4347 7.13704L19.6924 7.39313C19.2824 6.22145 18.5383 5.04339 17.6502 4.16107C16.0821 2.60255 13.9959 1.74478 11.7768 1.74478C9.55743 1.74478 7.47162 2.60255 5.90303 4.16107C5.06503 4.99416 4.36206 6.14214 3.92415 7.39313H3.92403Z"/>
    </mask>
    <path d="M7.36813 11.4479L8.54755 10.2828C8.58407 10.2467 8.61311 10.2038 8.633 10.1565C8.65289 10.1092 8.66323 10.0584 8.66344 10.0071C8.66357 9.95569 8.65353 9.9048 8.63389 9.85733C8.61425 9.80986 8.58541 9.76674 8.54903 9.73048L7.36973 8.55204L6.81237 9.10277L7.31817 9.60857H5.51877V10.3899H7.32467L6.81396 10.8941L7.36825 11.448L7.36813 11.4479ZM16.3688 11.4835L17.9412 10.3109C17.9897 10.2746 18.0292 10.2275 18.0564 10.1734C18.0836 10.1192 18.0979 10.0595 18.0981 9.99884C18.098 9.93805 18.0837 9.87812 18.0564 9.8238C18.0291 9.76949 17.9895 9.72227 17.9408 9.68591L16.3684 8.51497L15.8966 9.13985L16.5256 9.60857H14.9532V10.3899H16.5252L15.8963 10.8586L16.3688 11.4835ZM9.91824 9.99921C9.91824 10.8285 9.77473 11.6104 9.50673 12.2908C10.2139 12.019 11.0115 11.8831 11.8084 11.8831C12.6051 11.8831 13.4027 12.019 14.1095 12.2908C13.8419 11.6104 13.6984 10.8285 13.6984 9.99921C13.6984 9.16993 13.8419 8.38852 14.1096 7.70766C12.6956 8.2509 10.9211 8.2509 9.50673 7.70766C9.77473 8.3884 9.91824 9.16993 9.91824 9.99921ZM7.99252 13.7907C7.95599 13.7546 7.92698 13.7116 7.90719 13.6642C7.88739 13.6168 7.87719 13.5659 7.87719 13.5146C7.87719 13.4632 7.88739 13.4123 7.90719 13.3649C7.92698 13.3175 7.95599 13.2745 7.99252 13.2384C8.70604 12.5294 9.13217 11.3183 9.13217 9.99921C9.13217 8.68021 8.70604 7.469 7.99252 6.76003C7.95599 6.72391 7.92698 6.68091 7.90719 6.6335C7.88739 6.5861 7.87719 6.53524 7.87719 6.48386C7.87719 6.43249 7.88739 6.38163 7.90719 6.33423C7.92698 6.28682 7.95599 6.24382 7.99252 6.2077C8.06642 6.13432 8.16633 6.09314 8.27047 6.09314C8.37461 6.09314 8.47452 6.13432 8.54841 6.2077C10.0717 7.72128 13.5451 7.72128 15.0686 6.2077C15.1424 6.13436 15.2423 6.0932 15.3464 6.0932C15.4505 6.0932 15.5504 6.13436 15.6243 6.2077C15.6609 6.24382 15.6899 6.28682 15.7097 6.33423C15.7295 6.38163 15.7397 6.43249 15.7397 6.48386C15.7397 6.53524 15.7295 6.5861 15.7097 6.6335C15.6899 6.68091 15.6609 6.72391 15.6243 6.76003C14.9108 7.469 14.4847 8.68009 14.4847 9.99921C14.4847 11.3182 14.9108 12.5294 15.6243 13.2384C15.6609 13.2745 15.6899 13.3175 15.7097 13.3649C15.7295 13.4123 15.7397 13.4632 15.7397 13.5146C15.7397 13.5659 15.7295 13.6168 15.7097 13.6642C15.6899 13.7116 15.6609 13.7546 15.6243 13.7907C15.5505 13.8642 15.4505 13.9053 15.3464 13.9051C15.2457 13.9051 15.145 13.8668 15.0684 13.7907C13.5451 12.2771 10.0717 12.2771 8.54841 13.7907C8.47452 13.8641 8.37461 13.9053 8.27047 13.9053C8.16633 13.9053 8.06642 13.8641 7.99252 13.7907ZM22.0154 10.0012C22.0154 9.63717 21.8728 9.29502 21.6137 9.03746C21.356 8.78141 21.0072 8.63816 20.6439 8.63921C20.2928 8.63921 19.9414 8.77155 19.674 9.03758C19.1391 9.56879 19.1391 10.4332 19.674 10.9648C20.2087 11.496 21.0782 11.4963 21.6137 10.9648C21.7414 10.8389 21.8426 10.6888 21.9116 10.5233C21.9805 10.3579 22.0159 10.1803 22.0154 10.0011V10.0012ZM22.1695 11.5171C21.7489 11.935 21.1966 12.1439 20.6439 12.1439C20.0912 12.1439 19.539 11.935 19.1183 11.5171C18.2766 10.6812 18.2766 9.32117 19.1183 8.48526C19.96 7.64861 21.3287 7.64934 22.1695 8.48526C23.0112 9.32117 23.0112 10.6812 22.1695 11.5171ZM4.32867 10.0101C4.32867 9.64614 4.18602 9.30399 3.92698 9.04655C3.79956 8.91942 3.6483 8.81872 3.48186 8.75021C3.31543 8.68169 3.1371 8.64673 2.95712 8.64731C2.77715 8.6468 2.59884 8.6818 2.43242 8.75031C2.26599 8.81882 2.11472 8.91948 1.98726 9.04655C1.8597 9.17247 1.75851 9.32254 1.6896 9.48801C1.6207 9.65348 1.58546 9.83102 1.58594 10.0103C1.58558 10.1895 1.62089 10.3669 1.68981 10.5323C1.75874 10.6978 1.85989 10.8478 1.98738 10.9737C2.50583 11.4881 3.40878 11.4881 3.92698 10.9737C4.05452 10.8478 4.15572 10.6977 4.22469 10.5323C4.29365 10.3669 4.329 10.1894 4.32867 10.0101ZM4.48274 11.5261C4.06214 11.9439 3.50982 12.1529 2.95712 12.1529C2.40479 12.1529 1.85246 11.9439 1.4315 11.5261C0.590543 10.6901 0.590543 9.33013 1.4315 8.49422C2.27319 7.65843 3.64154 7.65843 4.48274 8.49422C5.32406 9.33013 5.32406 10.6901 4.48274 11.5261ZM17.6527 15.8354C16.0833 17.3951 13.9963 18.2536 11.7768 18.2536C9.55657 18.2536 7.47003 17.3951 5.9007 15.8354C4.8244 14.7663 4.23193 13.4887 3.92452 12.6057L3.18154 12.861C3.51608 13.8219 4.16281 15.2136 5.34481 16.3877C7.06269 18.095 9.34664 19.0348 11.7768 19.0348C14.2066 19.0348 16.4906 18.095 18.2086 16.3877C19.2011 15.4023 19.9916 14.1493 20.4354 12.8599L19.6917 12.6068C19.286 13.7856 18.5619 14.9324 17.6526 15.8355L17.6527 15.8354ZM3.92403 7.39313L3.18191 7.13692C3.6575 5.77618 4.42639 4.5231 5.34714 3.60862C7.06428 1.90315 9.3475 0.963623 11.7768 0.963623C14.2064 0.963623 16.4895 1.90303 18.2061 3.60874C19.1751 4.57147 19.9877 5.85733 20.4347 7.13704L19.6924 7.39313C19.2824 6.22145 18.5383 5.04339 17.6502 4.16107C16.0821 2.60255 13.9959 1.74478 11.7768 1.74478C9.55743 1.74478 7.47162 2.60255 5.90303 4.16107C5.06503 4.99416 4.36206 6.14214 3.92415 7.39313H3.92403Z" fill="currentColor"/>
    <path d="M7.36813 11.4479L8.54755 10.2828C8.58407 10.2467 8.61311 10.2038 8.633 10.1565C8.65289 10.1092 8.66323 10.0584 8.66344 10.0071C8.66357 9.95569 8.65353 9.9048 8.63389 9.85733C8.61425 9.80986 8.58541 9.76674 8.54903 9.73048L7.36973 8.55204L6.81237 9.10277L7.31817 9.60857H5.51877V10.3899H7.32467L6.81396 10.8941L7.36825 11.448L7.36813 11.4479ZM16.3688 11.4835L17.9412 10.3109C17.9897 10.2746 18.0292 10.2275 18.0564 10.1734C18.0836 10.1192 18.0979 10.0595 18.0981 9.99884C18.098 9.93805 18.0837 9.87812 18.0564 9.8238C18.0291 9.76949 17.9895 9.72227 17.9408 9.68591L16.3684 8.51497L15.8966 9.13985L16.5256 9.60857H14.9532V10.3899H16.5252L15.8963 10.8586L16.3688 11.4835ZM9.91824 9.99921C9.91824 10.8285 9.77473 11.6104 9.50673 12.2908C10.2139 12.019 11.0115 11.8831 11.8084 11.8831C12.6051 11.8831 13.4027 12.019 14.1095 12.2908C13.8419 11.6104 13.6984 10.8285 13.6984 9.99921C13.6984 9.16993 13.8419 8.38852 14.1096 7.70766C12.6956 8.2509 10.9211 8.2509 9.50673 7.70766C9.77473 8.3884 9.91824 9.16993 9.91824 9.99921ZM7.99252 13.7907C7.95599 13.7546 7.92698 13.7116 7.90719 13.6642C7.88739 13.6168 7.87719 13.5659 7.87719 13.5146C7.87719 13.4632 7.88739 13.4123 7.90719 13.3649C7.92698 13.3175 7.95599 13.2745 7.99252 13.2384C8.70604 12.5294 9.13217 11.3183 9.13217 9.99921C9.13217 8.68021 8.70604 7.469 7.99252 6.76003C7.95599 6.72391 7.92698 6.68091 7.90719 6.6335C7.88739 6.5861 7.87719 6.53524 7.87719 6.48386C7.87719 6.43249 7.88739 6.38163 7.90719 6.33423C7.92698 6.28682 7.95599 6.24382 7.99252 6.2077C8.06642 6.13432 8.16633 6.09314 8.27047 6.09314C8.37461 6.09314 8.47452 6.13432 8.54841 6.2077C10.0717 7.72128 13.5451 7.72128 15.0686 6.2077C15.1424 6.13436 15.2423 6.0932 15.3464 6.0932C15.4505 6.0932 15.5504 6.13436 15.6243 6.2077C15.6609 6.24382 15.6899 6.28682 15.7097 6.33423C15.7295 6.38163 15.7397 6.43249 15.7397 6.48386C15.7397 6.53524 15.7295 6.5861 15.7097 6.6335C15.6899 6.68091 15.6609 6.72391 15.6243 6.76003C14.9108 7.469 14.4847 8.68009 14.4847 9.99921C14.4847 11.3182 14.9108 12.5294 15.6243 13.2384C15.6609 13.2745 15.6899 13.3175 15.7097 13.3649C15.7295 13.4123 15.7397 13.4632 15.7397 13.5146C15.7397 13.5659 15.7295 13.6168 15.7097 13.6642C15.6899 13.7116 15.6609 13.7546 15.6243 13.7907C15.5505 13.8642 15.4505 13.9053 15.3464 13.9051C15.2457 13.9051 15.145 13.8668 15.0684 13.7907C13.5451 12.2771 10.0717 12.2771 8.54841 13.7907C8.47452 13.8641 8.37461 13.9053 8.27047 13.9053C8.16633 13.9053 8.06642 13.8641 7.99252 13.7907ZM22.0154 10.0012C22.0154 9.63717 21.8728 9.29502 21.6137 9.03746C21.356 8.78141 21.0072 8.63816 20.6439 8.63921C20.2928 8.63921 19.9414 8.77155 19.674 9.03758C19.1391 9.56879 19.1391 10.4332 19.674 10.9648C20.2087 11.496 21.0782 11.4963 21.6137 10.9648C21.7414 10.8389 21.8426 10.6888 21.9116 10.5233C21.9805 10.3579 22.0159 10.1803 22.0154 10.0011V10.0012ZM22.1695 11.5171C21.7489 11.935 21.1966 12.1439 20.6439 12.1439C20.0912 12.1439 19.539 11.935 19.1183 11.5171C18.2766 10.6812 18.2766 9.32117 19.1183 8.48526C19.96 7.64861 21.3287 7.64934 22.1695 8.48526C23.0112 9.32117 23.0112 10.6812 22.1695 11.5171ZM4.32867 10.0101C4.32867 9.64614 4.18602 9.30399 3.92698 9.04655C3.79956 8.91942 3.6483 8.81872 3.48186 8.75021C3.31543 8.68169 3.1371 8.64673 2.95712 8.64731C2.77715 8.6468 2.59884 8.6818 2.43242 8.75031C2.26599 8.81882 2.11472 8.91948 1.98726 9.04655C1.8597 9.17247 1.75851 9.32254 1.6896 9.48801C1.6207 9.65348 1.58546 9.83102 1.58594 10.0103C1.58558 10.1895 1.62089 10.3669 1.68981 10.5323C1.75874 10.6978 1.85989 10.8478 1.98738 10.9737C2.50583 11.4881 3.40878 11.4881 3.92698 10.9737C4.05452 10.8478 4.15572 10.6977 4.22469 10.5323C4.29365 10.3669 4.329 10.1894 4.32867 10.0101ZM4.48274 11.5261C4.06214 11.9439 3.50982 12.1529 2.95712 12.1529C2.40479 12.1529 1.85246 11.9439 1.4315 11.5261C0.590543 10.6901 0.590543 9.33013 1.4315 8.49422C2.27319 7.65843 3.64154 7.65843 4.48274 8.49422C5.32406 9.33013 5.32406 10.6901 4.48274 11.5261ZM17.6527 15.8354C16.0833 17.3951 13.9963 18.2536 11.7768 18.2536C9.55657 18.2536 7.47003 17.3951 5.9007 15.8354C4.8244 14.7663 4.23193 13.4887 3.92452 12.6057L3.18154 12.861C3.51608 13.8219 4.16281 15.2136 5.34481 16.3877C7.06269 18.095 9.34664 19.0348 11.7768 19.0348C14.2066 19.0348 16.4906 18.095 18.2086 16.3877C19.2011 15.4023 19.9916 14.1493 20.4354 12.8599L19.6917 12.6068C19.286 13.7856 18.5619 14.9324 17.6526 15.8355L17.6527 15.8354ZM3.92403 7.39313L3.18191 7.13692C3.6575 5.77618 4.42639 4.5231 5.34714 3.60862C7.06428 1.90315 9.3475 0.963623 11.7768 0.963623C14.2064 0.963623 16.4895 1.90303 18.2061 3.60874C19.1751 4.57147 19.9877 5.85733 20.4347 7.13704L19.6924 7.39313C19.2824 6.22145 18.5383 5.04339 17.6502 4.16107C16.0821 2.60255 13.9959 1.74478 11.7768 1.74478C9.55743 1.74478 7.47162 2.60255 5.90303 4.16107C5.06503 4.99416 4.36206 6.14214 3.92415 7.39313H3.92403Z" stroke="currentColor" stroke-width="0.6" mask="url(#path-1-outside-1_1632_24505)"/>
</svg>
