<svg width="154" height="126" viewBox="0 0 154 126" fill="none" xmlns="http://www.w3.org/2000/svg">
    <path d="M13.3789 12.3804H152.799V107.96C152.799 111.49 149.939 114.35 146.409 114.35H19.7789C16.2489 114.35 13.3889 111.49 13.3889 107.96V12.3804H13.3789Z" fill="#191C28" stroke="#677393" stroke-width="2" stroke-linecap="round" stroke-linejoin="round"/>
    <path d="M48.8711 11.8403V113.83" stroke="#BDBFC1" stroke-width="2" stroke-miterlimit="10" stroke-linecap="round"/>
    <path d="M83.0898 11.6401V114" stroke="#BDBFC1" stroke-width="2" stroke-miterlimit="10" stroke-linecap="round"/>
    <path d="M118.973 11.6401V113.63" stroke="#BDBFC1" stroke-width="2" stroke-miterlimit="10" stroke-linecap="round"/>
    <path d="M19.7189 1.7002H146.459C149.959 1.7002 152.799 4.54019 152.799 8.04019V14.0802H13.3789V8.04019C13.3789 4.54019 16.2189 1.7002 19.7189 1.7002Z" fill="url(#paint0_linear_1966_167645)" stroke="#677393" stroke-width="2" stroke-linecap="round" stroke-linejoin="round"/>
    <path d="M14.0195 39.1504H151.46" stroke="#677393" stroke-width="2" stroke-miterlimit="10" stroke-linecap="round"/>
    <path d="M13.8125 64.2202H152.402" stroke="#677393" stroke-width="2" stroke-miterlimit="10" stroke-linecap="round"/>
    <path d="M13.3008 88.6101H152.181" stroke="#677393" stroke-width="2" stroke-miterlimit="10" stroke-linecap="round"/>
    <path d="M1.37109 22.6802H140.791V118.26C140.791 121.79 137.931 124.65 134.401 124.65H7.7711C4.2411 124.65 1.3811 121.79 1.3811 118.26V22.6802H1.37109Z" fill="#191C28" stroke="#949AB3" stroke-width="2" stroke-linecap="round" stroke-linejoin="round"/>
    <path d="M36.8594 22.1299V124.13" stroke="#949AB3" stroke-width="2" stroke-miterlimit="10" stroke-linecap="round"/>
    <path d="M71.082 21.9399V124.3" stroke="#949AB3" stroke-width="2" stroke-miterlimit="10" stroke-linecap="round"/>
    <path d="M106.961 21.9399V123.93" stroke="#949AB3" stroke-width="2" stroke-miterlimit="10" stroke-linecap="round"/>
    <path d="M7.71111 12H134.451C137.951 12 140.791 14.84 140.791 18.34V24.38H1.37109V18.34C1.37109 14.84 4.21111 12 7.71111 12Z" fill="url(#paint1_linear_1966_167645)" stroke="#949AB3" stroke-width="2" stroke-linecap="round" stroke-linejoin="round"/>
    <path d="M2.01172 49.4399H139.462" stroke="#949AB3" stroke-width="2" stroke-miterlimit="10" stroke-linecap="round"/>
    <path d="M1.8125 74.52H140.393" stroke="#949AB3" stroke-width="2" stroke-miterlimit="10" stroke-linecap="round"/>
    <path d="M1.30078 98.9099H140.171" stroke="#949AB3" stroke-width="2" stroke-miterlimit="10" stroke-linecap="round"/>
    <defs>
        <linearGradient id="paint0_linear_1966_167645" x1="53.9089" y1="-65.7297" x2="118.919" y2="104.03" gradientUnits="userSpaceOnUse">
            <stop stop-color="#3770F3"/>
            <stop offset="0.05" stop-color="#3468E0"/>
            <stop offset="0.23" stop-color="#2C51A8"/>
            <stop offset="0.4" stop-color="#253E7A"/>
            <stop offset="0.56" stop-color="#1F2F56"/>
            <stop offset="0.71" stop-color="#1C243D"/>
            <stop offset="0.85" stop-color="#191E2D"/>
            <stop offset="0.96" stop-color="#191C28"/>
        </linearGradient>
        <linearGradient id="paint1_linear_1966_167645" x1="41.9011" y1="-55.43" x2="106.911" y2="114.33" gradientUnits="userSpaceOnUse">
            <stop stop-color="#3770F3"/>
            <stop offset="0.18" stop-color="#2D54B1"/>
            <stop offset="0.35" stop-color="#243C76"/>
            <stop offset="0.5" stop-color="#1E2A4B"/>
            <stop offset="0.62" stop-color="#1A2031"/>
            <stop offset="0.68" stop-color="#191C28"/>
        </linearGradient>
    </defs>
</svg>
