<svg width="20" height="24" viewBox="0 0 20 24" fill="none" xmlns="http://www.w3.org/2000/svg">
    <path d="M4.63437 5.71423C4.63437 8.64384 6.99666 11.0286 9.90232 11.0286C12.808 11.0286 15.1703 8.64384 15.1703 5.71423C15.1703 2.78462 12.8078 0.4 9.90232 0.4C6.99685 0.4 4.63437 2.78462 4.63437 5.71423ZM5.56529 5.71423C5.56529 3.29636 7.51204 1.3309 9.90232 1.3309C12.293 1.3309 14.2395 3.29636 14.2394 5.71423C14.2394 8.13229 12.2928 10.0977 9.90232 10.0977C7.51205 10.0977 5.56529 8.13229 5.56529 5.71423Z" fill="currentColor" stroke="currentColor" stroke-width="0.2"/>
    <path d="M8.11468 4.581C8.33403 4.4873 8.58691 4.60159 8.66183 4.82823L8.66184 4.82825C8.72922 5.03229 8.62663 5.25361 8.42749 5.33402L7.85674 5.56448L6.89309 6.02706M8.11468 4.581L8.11475 4.58097L8.15396 4.67296L8.11468 4.581ZM8.11468 4.581L6.89312 5.10166L6.89299 5.10172C6.70779 5.18096 6.5875 5.36287 6.5875 5.56445C6.5875 5.76572 6.70767 5.94813 6.89309 6.02706M6.89309 6.02706L6.93232 5.93508L6.89318 6.02709M6.89309 6.02706L6.89318 6.02709M6.89318 6.02709L8.11445 6.54807L8.15378 6.45613M6.89318 6.02709L8.11451 6.54809L8.11455 6.54811L8.15378 6.45613M8.15378 6.45613C8.31938 6.52697 8.51032 6.4406 8.5667 6.26965L8.15378 6.45613Z" fill="currentColor" stroke="currentColor" stroke-width="0.2"/>
    <path d="M10.7134 4.50296C10.8012 4.24763 10.6115 3.98179 10.3415 3.98179C10.1737 3.98179 10.0247 4.0883 9.96977 4.24628L9.96971 4.24645L9.05465 6.89166L9.05464 6.8917C8.96636 7.14718 9.15588 7.41354 9.42646 7.41354H9.43217C9.60019 7.41354 9.74942 7.3068 9.80417 7.14829L9.80422 7.14815L10.7134 4.50296ZM10.7134 4.50296L10.6188 4.47043M10.7134 4.50296L10.7134 4.50294L10.6188 4.47043M10.6188 4.47043C10.6843 4.28004 10.5428 4.08179 10.3415 4.08179C10.2164 4.08179 10.1053 4.16119 10.0642 4.27914L9.14915 6.92436L10.6188 4.47043Z" fill="currentColor" stroke="currentColor" stroke-width="0.2"/>
    <path d="M12.9039 6.02683C13.0895 5.94774 13.2096 5.76552 13.2096 5.56421C13.2096 5.36268 13.0895 5.18072 12.904 5.10146L12.904 5.10142L11.6827 4.58074C11.6827 4.58074 11.6827 4.58073 11.6827 4.58073C11.4631 4.48705 11.2107 4.60142 11.1356 4.82789L11.1356 4.82789L12.8647 5.93483M12.9039 6.02683L12.8647 5.93483M12.9039 6.02683L12.904 6.02681L12.8647 5.93483M12.9039 6.02683L11.6827 6.54784L11.6435 6.45588M12.8647 5.93483L11.6435 6.45588M11.6435 6.45588L11.6827 6.54786M11.6435 6.45588L11.6827 6.54786M11.6827 6.54786C11.463 6.64172 11.2103 6.52721 11.1354 6.30083L11.1304 6.28553V6.28413M11.6827 6.54786L11.2304 6.26941V6.26923M11.1304 6.28413C11.1319 6.2896 11.1336 6.29505 11.1354 6.30049L11.2298 6.26941L11.2304 6.26923M11.1304 6.28413V6.26941V6.26923H11.2304M11.1304 6.28413L11.4075 5.24105L11.3701 5.33378C11.3701 5.33378 11.3701 5.33379 11.3701 5.33379L11.9407 5.56423L11.37 5.79481L11.3699 5.79483L11.4074 5.88755M11.2304 6.26923C11.1797 6.11524 11.2569 5.94822 11.4074 5.88755M11.4074 5.88755L12.0742 5.61814L11.4074 5.88755Z" fill="currentColor" stroke="currentColor" stroke-width="0.2"/>
    <path d="M11.9346 13.53L11.9347 13.53C12.1293 13.8447 12.4663 14.0331 12.8354 14.0332C12.8354 14.0332 12.8354 14.0332 12.8354 14.0332L18.4371 14.0337C18.7919 14.0337 19.1217 13.8566 19.3187 13.5603C19.5542 13.2064 19.5579 12.7464 19.3278 12.3887L17.2189 9.10862L17.2189 9.10853C17.1332 8.97562 16.986 8.89519 16.8279 8.89497L16.8278 8.89497L13.0699 8.89158H13.0699H13.0695C12.8127 8.89158 12.6043 9.09973 12.604 9.35658C12.6038 9.61388 12.8123 9.82225 13.0692 9.82247L16.5734 9.82564L18.5446 12.892C18.5747 12.9389 18.5741 12.9987 18.5436 13.0446L18.5435 13.0447C18.519 13.0816 18.479 13.1028 18.4371 13.1028L12.8354 13.1023H12.8354C12.7917 13.1023 12.7512 13.0801 12.7265 13.0403C12.7264 13.0403 12.7264 13.0402 12.7264 13.0402L11.0114 10.2648L11.0114 10.2648C10.8765 10.0467 10.5898 9.97887 10.371 10.1138C10.1521 10.2488 10.0844 10.5357 10.2196 10.7545L10.2196 10.7545L11.9346 13.53Z" fill="currentColor" stroke="currentColor" stroke-width="0.2"/>
    <path d="M0.477364 13.5573L0.477346 13.5573C0.242119 13.2033 0.238591 12.7436 0.46828 12.386L0.468305 12.3859L2.57717 9.10581L2.57723 9.10572C2.66281 8.97292 2.8098 8.89221 2.96824 8.89198L2.9683 8.89198L6.73242 8.88877L6.73251 8.88877L6.73269 8.88877C6.98951 8.88877 7.19791 9.09693 7.19814 9.35377C7.19837 9.61065 6.98999 9.81944 6.73295 9.81967L3.22287 9.82265L1.25151 12.8891C1.25151 12.8891 1.2515 12.8891 1.25149 12.8891C1.22148 12.9359 1.22198 12.9958 1.25258 13.0418L0.477364 13.5573ZM0.477364 13.5573C0.674425 13.8536 1.00396 14.0309 1.35899 14.0309L6.9611 14.0305H6.9612C7.33013 14.0301 7.66705 13.8419 7.86134 13.5269L9.57562 10.7529L9.57562 10.7529C9.71084 10.5341 9.64291 10.2473 9.42429 10.1123C9.2058 9.97725 8.91906 10.045 8.78385 10.2632L8.78378 10.2633M0.477364 13.5573L8.78378 10.2633M8.78378 10.2633L7.06949 13.0376L8.78378 10.2633ZM1.35899 13.1C1.31714 13.1 1.27726 13.0789 1.2526 13.0419L7.06946 13.0377C7.04493 13.0773 7.00409 13.0996 6.96074 13.0996L1.35899 13.1Z" fill="currentColor" stroke="currentColor" stroke-width="0.2"/>
    <path d="M10.3661 22.3265V10.5628C10.3661 10.3058 10.1577 10.0974 9.90061 10.0974C9.64377 10.0974 9.43516 10.3058 9.43516 10.5628V22.792C9.43516 23.0488 9.64374 23.2574 9.90061 23.2574H16.3849C16.6875 23.2574 16.9826 23.1339 17.196 22.9186C17.4113 22.7013 17.5297 22.4124 17.5297 22.106V13.5642C17.5297 13.3072 17.3213 13.0988 17.0643 13.0988C16.8074 13.0988 16.5988 13.3071 16.5988 13.5642V22.106C16.5988 22.1662 16.576 22.2218 16.5347 22.2635L16.6057 22.3339L16.5347 22.2635C16.494 22.3046 16.4411 22.3265 16.3849 22.3265H10.3661Z" fill="currentColor" stroke="currentColor" stroke-width="0.2"/>
    <path d="M2.60872 22.9185L2.60875 22.9185C2.82213 23.1339 3.11729 23.2574 3.41997 23.2574H9.9036C10.1609 23.2574 10.369 23.0488 10.3692 22.792V22.792V10.5628C10.3692 10.3058 10.1608 10.0974 9.90377 10.0974C9.64694 10.0974 9.43832 10.3058 9.43832 10.5628V22.3265H3.41997C3.36373 22.3265 3.31078 22.3045 3.27037 22.2636L3.27026 22.2635C3.22886 22.2217 3.20591 22.1661 3.20591 22.106V13.564C3.20591 13.307 2.9975 13.0986 2.74046 13.0986C2.48362 13.0986 2.275 13.307 2.275 13.564V22.106C2.275 22.4126 2.39367 22.7013 2.60872 22.9185Z" fill="currentColor" stroke="currentColor" stroke-width="0.2"/>
</svg>
