<svg width="139" height="141" viewBox="0 0 139 141" fill="none" xmlns="http://www.w3.org/2000/svg">
<path d="M2.2002 51.5302L53.4702 5.34021C59.4802 -0.0697851 68.6002 -0.0697851 74.6002 5.34021L125.87 51.5302L64.0402 92.5202L2.2102 51.5302H2.2002Z" fill="white" stroke="#6B6D6E" stroke-width="2" stroke-linecap="round" stroke-linejoin="round"/>
<path d="M103.091 15.6904H22.8306C20.3342 15.6904 18.3105 17.7141 18.3105 20.2104V89.4404C18.3105 91.9368 20.3342 93.9604 22.8306 93.9604H103.091C105.587 93.9604 107.611 91.9368 107.611 89.4404V20.2104C107.611 17.7141 105.587 15.6904 103.091 15.6904Z" fill="white" stroke="#BDBFC1" stroke-width="2" stroke-linecap="round" stroke-linejoin="round"/>
<path d="M5.89008 132.56H122.81C124.42 132.41 125.49 131.83 126.2 131.11C127.56 129.75 127.11 127.41 125.49 126.37L7.65008 50.9303C5.92008 49.8203 3.53008 49.9504 2.21008 51.5204C1.50008 52.3604 1.08008 53.4403 1.08008 54.6203V127.73C1.08008 130.39 3.24008 132.55 5.90008 132.55L5.89008 132.56Z" fill="url(#paint0_linear_2091_185178)" stroke="#6B6D6E" stroke-width="2" stroke-linecap="round" stroke-linejoin="round"/>
<path d="M122.19 132.56H5.27043C3.66043 132.41 2.59043 131.83 1.88043 131.11C0.520432 129.75 0.970431 127.41 2.59043 126.37L120.43 50.9303C122.16 49.8203 124.55 49.9504 125.87 51.5204C126.58 52.3604 127 53.4403 127 54.6203V127.73C127 130.39 124.84 132.55 122.18 132.55L122.19 132.56Z" fill="white" stroke="#6B6D6E" stroke-width="2" stroke-linecap="round" stroke-linejoin="round"/>
<path d="M114.96 139.64C127.574 139.64 137.8 129.415 137.8 116.8C137.8 104.186 127.574 93.9604 114.96 93.9604C102.346 93.9604 92.1201 104.186 92.1201 116.8C92.1201 129.415 102.346 139.64 114.96 139.64Z" fill="white" stroke="#6B6D6E" stroke-width="2" stroke-linecap="round" stroke-linejoin="round"/>
<path d="M102.561 116.8L110.821 125.44L126.831 110.27" fill="white"/>
<path d="M102.561 116.8L110.821 125.44L126.831 110.27" stroke="#6B6D6E" stroke-width="2" stroke-linecap="round" stroke-linejoin="round"/>
<path d="M64.04 37.0801V51.7501" stroke="#BDBFC1" stroke-width="2" stroke-linecap="round" stroke-linejoin="round"/>
<path d="M70.3402 40.6602L57.7402 48.1702" stroke="#BDBFC1" stroke-width="2" stroke-linecap="round" stroke-linejoin="round"/>
<path d="M70.3005 48.2301L57.7705 40.6001" stroke="#BDBFC1" stroke-width="2" stroke-linecap="round" stroke-linejoin="round"/>
<path d="M86.3604 37.0801V51.7501" stroke="#BDBFC1" stroke-width="2" stroke-linecap="round" stroke-linejoin="round"/>
<path d="M92.6606 40.6602L80.0605 48.1702" stroke="#BDBFC1" stroke-width="2" stroke-linecap="round" stroke-linejoin="round"/>
<path d="M92.6208 48.2301L80.0908 40.6001" stroke="#BDBFC1" stroke-width="2" stroke-linecap="round" stroke-linejoin="round"/>
<path d="M41.7207 37.0801V51.7501" stroke="#BDBFC1" stroke-width="2" stroke-linecap="round" stroke-linejoin="round"/>
<path d="M48.0209 40.6602L35.4209 48.1702" stroke="#BDBFC1" stroke-width="2" stroke-linecap="round" stroke-linejoin="round"/>
<path d="M47.9812 48.2301L35.4512 40.6001" stroke="#BDBFC1" stroke-width="2" stroke-linecap="round" stroke-linejoin="round"/>
<defs>
<linearGradient id="paint0_linear_2091_185178" x1="-10.1199" y1="48.2003" x2="154.07" y2="226.53" gradientUnits="userSpaceOnUse">
<stop stop-color="white"/>
<stop offset="0.1" stop-color="#FAFAFA"/>
<stop offset="0.23" stop-color="#EBEBEB"/>
<stop offset="0.36" stop-color="#D3D3D3"/>
<stop offset="0.5" stop-color="#B1B1B1"/>
<stop offset="0.65" stop-color="#868686"/>
<stop offset="0.8" stop-color="#515151"/>
<stop offset="0.95" stop-color="#141414"/>
<stop offset="1"/>
</linearGradient>
</defs>
</svg>
