<svg width="24" height="14" viewBox="0 0 24 14" fill="none" xmlns="http://www.w3.org/2000/svg">
    <path d="M0.515625 12.7422C0.515625 6.39953 5.65734 1.25781 12 1.25781C18.3427 1.25781 23.4844 6.39953 23.4844 12.7422" stroke="currentColor" stroke-width="1.03125" stroke-miterlimit="10" stroke-linecap="round" stroke-linejoin="round"/>
    <path d="M0.515625 12.7422C0.515625 6.39953 5.65734 1.25781 12 1.25781C18.3427 1.25781 23.4844 6.39953 23.4844 12.7422H20.4324C20.4324 8.09256 16.6496 4.3098 12 4.3098C7.35037 4.3098 3.56761 8.09256 3.56761 12.7422H0.515625Z" stroke="currentColor" stroke-width="1.03125" stroke-miterlimit="10" stroke-linecap="round" stroke-linejoin="round"/>
    <path d="M12 1.25781V4.3098" stroke="currentColor" stroke-width="1.03125" stroke-miterlimit="10"/>
    <path d="M20.119 4.62146L17.9609 6.77954" stroke="currentColor" stroke-width="1.03125" stroke-miterlimit="10"/>
    <path d="M3.87891 4.62146L6.03698 6.77954" stroke="currentColor" stroke-width="1.03125" stroke-miterlimit="10"/>
    <path d="M14.5568 7.95569L13.1211 10.7039" stroke="currentColor" stroke-width="1.03125" stroke-miterlimit="10" stroke-linecap="round" stroke-linejoin="round"/>
    <path d="M9.66406 12.7422C9.66406 11.4526 10.7095 10.4072 11.999 10.4072C13.2886 10.4072 14.334 11.4526 14.334 12.7422H9.66406Z" stroke="currentColor" stroke-width="1.03125" stroke-miterlimit="10" stroke-linecap="round" stroke-linejoin="round"/>
    <path d="M0.515625 12.7422C0.515625 6.39953 5.65734 1.25781 12 1.25781C18.3427 1.25781 23.4844 6.39953 23.4844 12.7422H0.515625Z" stroke="currentColor" stroke-width="1.03125" stroke-miterlimit="10" stroke-linecap="round" stroke-linejoin="round"/>
</svg>
