<svg width="22" height="22" viewBox="0 0 22 22" fill="none" xmlns="http://www.w3.org/2000/svg">
    <path d="M11.2531 5.51267C11.2531 5.2637 11.0511 5.06165 10.8021 5.06165C10.5531 5.06165 10.3511 5.2637 10.3511 5.51267V10.3508H6.09557C5.84659 10.3508 5.64453 10.5528 5.64453 10.8018C5.64453 11.0508 5.84659 11.2528 6.09557 11.2528H10.8021C11.0511 11.2528 11.2531 11.0508 11.2531 10.8018V5.51267Z" fill="currentColor" stroke="currentColor" stroke-width="0.3"/>
    <path d="M18.6932 14.7005C18.4833 14.5665 18.2046 14.6274 18.0701 14.8371L16.7026 16.9734L15.7227 15.8012C15.5631 15.6102 15.2787 15.5847 15.0877 15.7443C14.8964 15.904 14.871 16.1886 15.0308 16.3796L16.4049 18.0236C16.4908 18.1264 16.6176 18.1853 16.7509 18.1853C16.7603 18.1853 16.7698 18.1851 16.7795 18.1844C16.9229 18.1751 17.0533 18.0985 17.1309 17.9776L18.8301 15.3233C18.9643 15.1138 18.9032 14.8349 18.6932 14.7005Z" fill="currentColor" stroke="currentColor" stroke-width="0.3"/>
    <path d="M20.0418 14.0688C20.4123 13.0213 20.6024 11.9239 20.6024 10.8016C20.6024 8.12136 19.5199 5.68968 17.7704 3.91874C17.758 3.90273 17.7465 3.88627 17.7318 3.87161C17.7171 3.85695 17.7007 3.84545 17.6847 3.83327C15.9137 2.08331 13.4819 1.00085 10.8012 1.00085C8.12048 1.00085 5.68873 2.08353 3.91774 3.8335C3.90196 3.84567 3.88549 3.85695 3.87106 3.87161C3.85663 3.88627 3.84513 3.9025 3.83295 3.91829C2.08451 5.68832 1.00225 8.11775 1.00068 10.7959C1.00045 10.7979 1 10.7998 1 10.8018C1 10.8038 1.00045 10.8056 1.00068 10.8076C1.00225 13.4849 2.08361 15.9134 3.83092 17.6832C3.84377 17.6999 3.85573 17.7168 3.87106 17.7322C3.88617 17.7473 3.90331 17.7595 3.91977 17.7719C5.69098 19.5205 8.12184 20.6025 10.8014 20.6025C11.925 20.6025 13.0226 20.4124 14.0694 20.0416C14.8012 20.6395 15.7351 20.9994 16.7517 20.9994C19.0944 20.9994 21 19.0938 21 16.7517C20.9998 15.7346 20.6399 14.8008 20.0418 14.0688ZM10.8012 17.8303C10.5522 17.8303 10.3502 18.0323 10.3502 18.2813V19.6887C8.23595 19.5827 6.31409 18.735 4.83898 17.4014L5.83081 16.4093C6.00693 16.2332 6.00693 15.9477 5.83081 15.7714C5.65468 15.5955 5.36917 15.5952 5.19304 15.7714L4.20122 16.7634C2.86773 15.2885 2.02001 13.3667 1.9138 11.2524H3.32057C3.56954 11.2524 3.77161 11.0503 3.77161 10.8013C3.77161 10.5524 3.56954 10.3503 3.32057 10.3503H1.9138C2.02001 8.23615 2.86751 6.31412 4.20122 4.83928L5.19304 5.83107C5.28122 5.91902 5.39646 5.963 5.51192 5.963C5.62739 5.963 5.74263 5.91902 5.83081 5.83085C6.00693 5.65472 6.00693 5.36923 5.83081 5.19288L4.83898 4.20131C6.31386 2.86763 8.23595 2.01994 10.3502 1.91395V3.32114C10.3502 3.5701 10.5522 3.77216 10.8012 3.77216C11.0502 3.77216 11.2522 3.5701 11.2522 3.32114V1.91395C13.3667 2.01994 15.2885 2.86763 16.7637 4.20131L15.7718 5.19288C15.5957 5.369 15.5957 5.6545 15.7718 5.83085C15.86 5.91902 15.9753 5.963 16.0907 5.963C16.2062 5.963 16.3214 5.91902 16.4096 5.83107L17.4014 4.83928C18.7349 6.31412 19.5826 8.23592 19.6888 10.3503H18.2816C18.0326 10.3503 17.8306 10.5524 17.8306 10.8013C17.8306 11.0503 18.0326 11.2524 18.2816 11.2524H19.6884C19.6523 11.9765 19.528 12.6868 19.3197 13.3758C18.6055 12.8312 17.7171 12.5037 16.7513 12.5037C14.4093 12.5037 12.5039 14.4091 12.5039 16.7512C12.5039 17.7169 12.8313 18.6054 13.3762 19.3196C12.6874 19.5277 11.9768 19.652 11.252 19.688V18.2811C11.2522 18.0323 11.0504 17.8303 10.8012 17.8303ZM16.7515 20.0971C14.9067 20.0971 13.4062 18.5963 13.4062 16.7514C13.4062 14.9068 14.9067 13.406 16.7515 13.406C18.5967 13.406 20.0977 14.9068 20.0977 16.7514C20.0977 18.5963 18.5967 20.0971 16.7515 20.0971Z" fill="currentColor" stroke="currentColor" stroke-width="0.3"/>
</svg>
