<svg width="20" height="20" viewBox="0 0 20 20" fill="none" xmlns="http://www.w3.org/2000/svg">
<mask id="path-1-outside-1_1434_80194" maskUnits="userSpaceOnUse" x="1.08203" y="1.08301" width="18" height="18" fill="black">
<rect fill="white" x="1.08203" y="1.08301" width="18" height="18"/>
<path d="M17.4987 6.87467H14.7904C14.2539 6.87467 14.2529 7.70801 14.7904 7.70801H16.3687L11.3333 12.0061C10.5602 12.6661 9.43703 12.6661 8.66391 12.0061L3.6287 7.70801H5.20703C5.74349 7.70801 5.74453 6.87467 5.20703 6.87467H2.4987C2.2687 6.87467 2.08203 7.06134 2.08203 7.29134V17.4997C2.08203 17.7297 2.2687 17.9163 2.4987 17.9163H17.4987C17.7287 17.9163 17.9154 17.7297 17.9154 17.4997V7.29134C17.9154 7.06134 17.7287 6.87467 17.4987 6.87467ZM17.082 16.6438L12.6779 13.1922C12.497 13.0505 12.2349 13.0822 12.0929 13.263C11.9508 13.4443 11.9827 13.7059 12.1639 13.848L16.2916 17.083H3.70578L7.83328 13.8482C8.01453 13.7061 8.0462 13.4445 7.90432 13.2632C7.76224 13.082 7.50036 13.0505 7.31932 13.1924L2.91536 16.6438V8.19488L8.12286 12.6399C9.19453 13.5547 10.8027 13.5547 11.8745 12.6399L17.082 8.19488V16.6438ZM6.45703 5.62467C6.45703 3.67176 8.04578 2.08301 9.9987 2.08301C11.3097 2.08301 12.4849 2.81259 13.0962 3.91426L13.1543 3.78613C13.2491 3.57634 13.4958 3.48363 13.7058 3.57863C13.9154 3.67363 14.0081 3.92072 13.9131 4.13009L13.4408 5.17176C13.3489 5.37447 13.1041 5.4703 12.8991 5.38363L11.9131 4.96697C11.701 4.87738 11.6018 4.63301 11.6914 4.42092C11.7814 4.20905 12.0256 4.10988 12.2374 4.19926L12.3222 4.23509C11.8435 3.43801 10.9691 2.91634 9.9987 2.91634C8.50536 2.91634 7.29036 4.13134 7.29036 5.62467C7.29036 7.11801 8.50536 8.33301 9.9987 8.33301C11.2085 8.33301 12.2808 7.52051 12.607 6.35717C12.6689 6.13551 12.8983 6.00613 13.1208 6.06842C13.3422 6.13051 13.4716 6.36051 13.4095 6.58197C12.9829 8.10363 11.5804 9.16634 9.9987 9.16634C8.04578 9.16634 6.45703 7.57759 6.45703 5.62467Z"/>
</mask>
<path d="M17.4987 6.87467H14.7904C14.2539 6.87467 14.2529 7.70801 14.7904 7.70801H16.3687L11.3333 12.0061C10.5602 12.6661 9.43703 12.6661 8.66391 12.0061L3.6287 7.70801H5.20703C5.74349 7.70801 5.74453 6.87467 5.20703 6.87467H2.4987C2.2687 6.87467 2.08203 7.06134 2.08203 7.29134V17.4997C2.08203 17.7297 2.2687 17.9163 2.4987 17.9163H17.4987C17.7287 17.9163 17.9154 17.7297 17.9154 17.4997V7.29134C17.9154 7.06134 17.7287 6.87467 17.4987 6.87467ZM17.082 16.6438L12.6779 13.1922C12.497 13.0505 12.2349 13.0822 12.0929 13.263C11.9508 13.4443 11.9827 13.7059 12.1639 13.848L16.2916 17.083H3.70578L7.83328 13.8482C8.01453 13.7061 8.0462 13.4445 7.90432 13.2632C7.76224 13.082 7.50036 13.0505 7.31932 13.1924L2.91536 16.6438V8.19488L8.12286 12.6399C9.19453 13.5547 10.8027 13.5547 11.8745 12.6399L17.082 8.19488V16.6438ZM6.45703 5.62467C6.45703 3.67176 8.04578 2.08301 9.9987 2.08301C11.3097 2.08301 12.4849 2.81259 13.0962 3.91426L13.1543 3.78613C13.2491 3.57634 13.4958 3.48363 13.7058 3.57863C13.9154 3.67363 14.0081 3.92072 13.9131 4.13009L13.4408 5.17176C13.3489 5.37447 13.1041 5.4703 12.8991 5.38363L11.9131 4.96697C11.701 4.87738 11.6018 4.63301 11.6914 4.42092C11.7814 4.20905 12.0256 4.10988 12.2374 4.19926L12.3222 4.23509C11.8435 3.43801 10.9691 2.91634 9.9987 2.91634C8.50536 2.91634 7.29036 4.13134 7.29036 5.62467C7.29036 7.11801 8.50536 8.33301 9.9987 8.33301C11.2085 8.33301 12.2808 7.52051 12.607 6.35717C12.6689 6.13551 12.8983 6.00613 13.1208 6.06842C13.3422 6.13051 13.4716 6.36051 13.4095 6.58197C12.9829 8.10363 11.5804 9.16634 9.9987 9.16634C8.04578 9.16634 6.45703 7.57759 6.45703 5.62467Z" fill="currentColor"/>
<path d="M17.4987 6.87467H14.7904C14.2539 6.87467 14.2529 7.70801 14.7904 7.70801H16.3687L11.3333 12.0061C10.5602 12.6661 9.43703 12.6661 8.66391 12.0061L3.6287 7.70801H5.20703C5.74349 7.70801 5.74453 6.87467 5.20703 6.87467H2.4987C2.2687 6.87467 2.08203 7.06134 2.08203 7.29134V17.4997C2.08203 17.7297 2.2687 17.9163 2.4987 17.9163H17.4987C17.7287 17.9163 17.9154 17.7297 17.9154 17.4997V7.29134C17.9154 7.06134 17.7287 6.87467 17.4987 6.87467ZM17.082 16.6438L12.6779 13.1922C12.497 13.0505 12.2349 13.0822 12.0929 13.263C11.9508 13.4443 11.9827 13.7059 12.1639 13.848L16.2916 17.083H3.70578L7.83328 13.8482C8.01453 13.7061 8.0462 13.4445 7.90432 13.2632C7.76224 13.082 7.50036 13.0505 7.31932 13.1924L2.91536 16.6438V8.19488L8.12286 12.6399C9.19453 13.5547 10.8027 13.5547 11.8745 12.6399L17.082 8.19488V16.6438ZM6.45703 5.62467C6.45703 3.67176 8.04578 2.08301 9.9987 2.08301C11.3097 2.08301 12.4849 2.81259 13.0962 3.91426L13.1543 3.78613C13.2491 3.57634 13.4958 3.48363 13.7058 3.57863C13.9154 3.67363 14.0081 3.92072 13.9131 4.13009L13.4408 5.17176C13.3489 5.37447 13.1041 5.4703 12.8991 5.38363L11.9131 4.96697C11.701 4.87738 11.6018 4.63301 11.6914 4.42092C11.7814 4.20905 12.0256 4.10988 12.2374 4.19926L12.3222 4.23509C11.8435 3.43801 10.9691 2.91634 9.9987 2.91634C8.50536 2.91634 7.29036 4.13134 7.29036 5.62467C7.29036 7.11801 8.50536 8.33301 9.9987 8.33301C11.2085 8.33301 12.2808 7.52051 12.607 6.35717C12.6689 6.13551 12.8983 6.00613 13.1208 6.06842C13.3422 6.13051 13.4716 6.36051 13.4095 6.58197C12.9829 8.10363 11.5804 9.16634 9.9987 9.16634C8.04578 9.16634 6.45703 7.57759 6.45703 5.62467Z" stroke="currentColor" stroke-width="0.4" mask="url(#path-1-outside-1_1434_80194)"/>
</svg>
