<svg width="20" height="20" viewBox="0 0 20 20" fill="none" xmlns="http://www.w3.org/2000/svg">
<path d="M3.75 3.1875H8.75C9.06066 3.1875 9.3125 3.43934 9.3125 3.75V8.75C9.3125 9.06066 9.06066 9.3125 8.75 9.3125H3.75C3.43934 9.3125 3.1875 9.06066 3.1875 8.75V3.75C3.1875 3.43934 3.43934 3.1875 3.75 3.1875Z" fill="#929AB5" stroke="#929AB5" stroke-width="0.125"/>
<path d="M16.25 3.125H11.25C10.9048 3.125 10.625 3.40482 10.625 3.75V8.75C10.625 9.09518 10.9048 9.375 11.25 9.375H16.25C16.5952 9.375 16.875 9.09518 16.875 8.75V3.75C16.875 3.40482 16.5952 3.125 16.25 3.125Z" fill="#929AB5"/>
<path d="M8.75 10.625H3.75C3.40482 10.625 3.125 10.9048 3.125 11.25V16.25C3.125 16.5952 3.40482 16.875 3.75 16.875H8.75C9.09518 16.875 9.375 16.5952 9.375 16.25V11.25C9.375 10.9048 9.09518 10.625 8.75 10.625Z" fill="#929AB5"/>
<path d="M16.25 10.625H11.25C10.9048 10.625 10.625 10.9048 10.625 11.25V16.25C10.625 16.5952 10.9048 16.875 11.25 16.875H16.25C16.5952 16.875 16.875 16.5952 16.875 16.25V11.25C16.875 10.9048 16.5952 10.625 16.25 10.625Z" fill="#929AB5"/>
</svg>
