<svg width="24" height="24" viewBox="0 0 24 24" fill="none" xmlns="http://www.w3.org/2000/svg">
<path d="M13.3113 13.692C13.6054 13.692 13.8438 13.4536 13.8438 13.1596C13.8438 12.8655 13.6054 12.6271 13.3113 12.6271C13.0173 12.6271 12.7789 12.8655 12.7789 13.1596C12.7789 13.4536 13.0173 13.692 13.3113 13.692Z" fill="white" stroke="white" stroke-width="0.2"/>
<path d="M15.0223 13.6919C15.3163 13.6919 15.5547 13.4535 15.5547 13.1595C15.5547 12.8655 15.3163 12.6271 15.0223 12.6271C14.7282 12.6271 14.4898 12.8655 14.4898 13.1595C14.4898 13.4535 14.7282 13.6919 15.0223 13.6919Z" fill="white" stroke="white" stroke-width="0.2"/>
<path d="M13.3113 16.9995C13.6053 16.9995 13.8438 16.7613 13.8438 16.4671C13.8438 16.173 13.6054 15.9346 13.3113 15.9346C13.0173 15.9346 12.7789 16.173 12.7789 16.4671C12.7789 16.7613 13.0173 16.9995 13.3113 16.9995Z" fill="white" stroke="white" stroke-width="0.2"/>
<path d="M15.0223 16.9995C15.3163 16.9995 15.5547 16.7613 15.5547 16.4671C15.5547 16.1731 15.3163 15.9347 15.0223 15.9347C14.7282 15.9347 14.4898 16.1731 14.4898 16.4671C14.4898 16.7613 14.7283 16.9995 15.0223 16.9995Z" fill="white" stroke="white" stroke-width="0.2"/>
<path d="M13.3113 20.2114C13.6054 20.2114 13.8438 19.973 13.8438 19.6789C13.8438 19.3849 13.6054 19.1465 13.3113 19.1465C13.0173 19.1465 12.7789 19.3849 12.7789 19.6789C12.7789 19.973 13.0173 20.2114 13.3113 20.2114Z" fill="white" stroke="white" stroke-width="0.2"/>
<path d="M15.0223 20.2115C15.3163 20.2115 15.5547 19.973 15.5547 19.679C15.5547 19.385 15.3163 19.1466 15.0223 19.1466C14.7282 19.1466 14.4898 19.385 14.4898 19.679C14.4898 19.973 14.7282 20.2115 15.0223 20.2115Z" fill="white" stroke="white" stroke-width="0.2"/>
<path d="M14.1382 10.8674L14.1377 10.8674C13.9231 10.8713 13.7414 10.7013 13.7364 10.4836M14.1382 10.8674L13.8364 10.4813M14.1382 10.8674C14.3553 10.8625 14.5271 10.6825 14.5222 10.4656C14.5086 9.87037 14.4668 9.28595 14.3986 8.72003H17.9387C18.1403 9.411 18.2486 10.1415 18.2486 10.8969C18.2486 11.0164 18.2458 11.1367 18.2403 11.2567H12.3233C11.7806 11.2567 11.3392 11.698 11.3392 12.2408V14.2702C11.3392 14.492 11.413 14.6968 11.537 14.8615C11.413 15.026 11.3392 15.2308 11.3392 15.4526V17.482C11.3392 17.7037 11.413 17.9086 11.537 18.0732C11.4773 18.1524 11.4292 18.2409 11.3954 18.3364C11.0867 18.5663 10.7752 18.6783 10.4673 18.6783C10.0784 18.6783 9.6788 18.492 9.29422 18.1247C8.90965 17.7574 8.54603 17.2141 8.2329 16.5161L8.14166 16.557L8.2329 16.5161C7.88847 15.7484 7.62298 14.8464 7.44645 13.8598H10.5655C10.7825 13.8598 10.9585 13.6838 10.9585 13.4668C10.9585 13.2497 10.7825 13.0739 10.5655 13.0739H7.3269C7.23885 12.3753 7.19338 11.6443 7.19338 10.8969C7.19338 10.1494 7.23885 9.41853 7.3269 8.72003H13.6055M14.1382 10.8674L13.6933 8.62003M13.7364 10.4836L13.8364 10.4813M13.7364 10.4836C13.7364 10.4836 13.7364 10.4836 13.7364 10.4836L13.8364 10.4813M13.7364 10.4836C13.7226 9.87593 13.6777 9.28534 13.6055 8.72003M13.8364 10.4813C13.8217 9.8389 13.7726 9.21527 13.6933 8.62003M13.6055 8.72003H13.6933V8.62003M13.6055 8.72003C13.6018 8.69103 13.598 8.6621 13.5941 8.63324L13.6933 8.62003M8.2329 5.27763L8.2329 5.27762C8.54603 4.57961 8.90965 4.03641 9.29422 3.66913C9.6788 3.30184 10.0784 3.11563 10.4673 3.11563C11.1124 3.11563 11.745 3.60248 12.286 4.48282C12.8098 5.33497 13.2326 6.53336 13.4849 7.93409H7.44645C7.62298 6.94746 7.88847 6.0453 8.2329 5.27763ZM13.3525 4.81189L13.3525 4.81187C13.082 4.23713 12.7758 3.75305 12.4417 3.36935C14.8093 3.99088 16.7402 5.70296 17.6624 7.93409H14.2847C14.0867 6.76805 13.7712 5.70159 13.3525 4.81189ZM8.49114 3.36977C8.13046 3.78482 7.8022 4.31747 7.51575 4.95605L7.51575 4.95606C7.12844 5.81972 6.836 6.83301 6.64905 7.93409H3.27197C4.19404 5.70343 6.12435 3.99159 8.49114 3.36977ZM7.51575 16.8378L7.51576 16.8378C7.8022 17.4763 8.13046 18.0089 8.49114 18.424C6.12433 17.8021 4.1939 16.0903 3.27197 13.8598H6.64905C6.836 14.9607 7.12844 15.974 7.51575 16.8378ZM22.1 12.2408C22.1 11.698 21.6587 11.2567 21.1159 11.2567H19.027C19.0319 11.1367 19.0345 11.0165 19.0345 10.8969C19.0345 8.60876 18.1432 6.45702 16.5252 4.83899C14.9072 3.22096 12.7554 2.32969 10.4673 2.32969C8.17908 2.32969 6.02733 3.22096 4.4093 4.83899C2.79127 6.45702 1.9 8.60876 1.9 10.8969C1.9 13.185 2.79127 15.3369 4.4093 16.9547C6.02733 18.5728 8.17908 19.464 10.4673 19.464C10.7582 19.464 11.05 19.4494 11.3392 19.4201V20.6937C11.3392 21.2363 11.7806 21.6778 12.3233 21.6778H21.1159C21.6587 21.6778 22.1 21.2363 22.1 20.6937V18.6641C22.1 18.4424 22.0262 18.2377 21.9023 18.073C22.0263 17.9084 22.1 17.7035 22.1 17.4819V15.4525C22.1 15.2308 22.0263 15.0259 21.9023 14.8613C22.0263 14.6967 22.1 14.4919 22.1 14.2702V12.2408ZM21.3141 12.2408V14.2702C21.3141 14.3794 21.225 14.4684 21.1159 14.4684H12.3233C12.2141 14.4684 12.1252 14.3795 12.1252 14.2702V12.2408C12.1252 12.1315 12.2141 12.0426 12.3233 12.0426H18.5996C18.6056 12.0428 18.6117 12.0428 18.6177 12.0426H21.1159C21.225 12.0426 21.3141 12.1316 21.3141 12.2408ZM21.3141 15.4525V17.482C21.3141 17.5911 21.225 17.6802 21.1159 17.6802H12.3233C12.2141 17.6802 12.1252 17.5912 12.1252 17.482V15.4525C12.1252 15.3433 12.2141 15.2543 12.3233 15.2543H21.1159C21.225 15.2543 21.3141 15.3433 21.3141 15.4525ZM2.68594 10.8969C2.68594 10.1415 2.79423 9.411 2.99579 8.72003H6.53545C6.45097 9.42195 6.40745 10.1523 6.40745 10.8969C6.40745 11.6415 6.45097 12.3718 6.53545 13.0739H2.99579C2.79423 12.3829 2.68594 11.6524 2.68594 10.8969ZM21.3141 20.6937C21.3141 20.8028 21.225 20.8919 21.1159 20.8919H12.3233C12.2141 20.8919 12.1252 20.8028 12.1252 20.6937V18.9775V18.9775V18.9775V18.9775V18.9774V18.9774V18.9774V18.9774V18.9773V18.9773V18.9773V18.9772V18.9772V18.9772V18.9772V18.9771V18.9771V18.9771V18.9771V18.977V18.977V18.977V18.977V18.9769V18.9769V18.9769V18.9768V18.9768V18.9768V18.9768V18.9767V18.9767V18.9767V18.9767V18.9766V18.9766V18.9766V18.9766V18.9765V18.9765V18.9765V18.9764V18.9764V18.9764V18.9764V18.9763V18.9763V18.9763V18.9763V18.9762V18.9762V18.9762V18.9762V18.9761V18.9761V18.9761V18.9761V18.976V18.976V18.976V18.976V18.9759V18.9759V18.9759V18.9758V18.9758V18.9758V18.9758V18.9757V18.9757V18.9757V18.9757V18.9756V18.9756V18.9756V18.9756V18.9755V18.9755V18.9755V18.9755V18.9754V18.9754V18.9754V18.9754V18.9753V18.9753V18.9753V18.9752V18.9752V18.9752V18.9752V18.9751V18.9751V18.9751V18.9751V18.975V18.975V18.975V18.975V18.9749V18.9749V18.9749V18.9749V18.9748V18.9748V18.9748V18.9748V18.9747V18.9747V18.9747V18.9746V18.9746V18.9746V18.9746V18.9745V18.9745V18.9745V18.9745V18.9744V18.9744V18.9744V18.9744V18.9743V18.9743V18.9743V18.9743V18.9742V18.9742V18.9742V18.9742V18.9741V18.9741V18.9741V18.9741V18.974V18.974V18.974V18.9739V18.9739V18.9739V18.9739V18.9738V18.9738V18.9738V18.9738V18.9737V18.9737V18.9737V18.9737V18.9736V18.9736V18.9736V18.9736V18.9735V18.9735V18.9735V18.9735V18.9734V18.9734V18.9734V18.9734V18.9733V18.9733V18.9733V18.9732V18.9732V18.9732V18.9732V18.9731V18.9731V18.9731V18.9731V18.973V18.973V18.973V18.973V18.9729V18.9729V18.9729V18.9729V18.9728V18.9728V18.9728V18.9728V18.9727V18.9727V18.9727V18.9726V18.9726V18.9726V18.9726V18.9725V18.9725V18.9725V18.9725V18.9724V18.9724V18.9724V18.9724V18.9723V18.9723V18.9723V18.9723V18.9722V18.9722V18.9722V18.9722V18.9721V18.9721V18.9721V18.972V18.972V18.972V18.972V18.9719V18.9719V18.9719V18.9719V18.9718V18.9718V18.9718V18.9718V18.9717V18.9717V18.9717V18.9717V18.9716V18.9716V18.9716V18.9715V18.9715V18.9715V18.9715V18.9714V18.9714V18.9714V18.9714V18.9713V18.9713V18.9713V18.9713V18.9712V18.9712V18.9712V18.9711V18.9711V18.9711V18.9711V18.971V18.971V18.971V18.971V18.9709V18.9709V18.9709V18.9709V18.9708V18.6643C12.1252 18.555 12.2141 18.4661 12.3233 18.4661H21.1159C21.225 18.4661 21.3141 18.555 21.3141 18.6643V20.6937Z" fill="white" stroke="white" stroke-width="0.2"/>
</svg>
