<svg width="24" height="25" viewBox="0 0 24 25" fill="none" xmlns="http://www.w3.org/2000/svg">
    <path d="M13.3123 14.192C13.6063 14.192 13.8448 13.9536 13.8448 13.6595C13.8448 13.3655 13.6063 13.1271 13.3123 13.1271C13.0183 13.1271 12.7799 13.3655 12.7799 13.6595C12.7799 13.9536 13.0183 14.192 13.3123 14.192Z" fill="currentColor" stroke="currentColor" stroke-width="0.2"/>
    <path d="M15.0223 14.1919C15.3163 14.1919 15.5547 13.9535 15.5547 13.6595C15.5547 13.3655 15.3163 13.1271 15.0223 13.1271C14.7282 13.1271 14.4898 13.3655 14.4898 13.6595C14.4898 13.9535 14.7282 14.1919 15.0223 14.1919Z" fill="currentColor" stroke="currentColor" stroke-width="0.2"/>
    <path d="M13.3123 17.4995C13.6063 17.4995 13.8448 17.2612 13.8448 16.967C13.8448 16.673 13.6063 16.4346 13.3123 16.4346C13.0183 16.4346 12.7799 16.673 12.7799 16.967C12.7799 17.2612 13.0183 17.4995 13.3123 17.4995Z" fill="currentColor" stroke="currentColor" stroke-width="0.2"/>
    <path d="M15.0223 17.4995C15.3163 17.4995 15.5547 17.2613 15.5547 16.9671C15.5547 16.6731 15.3163 16.4347 15.0223 16.4347C14.7282 16.4347 14.4898 16.6731 14.4898 16.9671C14.4898 17.2613 14.7283 17.4995 15.0223 17.4995Z" fill="currentColor" stroke="currentColor" stroke-width="0.2"/>
    <path d="M13.3123 20.7114C13.6063 20.7114 13.8448 20.473 13.8448 20.179C13.8448 19.8849 13.6063 19.6465 13.3123 19.6465C13.0183 19.6465 12.7799 19.8849 12.7799 20.179C12.7799 20.473 13.0183 20.7114 13.3123 20.7114Z" fill="currentColor" stroke="currentColor" stroke-width="0.2"/>
    <path d="M15.0223 20.7115C15.3163 20.7115 15.5547 20.473 15.5547 20.179C15.5547 19.885 15.3163 19.6466 15.0223 19.6466C14.7282 19.6466 14.4898 19.885 14.4898 20.179C14.4898 20.473 14.7282 20.7115 15.0223 20.7115Z" fill="currentColor" stroke="currentColor" stroke-width="0.2"/>
    <path d="M14.1382 11.3674L14.1377 11.3674C13.9231 11.3713 13.7414 11.2013 13.7364 10.9836M14.1382 11.3674L13.8364 10.9813M14.1382 11.3674C14.3553 11.3625 14.5271 11.1825 14.5222 10.9656C14.5086 10.3704 14.4668 9.78595 14.3986 9.22003H17.9387C18.1403 9.911 18.2486 10.6415 18.2486 11.3969C18.2486 11.5164 18.2458 11.6367 18.2403 11.7567H12.3233C11.7806 11.7567 11.3392 12.198 11.3392 12.7408V14.7702C11.3392 14.992 11.413 15.1968 11.537 15.3615C11.413 15.526 11.3392 15.7308 11.3392 15.9526V17.982C11.3392 18.2037 11.413 18.4086 11.537 18.5732C11.4773 18.6524 11.4292 18.7409 11.3954 18.8364C11.0867 19.0663 10.7752 19.1783 10.4673 19.1783C10.0784 19.1783 9.6788 18.992 9.29422 18.6247C8.90965 18.2574 8.54603 17.7141 8.2329 17.0161L8.14166 17.057L8.2329 17.0161C7.88847 16.2484 7.62298 15.3464 7.44645 14.3598H10.5655C10.7825 14.3598 10.9585 14.1838 10.9585 13.9668C10.9585 13.7497 10.7825 13.5739 10.5655 13.5739H7.3269C7.23885 12.8753 7.19338 12.1443 7.19338 11.3969C7.19338 10.6494 7.23885 9.91853 7.3269 9.22003H13.6055M14.1382 11.3674L13.6933 9.12003M13.7364 10.9836L13.8364 10.9813M13.7364 10.9836C13.7364 10.9836 13.7364 10.9836 13.7364 10.9836L13.8364 10.9813M13.7364 10.9836C13.7226 10.3759 13.6777 9.78534 13.6055 9.22003M13.8364 10.9813C13.8217 10.3389 13.7726 9.71527 13.6933 9.12003M13.6055 9.22003H13.6933V9.12003M13.6055 9.22003C13.6018 9.19103 13.598 9.1621 13.5941 9.13324L13.6933 9.12003M8.2329 5.77763L8.2329 5.77762C8.54603 5.07961 8.90965 4.53641 9.29422 4.16913C9.6788 3.80184 10.0784 3.61563 10.4673 3.61563C11.1124 3.61563 11.745 4.10248 12.286 4.98282C12.8098 5.83497 13.2326 7.03336 13.4849 8.43409H7.44645C7.62298 7.44746 7.88847 6.5453 8.2329 5.77763ZM13.3525 5.31189L13.3525 5.31187C13.082 4.73713 12.7758 4.25305 12.4417 3.86935C14.8093 4.49088 16.7402 6.20296 17.6624 8.43409H14.2847C14.0867 7.26805 13.7712 6.20159 13.3525 5.31189ZM8.49114 3.86977C8.13046 4.28482 7.8022 4.81747 7.51575 5.45605L7.51575 5.45606C7.12844 6.31972 6.836 7.33301 6.64905 8.43409H3.27197C4.19404 6.20343 6.12435 4.49159 8.49114 3.86977ZM7.51575 17.3378L7.51576 17.3378C7.8022 17.9763 8.13046 18.5089 8.49114 18.924C6.12433 18.3021 4.1939 16.5903 3.27197 14.3598H6.64905C6.836 15.4607 7.12844 16.474 7.51575 17.3378ZM22.1 12.7408C22.1 12.198 21.6587 11.7567 21.1159 11.7567H19.027C19.0319 11.6367 19.0345 11.5165 19.0345 11.3969C19.0345 9.10876 18.1432 6.95702 16.5252 5.33899C14.9072 3.72096 12.7554 2.82969 10.4673 2.82969C8.17908 2.82969 6.02733 3.72096 4.4093 5.33899C2.79127 6.95702 1.9 9.10876 1.9 11.3969C1.9 13.685 2.79127 15.8369 4.4093 17.4547C6.02733 19.0728 8.17908 19.964 10.4673 19.964C10.7582 19.964 11.05 19.9494 11.3392 19.9201V21.1937C11.3392 21.7363 11.7806 22.1778 12.3233 22.1778H21.1159C21.6587 22.1778 22.1 21.7363 22.1 21.1937V19.1641C22.1 18.9424 22.0262 18.7377 21.9023 18.573C22.0263 18.4084 22.1 18.2035 22.1 17.9819V15.9525C22.1 15.7308 22.0263 15.5259 21.9023 15.3613C22.0263 15.1967 22.1 14.9919 22.1 14.7702V12.7408ZM21.3141 12.7408V14.7702C21.3141 14.8794 21.225 14.9684 21.1159 14.9684H12.3233C12.2141 14.9684 12.1252 14.8795 12.1252 14.7702V12.7408C12.1252 12.6315 12.2141 12.5426 12.3233 12.5426H18.5996C18.6056 12.5428 18.6117 12.5428 18.6177 12.5426H21.1159C21.225 12.5426 21.3141 12.6316 21.3141 12.7408ZM21.3141 15.9525V17.982C21.3141 18.0911 21.225 18.1802 21.1159 18.1802H12.3233C12.2141 18.1802 12.1252 18.0912 12.1252 17.982V15.9525C12.1252 15.8433 12.2141 15.7543 12.3233 15.7543H21.1159C21.225 15.7543 21.3141 15.8433 21.3141 15.9525ZM2.68594 11.3969C2.68594 10.6415 2.79423 9.911 2.99579 9.22003H6.53545C6.45097 9.92195 6.40745 10.6523 6.40745 11.3969C6.40745 12.1415 6.45097 12.8718 6.53545 13.5739H2.99579C2.79423 12.8829 2.68594 12.1524 2.68594 11.3969ZM21.3141 21.1937C21.3141 21.3028 21.225 21.3919 21.1159 21.3919H12.3233C12.2141 21.3919 12.1252 21.3028 12.1252 21.1937V19.4775V19.4775V19.4775V19.4775V19.4774V19.4774V19.4774V19.4774V19.4773V19.4773V19.4773V19.4772V19.4772V19.4772V19.4772V19.4771V19.4771V19.4771V19.4771V19.477V19.477V19.477V19.477V19.4769V19.4769V19.4769V19.4768V19.4768V19.4768V19.4768V19.4767V19.4767V19.4767V19.4767V19.4766V19.4766V19.4766V19.4766V19.4765V19.4765V19.4765V19.4764V19.4764V19.4764V19.4764V19.4763V19.4763V19.4763V19.4763V19.4762V19.4762V19.4762V19.4762V19.4761V19.4761V19.4761V19.4761V19.476V19.476V19.476V19.476V19.4759V19.4759V19.4759V19.4758V19.4758V19.4758V19.4758V19.4757V19.4757V19.4757V19.4757V19.4756V19.4756V19.4756V19.4756V19.4755V19.4755V19.4755V19.4755V19.4754V19.4754V19.4754V19.4754V19.4753V19.4753V19.4753V19.4752V19.4752V19.4752V19.4752V19.4751V19.4751V19.4751V19.4751V19.475V19.475V19.475V19.475V19.4749V19.4749V19.4749V19.4749V19.4748V19.4748V19.4748V19.4748V19.4747V19.4747V19.4747V19.4746V19.4746V19.4746V19.4746V19.4745V19.4745V19.4745V19.4745V19.4744V19.4744V19.4744V19.4744V19.4743V19.4743V19.4743V19.4743V19.4742V19.4742V19.4742V19.4742V19.4741V19.4741V19.4741V19.4741V19.474V19.474V19.474V19.4739V19.4739V19.4739V19.4739V19.4738V19.4738V19.4738V19.4738V19.4737V19.4737V19.4737V19.4737V19.4736V19.4736V19.4736V19.4736V19.4735V19.4735V19.4735V19.4735V19.4734V19.4734V19.4734V19.4734V19.4733V19.4733V19.4733V19.4732V19.4732V19.4732V19.4732V19.4731V19.4731V19.4731V19.4731V19.473V19.473V19.473V19.473V19.4729V19.4729V19.4729V19.4729V19.4728V19.4728V19.4728V19.4728V19.4727V19.4727V19.4727V19.4726V19.4726V19.4726V19.4726V19.4725V19.4725V19.4725V19.4725V19.4724V19.4724V19.4724V19.4724V19.4723V19.4723V19.4723V19.4723V19.4722V19.4722V19.4722V19.4722V19.4721V19.4721V19.4721V19.472V19.472V19.472V19.472V19.4719V19.4719V19.4719V19.4719V19.4718V19.4718V19.4718V19.4718V19.4717V19.4717V19.4717V19.4717V19.4716V19.4716V19.4716V19.4715V19.4715V19.4715V19.4715V19.4714V19.4714V19.4714V19.4714V19.4713V19.4713V19.4713V19.4713V19.4712V19.4712V19.4712V19.4711V19.4711V19.4711V19.4711V19.471V19.471V19.471V19.471V19.4709V19.4709V19.4709V19.4709V19.4708V19.1643C12.1252 19.055 12.2141 18.9661 12.3233 18.9661H21.1159C21.225 18.9661 21.3141 19.055 21.3141 19.1643V21.1937Z" fill="currentColor" stroke="currentColor" stroke-width="0.2"/>
</svg>
