<svg width="17" height="16" viewBox="0 0 17 16" fill="none" xmlns="http://www.w3.org/2000/svg">
<g id="Icon / Test Connection">
<g id="Layer 2">
<path id="Vector" d="M8.5 14.375H8.50042C10.1905 14.3731 11.8108 13.7009 13.0058 12.5058C14.2009 11.3108 14.8731 9.69048 14.875 8.00042V8C14.875 6.73914 14.5011 5.5066 13.8006 4.45824C13.1001 3.40988 12.1045 2.59278 10.9396 2.11027C9.77473 1.62776 8.49293 1.50151 7.2563 1.74749C6.01967 1.99347 4.88376 2.60063 3.9922 3.49219C3.10064 4.38375 2.49348 5.51967 2.2475 6.7563C2.00152 7.99293 2.12776 9.27473 2.61027 10.4396C3.09278 11.6045 3.90988 12.6001 4.95824 13.3006C6.00661 14.0011 7.23915 14.375 8.5 14.375ZM4.81935 2.49151C5.90877 1.76359 7.18957 1.37504 8.4998 1.375C10.2563 1.37702 11.9403 2.07568 13.1823 3.31771C14.4244 4.55979 15.123 6.24385 15.125 8.00042C15.1249 9.31058 14.7364 10.5913 14.0085 11.6807C13.2805 12.7701 12.2458 13.6193 11.0353 14.1207C9.82472 14.6221 8.49265 14.7533 7.20753 14.4977C5.92241 14.2421 4.74194 13.6111 3.81542 12.6846C2.8889 11.7581 2.25793 10.5776 2.0023 9.29247C1.74667 8.00735 1.87787 6.67528 2.3793 5.46472C2.88073 4.25416 3.72987 3.21948 4.81935 2.49151Z" fill="white" stroke="white" stroke-width="0.75"/>
<path id="Vector_2" d="M7.09215 10.375H7.35764L7.44585 10.1246C7.52285 9.90599 7.66563 9.71658 7.85458 9.58237C8.04346 9.4482 8.26923 9.37577 8.50091 9.375C8.70655 9.37469 8.90832 9.43088 9.0842 9.53744C9.26015 9.64405 9.40341 9.79696 9.49834 9.97948C9.59327 10.162 9.6362 10.3671 9.62245 10.5724C9.6087 10.7776 9.5388 10.9752 9.42038 11.1434C9.30196 11.3116 9.13958 11.4441 8.95098 11.5262C8.76239 11.6084 8.55483 11.6372 8.35099 11.6094C8.14715 11.5816 7.95487 11.4983 7.79516 11.3687C7.63545 11.239 7.51445 11.0679 7.44539 10.8741L7.35661 10.625H7.09215H4.5C4.46685 10.625 4.43505 10.6118 4.41161 10.5884C4.38817 10.5649 4.375 10.5332 4.375 10.5C4.375 10.4669 4.38817 10.4351 4.41161 10.4116C4.43505 10.3882 4.46685 10.375 4.5 10.375H7.09215ZM8.5 11.375L8.50037 11.375C8.73227 11.3748 8.9546 11.2825 9.11857 11.1186C9.28255 10.9546 9.37477 10.7323 9.375 10.5004V10.5C9.375 10.3269 9.32368 10.1578 9.22754 10.0139C9.13139 9.86998 8.99473 9.75783 8.83485 9.69161C8.67496 9.62538 8.49903 9.60805 8.3293 9.64182C8.15956 9.67558 8.00365 9.75891 7.88128 9.88128C7.75891 10.0037 7.67558 10.1596 7.64181 10.3293L8.00961 10.4025L7.64181 10.3293C7.60805 10.499 7.62538 10.675 7.69161 10.8348C7.75783 10.9947 7.86998 11.1314 8.01388 11.2275C8.15777 11.3237 8.32694 11.375 8.5 11.375Z" fill="white" stroke="white" stroke-width="0.75"/>
<path id="Vector_3" d="M4.96462 4.46433C4.49877 4.9276 4.12945 5.47869 3.87805 6.08567C3.62665 6.69266 3.49816 7.34349 3.50002 8.00048C3.50002 8.13309 3.5527 8.26027 3.64647 8.35403C3.74023 8.4478 3.86741 8.50048 4.00002 8.50048C4.13263 8.50048 4.25981 8.4478 4.35357 8.35403C4.44734 8.26027 4.50002 8.13309 4.50002 8.00048C4.49996 7.34266 4.66214 6.69497 4.9722 6.1148C5.28225 5.53463 5.7306 5.03988 6.27754 4.67438C6.82448 4.30888 7.45312 4.08391 8.10777 4.0194C8.76242 3.9549 9.42288 4.05284 10.0306 4.30456C10.6384 4.55628 11.1747 4.954 11.592 5.4625C12.0093 5.971 12.2948 6.57457 12.4232 7.21976C12.5515 7.86494 12.5187 8.53182 12.3278 9.16131C12.1368 9.79081 11.7935 10.3635 11.3284 10.8286C11.281 10.8748 11.2432 10.93 11.2173 10.9909C11.1914 11.0518 11.1778 11.1173 11.1774 11.1835C11.177 11.2497 11.1897 11.3153 11.2149 11.3765C11.24 11.4377 11.2771 11.4934 11.3239 11.5402C11.3707 11.587 11.4263 11.624 11.4875 11.6492C11.5488 11.6743 11.6144 11.687 11.6806 11.6866C11.7468 11.6862 11.8122 11.6726 11.8731 11.6467C11.9341 11.6208 11.9892 11.5831 12.0354 11.5357C12.9731 10.598 13.5 9.32628 13.5 8.0002C13.5001 6.67412 12.9733 5.40232 12.0357 4.4646C11.098 3.52689 9.8263 3.00005 8.50021 3C7.17413 2.99995 5.90234 3.52668 4.96462 4.46433Z" fill="white"/>
</g>
</g>
</svg>
