<svg width="20" height="20" viewBox="0 0 20 20" fill="none" xmlns="http://www.w3.org/2000/svg">
<path d="M6.50391 12.125C6.16224 12.125 5.87891 11.8417 5.87891 11.5V8C5.87891 7.65833 6.16224 7.375 6.50391 7.375C6.84557 7.375 7.12891 7.65833 7.12891 8V11.5C7.12891 11.8417 6.84557 12.125 6.50391 12.125Z" fill="#929AB5"/>
<path d="M6.62501 15.625C5.38334 15.625 4.375 14.6167 4.375 13.375C4.375 12.1333 5.38334 11.125 6.62501 11.125C7.86667 11.125 8.875 12.1333 8.875 13.375C8.875 14.6167 7.86667 15.625 6.62501 15.625ZM6.62501 12.375C6.07501 12.375 5.625 12.825 5.625 13.375C5.625 13.925 6.07501 14.375 6.62501 14.375C7.17501 14.375 7.62502 13.925 7.62502 13.375C7.62502 12.825 7.17501 12.375 6.62501 12.375Z" fill="#929AB5"/>
<path d="M6.49999 8.625C5.32499 8.625 4.375 7.67499 4.375 6.49999C4.375 5.32499 5.32499 4.375 6.49999 4.375C7.67499 4.375 8.625 5.32499 8.625 6.49999C8.625 7.67499 7.67499 8.625 6.49999 8.625ZM6.49999 5.625C6.01666 5.625 5.625 6.01666 5.625 6.49999C5.625 6.98333 6.01666 7.37501 6.49999 7.37501C6.98333 7.37501 7.37498 6.98333 7.37498 6.49999C7.37498 6.01666 6.98333 5.625 6.49999 5.625Z" fill="#929AB5"/>
<path d="M13.5 8.625C12.325 8.625 11.375 7.67499 11.375 6.49999C11.375 5.32499 12.325 4.375 13.5 4.375C14.675 4.375 15.625 5.32499 15.625 6.49999C15.625 7.67499 14.675 8.625 13.5 8.625ZM13.5 5.625C13.0167 5.625 12.625 6.01666 12.625 6.49999C12.625 6.98333 13.0167 7.37501 13.5 7.37501C13.9833 7.37501 14.375 6.98333 14.375 6.49999C14.375 6.01666 13.9833 5.625 13.5 5.625Z" fill="#929AB5"/>
<path d="M6.56861 12.1249C6.51861 12.1249 6.46028 12.1166 6.41028 12.1083C6.07695 12.0249 5.87696 11.6833 5.9603 11.3499C6.2603 10.1749 7.3186 9.36659 8.52695 9.36659H8.53528L10.2519 9.37492H10.2603C11.2686 9.37492 12.1603 8.74159 12.4936 7.79162C12.6103 7.46662 12.9686 7.29163 13.2853 7.4083C13.6103 7.52496 13.7853 7.87495 13.6686 8.20829C13.1603 9.66659 11.7936 10.6416 10.2436 10.6333L8.52695 10.6249C8.52695 10.6249 8.52695 10.6249 8.51861 10.6249C7.87692 10.6249 7.31863 11.0583 7.1603 11.6749C7.10196 11.9416 6.84361 12.1249 6.56861 12.1249Z" fill="#929AB5"/>
<path d="M12.5013 18.9582H7.5013C2.9763 18.9582 1.04297 17.0248 1.04297 12.4998V7.49984C1.04297 2.97484 2.9763 1.0415 7.5013 1.0415H12.5013C17.0263 1.0415 18.9596 2.97484 18.9596 7.49984V12.4998C18.9596 17.0248 17.0263 18.9582 12.5013 18.9582ZM7.5013 2.2915C3.65964 2.2915 2.29297 3.65817 2.29297 7.49984V12.4998C2.29297 16.3415 3.65964 17.7082 7.5013 17.7082H12.5013C16.343 17.7082 17.7096 16.3415 17.7096 12.4998V7.49984C17.7096 3.65817 16.343 2.2915 12.5013 2.2915H7.5013Z" fill="#929AB5"/>
</svg>
